<ttFont>
          <CharString index="0">
            60 168 rlineto
            40.6666564941 112 42.6666564941 119.333312988 44.6666870117 126.666687012 44.6666870117 126.666625977 26.3333129883 78 8 29.3333740234 20 -76 85 -253.333374023 150 -430.666625977 rrcurveto
            return
          </CharString>
          <CharString index="1">
            127 0 198 505 617 0 190 -505 132 0 -560 1488 -123 0 rlineto
            return
          </CharString>
          <CharString index="2">
            166 0 131.666625977 30.3333282471 97.3333740234 60.6666717529 rrcurveto
            -26 103 rlineto
            -128.666625977 -58 -116.666687012 -29 -104.666687012 0 -97.3333129883 0 -86 17.5 -74.6666870117 35 -74.6666564941 35 -59.8333435059 48 -45 61 -45 61 -33.6666564941 69.3333435059 -22.3333435059 77.6666564941 -22.3333435059 77.6666870117 -11.1666564941 84.5 0 91.3333129883 0 93.3333129883 12.1666564941 86.6666870117 24.3333435059 80 rrcurveto
            24.3333435059 80 35.3333129883 70.3333740234 46.3333435059 60.6666259766 46.3333435059 60.6666259766 59.5 47.5 72.6666564941 34.3333740234 72.6666870117 34.3333740234 82 17.1666259766 91.3333129883 0 130.666687012 0 117.333312988 -31.3333740234 104 -62.6666259766 rrcurveto
            61 99 rlineto
            -114 68 -138 34 -162 0 -147.333312988 0 -127.666687012 -33.3333740234 -108 -66.6666259766 -108 -66.6666259766 -81.1666717529 -90.5 -54.3333282471 -114.333374023 -54.3333282471 -114.332885742 -27.1666717529 -131.166687012 0 -148.000427246 0 -111.333312988 14.5 -102.333374023 29 -93.3333129883 29 -93.333190918 42.6666717529 -81.3333435059 56.3333282471 -69.3334655762 rrcurveto
            56.3333435059 -69.3333587646 72.8333129883 -54.1666717529 89.3333435059 -38.9999694824 89.3333129883 -39 101.666687012 -19.5 114 0 rrcurveto
            return
          </CharString>
          <CharString index="3">
            434 hlineto
            241.333312988 0 187.666687012 63 134 126 134 125.999969482 67 184.666656494 0 243.333374023 0 128.666687012 -19 112.5 -38 96.3333129883 -38 96.3333740234 -54.3333740234 77.6666259766 -70.6666259766 59 -70.6666259766 59 -83.1666870117 43.8333740234 -95.6666870117 28.6666259766 -95.6666870117 28.6666259766 -108.5 14.3333740234 -121.333312988 0 rrcurveto
            -403 hlineto
            return
          </CharString>
          <CharString index="4">
            1275 263 vlineto
            104.666687012 0 92.3333129883 -11.8333740234 80 -23.6666259766 80 -23.6666259766 69.3333129883 -37 58.6666870117 -50.3333740234 58.6666259766 -50.3327636719 44.5 -66.8333740234 30.3333740234 -83.3338623047 30.3333740234 -83.3333129883 15.1666259766 -99 0 -114.666687012 0 -209.333312988 -54.1666259766 -157.500030518 -108.333374023 -105.666656494 -108.333312988 -105.666656494 -157.5 -52.8333435059 -206.666687012 0 rrcurveto
            return
          </CharString>
          <CharString index="5">
            835 0 11 107 -718 0 0 606 662 0 0 109 -662 0 0 560 696 0 5 106 -829 0 rlineto
            return
          </CharString>
          <CharString index="6">
            104.666687012 0 90.5 8.16667175293 76.3333129883 16.3333282471 76.3333740234 16.3333282471 78.8332519531 29.1666717529 81.3333740234 42 rrcurveto
            656 -480 vlineto
            -8 -111 369 0 0 -476 rlineto
            -126 -50 -115.333312988 -25 -104.666687012 0 -101.333312988 0 -89.3333740234 15.8333435059 -77.3333129883 31.6666564941 -77.3333129883 31.6666717529 -63.3333435059 45 -49.3333435059 58.3333282471 -49.3333435059 58.3333435059 -37 69.1666564941 -24.6666564941 80 -24.6666564941 80 -12.3333435059 89.6666870117 0 99.3333129883 0 93.3325195312 12.1666564941 86.3333129883 24.3333435059 79.3341674805 rrcurveto
            24.3333435059 79.3333740234 35.8333129883 70.1666259766 47.3333435059 61 47.3333435059 61 61.8333129883 47.8333740234 76.3333435059 34.6666259766 76.3330078125 34.6666259766 86.8333129883 17.3333740234 97.3336791992 0 64.6666870117 0 66.8333129883 -10.1666259766 69 -20.3333740234 69 -20.33203125 61.8333740234 -26.8333740234 54.6666259766 -33.3345947266 rrcurveto
            57 103 rlineto
            -129.333374023 76.6666259766 -148 38.3333740234 -166.666625977 0 -152 0 -131.5 -33.6666259766 -111 -67.3333740234 -111 -67.3333740234 -83.5 -91.5 -56 -115.666625977 -56 -115.666687012 -28 -132.833312988 0 -150 0 -85.3333129883 9.5 -80.8333740234 19 -76.3333129883 19 -76.3333435059 28.6666717529 -70 38.3333282471 -63.6666564941 rrcurveto
            38.3333435059 -63.6666717529 46.8333129883 -54.8333282471 55.3333435059 -46 55.3333435059 -46 65.8333129883 -35.8333435059 76.3333435059 -25.6666564941 76.3333129883 -25.6666717529 83.5 -12.8333282471 90.6666870117 0 rrcurveto
            return
          </CharString>
          <CharString index="7">
            128 718 854 -718 128 1488 -128 -658 -854 658 -128 hlineto
            return
          </CharString>
          <CharString index="8">
            128 1488 -128 hlineto
            return
          </CharString>
          <CharString index="9">
            12 hlineto
            39.3333282471 0 35.1666717529 2 31 4 31 4 27.1666717529 4.83334350586 23.3333282471 5.66665649414 23.3333282471 5.66677856445 20.5 9.66665649414 17.6666717529 13.6665649414 17.6666564941 13.6666564941 14.8333435059 12 12 10.3333435059 12 10.3333282471 9.83334350586 16.8333435059 7.66665649414 23.3333282471 7.66665649414 23.3333282471 6 19.3333435059 4.33334350586 15.3333282471 rrcurveto
            4.33334350586 15.3333435059 3.16665649414 24.1666564941 2 33 2 33 1.16665649414 26.8333282471 0.333343505859 20.6666717529 0.333343505859 20.6666717529 0.166656494141 31.3333282471 0 42 rrcurveto
            1211 -133 -1298 vlineto
            -45.5 vlineto
            0 -10.3333282471 -0.66667175293 -14.1666717529 -1.33332824707 -18 -1.33332824707 -18 -1.66667175293 -13.6666564941 -2 -9.33334350586 -2 -9.33329772949 -3.33332824707 -11.8333282471 -4.66667175293 -14.3333740234 -4.66667175293 -14.3333282471 -5.5 -10.8333435059 -6.33332824707 -7.33332824707 -6.33332824707 -7.33332824707 -8 -8.33334350586 -9.66667175293 -9.33332824707 -9.66662597656 -9.33332824707 -11.1666717529 -6.83334350586 -12.6667022705 -4.33332824707 rrcurveto
            -12.6666107178 -4.33332824707 -15 -3.83334350586 -17.3333892822 -3.33332824707 -17.3333129883 -3.33332824707 -19.3333282471 -1.66667175293 -21.3333587646 0 rrcurveto
            -60 -3 rlineto
            return
          </CharString>
          <CharString index="10">
            129 603 hlineto
            145 136 607 -739 163 0 -672 817 621 671 -169 0 -101 -112 rlineto
            -67.3333129883 -74.6666259766 -84.5 -93.5 -101.666687012 -112.333374023 -101.666442871 -112.333312988 -74.8333435059 -82.6666870117 -48.000213623 -53 -48 -53 -38.6666564941 -42.8333129883 -29.3333435059 -32.6666870117 rrcurveto
            769 -129 vlineto
            return
          </CharString>
          <CharString index="11">
            792 0 6 113 -669 0 0 1375 -129 0 rlineto
            return
          </CharString>
          <CharString index="12">
            123 938 hlineto
            0 108.666625977 -2.66665649414 129.333374023 -5.33334350586 150 rrcurveto
            51 -73 817 -1253 152 0 0 1488 -121 0 0 -945 rlineto
            0 -50 2.33337402344 -127.666687012 4.66662597656 -205.333312988 rrcurveto
            -53 73 -819 1255 -149 0 rlineto
            return
          </CharString>
          <CharString index="13">
            111.332885742 0 100 19.3333282471 88.6671142578 38.6666717529 88.6666259766 38.6666717529 72.8333740234 53.6666717529 57 68.6666564941 57 68.6666564941 43.5 80.8333435059 30 93 30 93 15 101.5 0 110 0 234.666687012 -61 187.166687012 -122 139.666625977 -122 139.666625977 -170 69.8333740234 -218 0 rrcurveto
            -222 0 -171.833343506 -69.3333740234 -121.666656494 -138.666625977 -121.666656494 -138.666625977 -60.8333435059 -187.333374023 0 -236 0 -112.666687012 14.8333282471 -103 29.6666717529 -93.3333129883 29.6666717529 -93.333190918 43.3333282471 -80.8333435059 57 -68.3334655762 57 -68.3333435059 73 -53 89 -37.6666564941 89 -37.6666717529 101.166687012 -18.8333282471 113.333312988 0 rrcurveto
            return
          </CharString>
          <CharString index="14">
            -182.666687012 -3.0517578125e-05 -138.5 59.3333435059 -94.3333129883 118.666687012 -94.3333435059 118.666656494 -47.1666564941 161.666656494 0 204.666687012 0 211.333312988 47.5 163.166687012 95 115 95 115 138.5 57.5 182 0 180.666687012 0 136.999938965 -57.6666259766 93.3333740234 -115.333374023 93.3333740234 -115.332885742 46.6666259766 -163 0 -210.667114258 rrcurveto
            0 -134.666687012 -19.5 -116.166656494 -39 -97.6666564941 -39 -97.6666564941 -61.3333740234 -76.8333435059 -83.6666259766 -56 -83.6666259766 -56 -103.166687012 -28 -122.666687012 0 rrcurveto
            return
          </CharString>
          <CharString index="15">
            -94.6667480469 0 -125.666656494 1 -156.666595459 2 rrcurveto
            550 419 vlineto
            114.666687012 0 81.1666259766 -23.1666259766 47.6666870117 -46.3333740234 47.6666870117 -46.3333740234 23.8333129883 -66.5 0 -86.6666259766 0 -96.6666870117 -26.3333129883 -71.5 -52.6666870117 -46.3333129883 -52.6658325195 -46.3333129883 -92.6666870117 -23.1666870117 -132.667480469 0 rrcurveto
            return
          </CharString>
          <CharString index="16">
            128 728 hlineto
            322 -6 rlineto
            85.3326416016 0 49.3333129883 1 13.3340454102 2 48.6666870117 -110.666687012 31.3333129883 -72 14 -33.3333129883 rrcurveto
            210 -509 149 0 -244 559 rlineto
            -20 42.6666870117 -30 62.3333129883 -40 82 91.9990844727 23.3318481445 68.3333129883 44.3333129883 44.6676025391 65.3348388672 44.6666259766 65.3323974609 22.3333740234 78.3333129883 0 91.3342895508 0 46.6644287109 -4.5 41.6666259766 -9 36.6689453125 -9 36.6666259766 -12.5 31.5 -16 26.3333740234 -16 26.3333740234 -21.1666259766 22.5 -26.3333740234 18.6666259766 rrcurveto
            -26.3294677734 18.6666259766 -27.6666870117 14.8333740234 -29.0038452148 11 -29 11 -35.1666870117 8.83337402344 -41.3333129883 6.66662597656 -41.3333129883 6.66662597656 -40.5 4.33337402344 -39.6666870117 2 -39.6666870117 2 -46.8333129883 1 -54 0 rrcurveto
            -424 hlineto
            return
          </CharString>
          <CharString index="17">
            150.666687012 0 121.166625977 38.6666564941 91.6666870117 77.3333435059 91.6666259766 77.3333435059 45.8333740234 108.666656494 0 140 0 62.6666564941 -8.66662597656 54.1666564941 -17.3333740234 45.6666870117 -17.3333740234 45.6666870117 -26.5 38.1666259766 -35.6666259766 30.6666870117 -35.6666870117 30.6666870117 -41 25 -46.3333129883 19.3333129883 -46.3333129883 19.3333129883 -56.5 16.6666870117 -66.6666870117 14 rrcurveto
            -268 55 rlineto
            -87.3333435059 18.6666870117 -66 28.5 -44.6666564941 38.3333129883 -44.6666717529 38.3333129883 -22.3333282471 50.8333129883 0 63.3333740234 -0.000106811523438 101.333374023 35.3333282471 74.1666259766 70.6667785645 47 70.6666564941 47 105.666656494 23.5 140.666687012 0 82.6666870117 0 79.8333129883 -9.83337402344 77 -19.6666259766 77 -19.6666259766 58.1666259766 -20.8333740234 39.3333740234 -22 rrcurveto
            33 98 rlineto
            -51.3333740234 26 -65.8333129883 23.3333740234 -80.3333129883 20.6666259766 -80.3333129883 20.6666259766 -82.1666870117 10.3333740234 -84 0 -84.6666870117 0 -75.5 -7.16662597656 -66.3333129883 -14.3333740234 -66.3331604004 -14.3333740234 -58.3333435059 -22.1666259766 -50.3334960938 -30 -50.3333282471 -30 -38.5 -40.1666259766 -26.6666717529 -50.3333740234 -26.6666564941 -50.3333740234 -13.3333435059 -59.5 0 -68.6666259766 rrcurveto
            0 -106 33.5 -81.6666870117 67 -57.3333129883 67 -57.3333129883 100.5 -42 134 -26.6666870117 rrcurveto
            240 -48 rlineto
            59.3317871094 -12 48.8333129883 -14.5 38.3348999023 -17 38.3333129883 -17 29.1666870117 -21 20 -25 20 -25 13.6666870117 -26.1666870117 7.33331298828 -27.3333129883 7.33331298828 -27.3333435059 3.66668701172 -33.6666564941 0 -40 0 -108 -30.8333129883 -83.6666717529 -61.6666870117 -59.3333282471 -61.6666870117 -59.3333282471 -87.8333129883 -29.6666717529 -114 0 rrcurveto
            -207.333312988 0 -174 38 -140.666687012 76 rrcurveto
            -48 -91 rlineto
            53.3333129883 -32 75 -29.3333435059 96.6666870117 -26.6666564941 96.6666564941 -26.6666717529 111.333343506 -13.3333282471 126 0 rrcurveto
            return
          </CharString>
          <CharString index="18">
            130 1378 468 110 -1066 -110 468 hlineto
            return
          </CharString>
          <CharString index="19">
            77.3333129883 0 69.5 8.5 61.6666870117 17 61.6666870117 17 52.1666259766 24 42.6666870117 31 42.6666259766 31 35.3333740234 37.8333282471 28 44.6666717529 28 44.6666717529 20.5 49.3333282471 13 54 13 54 6.5 59.6666564941 0 65.3333435059 rrcurveto
            973 -128 -990 vlineto
            0 -279.333343506 -138.666687012 -139.666671753 -277.333312988 1.52587890625e-05 -141.333312988 0 -105.666687012 34.1666564941 -70 68.3333435059 -70 68.3333435059 -35 105.166656494 0 142 rrcurveto
            991 -128 -971 vlineto
            0 -82 10 -73.1666564941 20 -64.3333435059 20 -64.3332366943 31 -56.5 42 -48.6667633057 42 -48.6666564941 56.3333435059 -37.3333282471 70.6666564941 -26.0000152588 70.6666870117 -26 83.3333129883 -13 96 0 rrcurveto
            return
          </CharString>
          <CharString index="20">
            131 593 hlineto
            529 895 -141 0 -445 -785 -431 785 -139 0 496 -899 rlineto
            return
          </CharString>
          <CharString index="21">
            994 0 8 113 -840 0 832 1271 0 104 -964 0 0 -112 796 0 -826 -1265 rlineto
            return
          </CharString>
          <CharString index="22">
            73 0 -191 387 -158 0 rlineto
            return
          </CharString>
          <CharString index="23">
            -66.6666564941 -3.0517578125e-05 -53.5 16.6666564941 -40.3333435059 33.3333740234 -40.3333282471 33.3332977295 -20.1666717529 50 0 66.6667022705 0 81.3333435059 31.6666717529 60 63.3333282471 38.6666564941 63.3333435059 38.6666564941 112.999969482 26.6666564941 162.666687012 14.6666870117 0.666687011719 0 48.3333129883 4 96 8 rrcurveto
            -187 vlineto
            -20.6666870117 -89.3333435059 -43.5 -69.8333282471 -66.3333129883 -50.3333282471 -66.3333129883 -50.3333282471 -75.8333740234 -25.1666717529 -85.3333129883 0 rrcurveto
            return
          </CharString>
          <CharString index="24">
            157.333312988 0 121.666687012 61.6666564941 86 123.333343506 0 -1.33332824707 3.16668701172 -23.3333435059 6.33331298828 -45.3333282471 6.32080078125 -45.3333282471 4.83331298828 -30.3333435059 3.34588623047 -15.3333282471 rrcurveto
            97 732 hlineto
            0 143.332458496 -28.6666870117 99.8333129883 -57.3333129883 56.3342285156 -57.3333129883 56.3333740234 -94.3333740234 28.1666259766 -131.333312988 0 -64 0 -65.3333435059 -9 -66.6666564941 -18 -66.6666564941 -18 -54.0000152588 -22.3333740234 -41.3333282471 -26.6666259766 4 -12 6.83332824707 -17.1666870117 9.66667175293 -22.3333129883 9.66667175293 -22.3333129883 6.16665649414 -14.5 2.66667175293 -6.66668701172 rrcurveto
            100.666656494 55.3333129883 108.333343506 27.6666870117 116 0 84.6666870117 0 61.5 -21.1666870117 38.3333129883 -42.3333129883 38.3333129883 -42.3333129883 19.1666870117 -63.1666870117 0 -84 rrcurveto
            -122 vlineto
            -41.3333129883 -3.33331298828 -63.3333740234 -4.33337402344 -85.3333129883 -5.33331298828 -80 -6 -70.1666564941 -10.3333129883 -60.3333435059 -14.6666870117 -60.3333435059 -14.6666870117 -53.6666564941 -20.5 -47 -26.3333129883 -47 -26.3328552246 -35.8333282471 -34.3333435059 -24.6666717529 -42.3338012695 -24.6666564941 -42.3331604004 -12.3333435059 -49.8333435059 0 -57.3334960938 0 -96.6666564941 31 -74.3333435059 62 -52 rrcurveto
            62 -52 82.6666564941 -26 103.333343506 0 rrcurveto
            return
          </CharString>
          <CharString index="25">
            50 0 50 6.5 50 13 50 13 40.6666870117 18.1666717529 31.3333129883 23.3333282471 rrcurveto
            -19 89 rlineto
            -92 -40 -86 -20 -80 0 -114.666656494 0 -90.5 42.1666564941 -66.3333435059 84.3333435059 -66.3332214355 84.3333435059 -33.1666717529 110.499969482 -0.000106811523438 136.666687012 -0.000106811523438 142.666687012 33.3333282471 114.5 66.6667785645 86.3333129883 66.6666564941 86.3333129883 90.3333435059 43.1666870117 114 0 94 0 81.3333129883 -19.3333129883 68.6666870117 -38.6666870117 rrcurveto
            39 93 rlineto
            -25.3333129883 19.3333740234 -38.8333740234 16.6666259766 -52.3333129883 14 -52.3333129883 14 -52.5 7 -52.6666870117 0 -80.6666870117 0 -73.1666564941 -15.5 -65.6666564941 -31 -65.6666564941 -31 -53.6666870117 -42.1666870117 -41.6666564941 -53.3333129883 -41.6665802002 -53.3333129883 -32.1666717529 -61.3333740234 -22.6667480469 -69.3333129883 -22.6666564941 -69.3333129883 -11.3333435059 -74 0 -78.6666870117 rrcurveto
            0 -102.666656494 19 -93.1666870117 38 -83.6666564941 38 -83.6666564941 58 -67.8333435059 78 -52 78 -52 92 -26 106 0 rrcurveto
            return
          </CharString>
          <CharString index="26">
            -46.6666564941 0 -42 8.5 -37.3333435059 17 -37.3333435059 17 -31 23 -24.6666564941 29 -24.6666564941 29 -20.6666870117 34.8333282471 -16.6666564941 40.6666717529 -16.6666564941 40.6666564941 -12.0000152588 42.8333435059 -7.33332824707 45 -7.33332824707 45 -3.66667175293 48.1666564941 0 51.3333435059 0 59.3333129883 6 56.5 12 53.6666870117 rrcurveto
            12 53.6666870117 18.5 49.6666259766 25 45.6666870117 25 45.6666870117 34.1666564941 36.3333129883 43.3333435059 27 43.3333435059 27 50 13.5 56.6666564941 0 240 0 120 -163 0 -326 0 -65.3333435059 -6.83331298828 -59.5 -13.6666870117 -53.6666564941 -13.6666870117 -53.6666564941 -20.8333129883 -47.5000152588 -28 -41.3333282471 rrcurveto
            -28 -41.3333282471 -37.3333129883 -32 -46.6666870117 -22.6666717529 -46.6666870117 -22.6666564941 -54.3333129883 -11.3333435059 -62 0 rrcurveto
            return
          </CharString>
          <CharString index="27">
            68 0 66.5 15.8333282471 65 31.6666717529 65 31.6666564941 51.5 46.8333435059 38 62 rrcurveto
            18 -165 103 0 0 1532 -120 -11 0 -553 0 -33 rlineto
            -35.3333129883 62 -51.6666870117 45.6666259766 -68 29.3333740234 -68 29.3333740234 -68 14.6666259766 -68 0 -138 0 -111.166656494 -52.5 -84.3333435059 -105 -84.3333129883 -105 -42.1666564941 -136.5 -3.0517578125e-05 -168 -3.0517578125e-05 -178.666595459 40.8333435059 -140 81.6666870117 -101.333404541 81.6666564941 -101.333343506 113.833343506 -50.6666564941 146 0 rrcurveto
            return
          </CharString>
          <CharString index="28">
            10.6666717529 113.332580566 33.9999847412 91.3333129883 57.3333435059 69.3341064453 57.3333435059 69.3333129883 75.3333129883 34.6666870117 93.3333435059 0 92 0 72.3333129883 -32.5 52.6666870117 -65 52.6666870117 -65 26.3333129883 -93.5 0 -122 rrcurveto
            return
          </CharString>
          <CharString index="29">
            139.333312988 0 125 34 110.666687012 68 rrcurveto
            -21 93 rlineto
            -57.3333129883 -30.6666717529 -55 -23.6666717529 -52.6666870117 -16.6666564941 -52.6666870117 -16.6666564941 -62 -8.33334350586 -71.3333129883 0 -109.333343506 0 -88 41.1666564941 -66.6666564941 82.3333435059 -66.6666564941 82.3333435059 -34.0000152588 111.499969482 -1.33332824707 140.666687012 rrcurveto
            763 hlineto
            0 7.32916259766 0.166687011719 12.8333129883 0.333312988281 18.3375244141 0.333312988281 18.3333129883 0.166687011719 12.1666870117 0 6 0 154.666687012 -39 123.333312988 -78 92 -78 92 -103.333312988 46 -128.666687012 0 -138 -3.33337402344 -112.5 -55 -87 -106.666625977 -87 -106.666687012 -43.5 -137 0 -167.333312988 rrcurveto
            0 -173.333312988 44.5 -137.333343506 89 -101.333343506 88.9999389648 -101.333343506 120.166656494 -50.6666564941 151.333404541 0 rrcurveto
            return
          </CharString>
          <CharString index="30">
            -52 0 -46.5 9.16665649414 -41 18.3333435059 -41 18.3333282471 -33.1666564941 23.6666717529 -25.3333435059 29 -25.3327636719 29 -20.8333435059 34.1666564941 -16.3338928223 39.3333435059 -16.3333282471 39.3333435059 -11.3333435059 38.8333129883 -6.33332824707 38.3333435059 -6.33332824707 38.3333435059 -3.16667175293 39.5 0 40.6666564941 0 46 3.5 44.8333129883 7 43.6666870117 rrcurveto
            7 43.6666870117 12.1666717529 42.8333129883 17.3333282471 42 17.3333435059 42 21.3333129883 36.6666870117 25.3333435059 31.3333129883 25.3333435059 31.3333129883 32.5 25.1666870117 39.6666564941 19 39.6661987305 19 44.5 9.5 49.3338012695 0 60.6666870117 0 53.3333129883 -11.3333129883 46 -22.6666870117 46 -22.6666870117 36.1666870117 -30.8333129883 26.3333129883 -39 rrcurveto
            26.3333129883 -39 19.5 -42.5 12.6666870117 -46 12.6666870117 -46 6.33331298828 -49 0 -52 rrcurveto
            -114 vlineto
            0 -39.3333435059 -3.66668701172 -38.1666564941 -7.33331298828 -37 -7.33331298828 -37 -12.5 -35.8333435059 -17.6666870117 -34.6666564941 -17.6634521484 -34.6665496826 -21.6666870117 -30.1666717529 -25.6698608398 -25.6667785645 -25.6666870117 -25.666519165 -32.5 -20.6666717529 -39.3333129883 -15.666809082 -39.3333129883 -15.6666564941 -44 -7.83334350586 -48.6666870117 0 rrcurveto
            return
          </CharString>
          <CharString index="31">
            201 hlineto
            70.6666870117 0 63.1666259766 7.33334350586 55.6666870117 14.6666564941 55.6666870117 14.6671142578 45.6666259766 17.6666564941 35.6666870117 20.666229248 35.6666870117 20.6666564941 30.5 28.3333435059 25.3333129883 36 25.3296508789 36 18.8333129883 32.8333435059 12.3370361328 29.6666564941 12.3333129883 29.6666717529 9.66668701172 38 7 46.3333282471 7 46.3333129883 4 36.6666717529 1 27.0000152588 rrcurveto
            1 27 0.5 35.5 0 44 rrcurveto
            1016 -110 vlineto
            -12 -154 rlineto
            -46 60.6666870117 -49.8333129883 44.1666870117 -53.6666870117 27.6666259766 -53.6666870117 27.6666259766 -61.8333129883 13.8333740234 -70 0 -71.3333435059 0 -64 -11.1666259766 -56.6666564941 -22.3333740234 -56.6666564941 -22.3333740234 -46.3333435059 -29.6666259766 -36 -37 -36 -37 -30 -43.8333129883 -24 -50.6666870117 -24 -50.6666870117 -16.8333435059 -51.8333129883 -9.66665649414 -53 rrcurveto
            -9.66665649414 -53 -4.83334350586 -55.8333129883 0 -58.6666870117 0 -46.6666564941 5 -47.1666870117 10 -47.6666564941 9.99993896484 -47.6666564941 16.6666717529 -47.8333435059 23.3333892822 -48 23.3332366943 -48 28.8333282471 -42.6666717529 34.3334350586 -37.3333282471 34.3333435059 -37.3333282471 44 -30.3333282471 53.6666564941 -23.3333435059 53.6666564941 -23.3333282471 59.5 -11.6666717529 65.3333435059 0 rrcurveto
            82.6666870117 0 70 17.1666717529 57.3333129883 34.3333282471 57.3333129883 34.3333129883 49.6666870117 48.8333282471 42 63.3333587646 rrcurveto
            5 -69 rlineto
            1.33331298828 -10.6666564941 0.666687011719 -1.66668701172 0 7.33334350586 0 -51.3333282471 -0.666687011719 -42.5 -1.33331298828 -33.6666717529 -1.33331298828 -33.6666717529 -3.5 -37 -5.66668701172 -40.3333282471 -5.65979003906 -40.3333282471 -8.16668701172 -32.8333435059 -10.6735229492 -25.3333282471 -10.6666870117 -25.3333282471 -14.8333129883 -25.5000152588 -19 -25.6666564941 -19 -25.6666564941 -23 -20 -27 -14.3333435059 rrcurveto
            -27 -14.3333435059 -33.1666870117 -11.6666564941 -39.3333129883 -9 -39.3333129883 -9 -45.3333740234 -4.5 -51.3333129883 0 rrcurveto
            -232 hlineto
            return
          </CharString>
          <CharString index="32">
            124 622 hlineto
            0 52.6666870117 0.666656494141 39.6666259766 1.33334350586 26.6666870117 14.6666564941 79.3325195312 39 64.8333129883 63.3333435059 50.3341674805 63.3333435059 50.3333129883 79.3333435059 25.1666870117 95.3333129883 0 96 0 67 -27.5 38 -55 38 -55 19 -89.1666870117 0 -123.333312988 rrcurveto
            -661 123 685 vlineto
            287.333374023 -119 143.666625977 -238 vhcurveto
            -166.666564941 0 -128 -62 -89.3334350586 -124 rrcurveto
            1.5 30 rlineto
            0.333343505859 6.66668701172 0.333312988281 3.66662597656 0.333343505859 0.666687011719 0.333343505859 0.666687011719 0.166656494141 3 0 5.33331298828 rrcurveto
            0 29 0 523 -124 -11 rlineto
            return
          </CharString>
          <CharString index="33">
            124 168 -124 hlineto
            return
          </CharString>
          <CharString index="34">
            125 1096 -125 hlineto
            return
          </CharString>
          <CharString index="35">
            125 167 -125 hlineto
            return
          </CharString>
          <CharString index="36">
            123 450 hlineto
            128 118 419 -568 157 0 -491 638 459 458 -167 0 -379 -389 rlineto
            -4.66665649414 -5.33331298828 -20.6666870117 -22.6666870117 -36.6666564941 -40 -36.6666564941 -40 -21.3333435059 -23.6666870117 -6 -7.33331298828 rrcurveto
            0 95 0 869 -123 -10 rlineto
            return
          </CharString>
          <CharString index="37">
            39.999786377 0 52.6666564941 8 65.3335571289 16 rrcurveto
            -5 96 rlineto
            -60 -15.3333435059 -50 -7.66665649414 -40 0 -49.3329772949 0 -36.8333435059 12.6666564941 -24.3336791992 25.3333435059 -24.3333435059 25.3332977295 -12.1666564941 46 0 66.6667022705 rrcurveto
            0 1282 -122 -10 0 -1279 rlineto
            0 -93.9999694824 21.3333282471 -67.8333435059 42.6666717529 -41.6666870117 42.6666564941 -41.6666717529 67.3333435059 -20.8333282471 92 0 rrcurveto
            return
          </CharString>
          <CharString index="38">
            125 643 hlineto
            0 34 1.33334350586 32.6666870117 2.66665649414 31.3333129883 16 79.3333129883 39.5 64.6666870117 63 50 62.999786377 50 81.1666564941 25 99.3335571289 0 86.6666870117 0 62.3333129883 -21.3333129883 38 -42.6666870117 38 -42.6666870117 20.6666870117 -70 3.33331298828 -97.3333129883 rrcurveto
            -736 125 680 vlineto
            0 152 -29.6666870117 110.666687012 -59.3333129883 69.3333129883 -59.3333129883 69.3333740234 -92.6666870117 34.6666259766 -126 0 -76.6666870117 0 -71.5 -16.8333740234 -66.3333129883 -33.6666259766 -66.3330078125 -33.6666259766 -52.8333435059 -46.1666870117 -39.3336486816 -58.6666870117 rrcurveto
            -17 169 -108 0 rlineto
            return
          </CharString>
          <CharString index="39">
            103.333312988 0 90 25.1666717529 76.6666870117 50.3333282471 76.6666870117 50.3333282471 57.6666259766 67.8333282471 38.6666870117 85.3333435059 38.6666259766 85.3333435059 19.3333740234 97.3333129883 0 109.333343506 0 108.666687012 -18.8333740234 96.8333129883 -37.6666259766 85 -37.6666870117 85 -56.5 67.6666870117 -75.3333129883 50.3333129883 -75.3333129883 50.3333740234 -89 25.1666259766 -102.666687012 0 rrcurveto
            -77.3333129883 0 -70.3333435059 -14.5 -63.3333435059 -29 -63.3333435059 -29 -53 -40 -42.6666564941 -51 -42.6666717529 -51 -32.8333282471 -60.3333129883 -23 -69.6666870117 -23 -69.6666870117 -11.5 -75.5 0 -81.3333129883 0 -108 19.8333282471 -96.8333435059 39.6666717529 -85.6666564941 39.6666717529 -85.6666564941 57.6666717529 -67.8333435059 75.6666564941 -50 rrcurveto
            75.6666564941 -50 87.5 -25 99.3333435059 0 rrcurveto
            return
          </CharString>
          <CharString index="40">
            -120 0 -91.8333435059 43.6666564941 -63.6666564941 87.3333435059 -63.6666564941 87.3333435059 -31.8333435059 111.999969482 0 136.666687012 0 90 13 79.8333129883 26 69.6666870117 26 69.6666870117 41.1666564941 56.3333129883 56.3333435059 43 56.3333435059 43 68.1666564941 21.5 80 0 122.666687012 0 91.3333129883 -43 60 -86 rrcurveto
            60 -86 30 -113.666687012 0 -141.333312988 0 -90 -12.5 -79.6666564941 -25 -69.3333435059 -25 -69.3333435059 -40 -55.8333282471 -55 -42.3333282471 -55 -42.3333282471 -67.5 -21.1666717529 -80 0 rrcurveto
            return
          </CharString>
          <CharString index="41">
            123 629 hlineto
            0 100 31.5 86.5 63 73 63 73 77.8333435059 36.5 92.6666564941 0 26.6666870117 0 25.3333129883 -2 24 -4 rrcurveto
            9 103 rlineto
            -31.3333129883 4.66662597656 -29.3333740234 2.33337402344 -27.3333129883 0 -66 0 -63.3333435059 -20.6666259766 -60.6666564941 -41.3333740234 -60.6666564941 -41.3333129883 -50 -53.3333740234 -39.3333435059 -65.3333129883 rrcurveto
            -8 216 -102 0 rlineto
            0 -87.3333129883 0.66667175293 -365.333374023 1.33332824707 -643.333312988 rrcurveto
            return
          </CharString>
          <CharString index="42">
            115.333312988 0 92.5 26.3333282471 69.6666870117 52.6666717529 69.6666870117 52.6666717529 35.8333129883 74.3333282471 2 96 0 83.3333435059 -22.8333129883 65.8333129883 -45.6666870117 48.3333435059 -45.6666870117 48.332824707 -80.5 41.8333129883 -115.333312988 35.3338623047 -2.66668701172 0.666687011719 -13.8333129883 5 -25 9.33331298828 -25 9.33331298828 -17.1666564941 6 -9.33334350586 2.66668701172 rrcurveto
            -86 24 -57.5 25.1666870117 -29 26.3333129883 -29 26.3319091797 -14.5 37.8333129883 0 49.334777832 0 58.6666870117 22.1666717529 46.6666259766 44.3333282471 34.6666870117 44.3333435059 34.6666870117 60.8333129883 17.3333129883 77.3333435059 0 88 0 95.3333129883 -19.3333129883 102.666687012 -38.6666870117 rrcurveto
            42 92 rlineto
            -101.333312988 45.3333740234 -108.333374023 22.6666259766 -115.333312988 0 -115.333343506 0 -91.5 -29.5 -67.6666564941 -59 -67.6666564941 -59 -33.8333435059 -67.8333129883 0 -76.6666870117 1.33334350586 -132.666687012 86.3333282471 -92.3333129883 171.333328247 -52 6 -2 31.6666564941 -11 57.3333435059 -20 109.332763672 -34.6666564941 72.8333129883 -33.3333435059 36.3339233398 -32 rrcurveto
            36.3333129883 -32 18.1666870117 -44 0 -56 -6.666015625 -134 -93.6666870117 -67 -180.667297363 0 -100.666656494 0 -105.333343506 28.6666564941 -110 57.3333435059 rrcurveto
            -18 -104 rlineto
            36 -24 49 -20.6666717529 62 -17.3333282471 62 -17.3333282471 66.3333435059 -8.66667175293 70.6666564941 0 rrcurveto
            return
          </CharString>
          <CharString index="43">
            44 0 62.3333129883 8 80.6666870117 16 rrcurveto
            -5 96 rlineto
            -61.3333129883 -15.3333435059 -51.3333740234 -7.66665649414 -41.3333129883 0 -64 0 -44.6666564941 13.1666564941 -25.3333435059 26.3333435059 -25.3333435059 26.3333282471 -12.6666564941 51.8333282471 0 77.3333435059 rrcurveto
            736 320 91 -320 255 vlineto
            -87 -6 -33 -251 -148 -14 -9 -75 155 0 0 -762 rlineto
            0 -93.9999694824 21.3333282471 -67.8333435059 42.6666717529 -41.6666870117 42.6666564941 -41.6666717529 67.3333435059 -20.8333282471 92 0 rrcurveto
            return
          </CharString>
          <CharString index="44">
            45.3333129883 0 42.5 3.66667175293 39.6666870117 7.33332824707 39.6666870117 7.33332824707 38.6666259766 12.8333435059 37.6666870117 18.3333282471 37.6666870117 18.3333435059 32.1666259766 23.1666564941 26.6666870117 28 26.6666870117 28 21.3333129883 36 16 44 16 44 8 50 0 56 rrcurveto
            746 -124 -749 vlineto
            0 -51.3333435059 -7.83331298828 -43.5 -15.6666870117 -35.6666564941 -15.6666870117 -35.6665039062 -22.5 -27.1666717529 -29.3333129883 -18.6668243408 -29.3333129883 -18.6666564941 -31.6666870117 -13.1666870117 -34 -7.66665649414 -34 -7.66665649414 -39.3333129883 -3.83334350586 -44.6666870117 0 -45.3333435059 0 -39.6666564941 3.66665649414 -34 7.33334350586 -34 7.33334350586 -32 12.8333129883 -30 18.3333435059 rrcurveto
            -30 18.3333282471 -23 27.1666717529 -16 36 -16 36 -8 44 0 52 rrcurveto
            749 -124 -746 vlineto
            -0.0001220703125 -68.6666564941 12.1666717529 -59.6666717529 24.3334503174 -50.6666717529 24.3333282471 -50.6666717529 33.1666717529 -39.1666717529 42 -27.6666564941 42 -27.6666717529 45.5 -20.3333282471 49 -13 49 -13 53.1666564941 -6.5 57.3333435059 0 rrcurveto
            return
          </CharString>
          <CharString index="45">
            103.333343506 0 82.6666564941 27 62 54 62 54 54 82.3333435059 46 110.666656494 13.3333129883 38 152.666687012 429.333312988 292 820.666687012 rrcurveto
            -130 hlineto
            1.33331298828 6.66662597656 0.333312988281 3.33337402344 -0.666625976562 0 -4.66668701172 0.666870117188 -94 -286 -183.333312988 -572.666870117 rrcurveto
            -45 -138 -373 986 -130 0 438 -1103 rlineto
            -9.33334350586 -26.6666564941 -13.1666564941 -36.3333435059 -17 -46 -17 -46 -10.5 -28.6666717529 -4 -11.3333282471 -32.6666564941 -83.3333435059 -37.3333435059 -56 -42 -28.6666564941 -42 -28.6666564941 -63 -14.3333435059 -84 0 -8.66665649414 0 -13.1666870117 0.5 -17.6666564941 1 -17.6666717529 1 -9.83332824707 0.5 -2 0 rrcurveto
            9 -102 rlineto
            28.6666564941 -5.33331298828 28.3333282471 -2.66668701172 28.0000152588 0 rrcurveto
            return
          </CharString>
          <CharString index="46">
            727 93 -599 hlineto
            581 886 0 117 -699 0 0 -99 569 0 -579 -893 rlineto
            return
          </CharString>
          <CharString index="47">
            137 177 -137 hlineto
            return
          </CharString>
          <CharString index="48">
            136 177 -136 hlineto
            return
          </CharString>
          <CharString index="49">
            81.3333129883 0 79.1666870117 10.6666564941 77 21.3333435059 77 21.3333435059 72.6666259766 32.9999847412 68.3333740234 44.6666717529 68.3333740234 44.6666564941 59.8332519531 54 51.3333740234 63.3333435059 51.3333740234 63.3333282471 40.6666259766 76.3333282471 30 89.3333435059 30 89.3333435059 15 97.3333435059 0 105.333312988 0 104.666687012 -15.1666259766 97.1666259766 -30.3333740234 89.6666870117 rrcurveto
            -30.3333740234 89.6666259766 -41 76.5 -51.6666259766 63.3333740234 -51.6666259766 63.3333740234 -60.3333740234 54.1666259766 -69 45 -69 45 -73.3333740234 33.3333740234 -77.6666259766 21.6666259766 -77.6666259766 21.6666259766 -79.5000610352 10.8333740234 -81.3333129883 0 -80.6658935547 0 -78.1666870117 -10.5 -75.6674194336 -21 -75.6666870117 -21 -71.5 -32.8333740234 -67.3333129883 -44.6666259766 rrcurveto
            -67.3331604004 -44.6666259766 -58.8333435059 -53.8333740234 -50.3334960938 -63 -50.3333282471 -63 -39.8333435059 -76.5 -29.3333282471 -90 -29.3333282471 -90 -14.6666717529 -98.3333129883 0 -106.666687012 0 -105.333312988 14.8333282471 -97.6666870117 29.6666717529 -90 29.6666717529 -90 40.1666564941 -76.5 50.6666717529 -63 50.6666564941 -63 59.3333435059 -53.6666717529 68 -44.3333282471 rrcurveto
            68 -44.3333282471 72.1666870117 -32.8333282471 76.3333129883 -21.3333435059 76.3333129883 -21.3333435059 78.5 -10.6666564941 80.6666870117 0 rrcurveto
            return
          </CharString>
          <CharString index="50">
            -58 0 -56.6666870117 6.83332824707 -55.3333129883 13.6666717529 -55.3333129883 13.6666717529 -53.3333740234 19.8333282471 -51.3333129883 26 -51.3333129883 25.9999694824 -47.1666870117 33.6666717529 -43 41.3333587646 -43 41.3332824707 -37.5 46.8333282471 -32 52.3333892822 -32 52.3333435059 -25 60.6666564941 -18 69 -18 69 -9 73.8333129883 0 78.6666870117 rrcurveto
            0 94.6666870117 12.5 87.3333129883 25 80 25 80 34 67.8333740234 43 55.6666259766 43 55.6666259766 50.3333435059 47.5 57.6666564941 39.3333740234 57.6666870117 39.3333740234 61.1666259766 29 64.6666870117 18.6666259766 64.6666870117 18.6666259766 66.6666259766 9.33337402344 68.6666870117 0 70 0 68.6666259766 -9.66662597656 67.3333740234 -19.3333740234 rrcurveto
            67.3333740234 -19.328125 63.3332519531 -29.8333740234 59.3333740234 -40.3385009766 59.3333740234 -40.3333740234 52.1666259766 -48.5 45 -56.6666259766 45 -56.6666259766 35.6666259766 -68.5 26.3333740234 -80.3333740234 26.3333740234 -80.3333129883 13.1666259766 -86.8333740234 0 -93.3333129883 0 -92.6666870117 -12.6666259766 -85.8333129883 -25.3333740234 -79 -25.3333740234 -79 -34.6666259766 -67.3333435059 -44 -55.6666564941 rrcurveto
            -44 -55.6666717529 -51.3333740234 -47.5 -58.6666259766 -39.3333282471 -58.6666259766 -39.3333282471 -62.3333740234 -29.1666717529 -66 -19 -66 -19 -68 -9.5 -70 0 rrcurveto
            return
          </CharString>
          <CharString index="51">
            618 106 -618 hlineto
            return
          </CharString>
          <CharString index="52">
            75 0 273 387 -154 0 rlineto
            return
          </CharString>
          <CharString index="53">
            150 162 -150 hlineto
            return
          </CharString>
          <CharString index="54">
            129 0 37 421 -59 0 rlineto
            return
          </CharString>
          <CharString index="55">
            275 427 rlineto
            -0.666625976562 -28 0 -142.333374023 0.666625976562 -256.666625977 rrcurveto
            return
          </CharString>
          <CharString index="56">
            100 0 881 1514 -93 0 rlineto
            return
          </CharString>
          <CharString index="57">
            93 218 100 hlineto
            -8 82 -92 0 0 561 -93 0 -375 -572 0 -71 375 0 rlineto
            return
          </CharString>
          <CharString index="58">
            304 66 -107 767 -85 hlineto
            -18.6666107178 -23.3333740234 -40.6666717529 -29.6666259766 -62.6667175293 -36 rrcurveto
            -81 vlineto
            56.6666717529 33.3333740234 38 24 19.3333282471 14.6666259766 rrcurveto
            -669 -104 vlineto
            return
          </CharString>
          <CharString index="59">
            89 0 176 295 175 -295 91 0 -171 359 -192 0 rlineto
            return
          </CharString>
          <CharString index="60">
            48.6666870117 0 42.1666259766 15.5 35.6666870117 31 35.6666870117 31 17.8333129883 43.8333740234 0 56.6666259766 0 55.3333740234 -18.1666870117 43.5 -36.3333129883 31.6666259766 -36.3333129883 31.6666259766 -42.8333740234 15.8333740234 -49.3333129883 0 -50 0 -43 -15.6666259766 -36 -31.3333740234 -36 -31.3333740234 -18 -43.6666259766 0 -56 rrcurveto
            0 -55.3333740234 18.5 -43.5 37 -31.6666259766 37 -31.6666259766 43.5 -15.8333740234 50 0 rrcurveto
            return
          </CharString>
          <CharString index="61">
            66 0 55.6666870117 22.3333740234 45.3333129883 44.6666259766 45.3333129883 44.6640625 22.6666870117 61.6666259766 0 78.6693115234 rrcurveto
            -94 hlineto
            0 -57.3326416016 -12.5 -43.3333740234 -25 -29.333984375 -25 -29.3333740234 -34.5 -14.6666259766 -44 0 -44.6666564941 0 -34.1666870117 14.5 -23.6666564941 29 -23.6666564941 29 -11.8333435059 43.5 0 58 rrcurveto
            -92 hlineto
            0 -79.3306884766 22.1666564941 -61.8333740234 44.3333435059 -44.3359375 44.3333435059 -44.3333740234 54.5 -22.1666259766 64.6666564941 0 rrcurveto
            return
          </CharString>
          <CharString index="62">
            167 168 -167 hlineto
            return
          </CharString>
          <CharString index="63">
            192 0 168 359 -89 0 -176 -295 -175 295 -91 0 rlineto
            return
          </CharString>
          <CharString index="64">
            72 hlineto
            64 194 45.6666259766 156.333374023 27.3333740234 118.666625977 rrcurveto
            41 -129 vlineto
            return
          </CharString>
          <CharString index="65">
            94 0 132 486 -139 0 rlineto
            return
          </CharString>
          <CharString index="66">
            58 hlineto
            63.3333282471 0 50.1666717529 4.16668701172 37 8.33331298828 37 8.33331298828 30 16 23 23.6666870117 23 23.6666564941 15.5 30 8 36.3333435059 8 36.3333435059 4 49.1666564941 0 62 rrcurveto
            1400 -137 -1341 vlineto
            0 -23.3333435059 -0.16667175293 -17.1666564941 -0.33332824707 -11 -0.33332824707 -11 -0.66667175293 -14.5 -1 -18 -1 -18 -1.5 -13 -2 -8 -2 -8 -3.16667175293 -10.3333435059 -4.33332824707 -12.6666564941 -4.33332824707 -12.6666564941 -5.33334350586 -9 -6.33332824707 -5.33334350586 -6.33322143555 -5.33334350586 -7.83334350586 -6.16665649414 -9.33343505859 -7 rrcurveto
            -9.33334350586 -7 -11.1666564941 -5 -13 -3 -12.9999847412 -3 -14.6666717529 -2.5 -16.3333435059 -2 -16.3333435059 -2 -18.8333282471 -1 -21.3333282471 0 rrcurveto
            -59 hlineto
            return
          </CharString>
          <CharString index="67">
            72 hlineto
            64 194 45.6666870117 156.333374023 27.3333129883 118.666625977 rrcurveto
            41 -129 vlineto
            return
          </CharString>
          <CharString index="68">
            88 0 209 318 -115 0 rlineto
            return
          </CharString>
          <CharString index="69">
            83 0 213 318 -120 0 rlineto
            return
          </CharString>
          <CharString index="70">
            49 hlineto
            61.3333740234 0 48.8332519531 4.33331298828 36.3333740234 8.66668701172 36.3333740234 8.66668701172 29.6666259766 16.1666259766 23 23.6666870117 23 23.6666564941 15.6666259766 30.5 8.33337402344 37.3333435059 8.33337402344 37.3333435059 4.16662597656 50 0 62.6666564941 rrcurveto
            1343 -125 -1315 vlineto
            -3 vlineto
            0 -50 -1 -35.5 -2 -21 -2 -21 -6.83337402344 -22 -11.6666259766 -23 -11.6666259766 -23 -18.8333740234 -15 -26 -7 -26 -7 -36.3333740234 -3.5 -46.6666259766 0 rrcurveto
            -49 hlineto
            return
          </CharString>
          <CharString index="71">
            62 0 -184 333 -102 0 rlineto
            return
          </CharString>
          <CharString index="72">
            70 0 -198 333 -93 0 rlineto
            return
          </CharString>
          <CharString index="73">
            92 hlineto
            0 45.3333740234 13.8333435059 35.5 27.6666564941 25.6666259766 27.6666870117 25.6666259766 32.6666259766 12.8333740234 37.6666870117 0 37.6666870117 0 32.6666259766 -12.8333740234 27.6666870117 -25.6666259766 27.6666870117 -25.6666259766 13.8333129883 -35.5 0 -45.3333740234 rrcurveto
            94 hlineto
            0 49.3333740234 -11.5 42.6666259766 -23 36 -23 36 -28.8333129883 26.3333740234 -34.6666870117 16.6666259766 -34.6654052734 16.6666259766 -37.6666870117 8.33337402344 -40.6679077148 0 -40 0 -37 -8.33337402344 -34 -16.6666259766 -34 -16.6666259766 -28.5 -26.3333740234 -23 -36 -23 -36 -11.5 -42.6666259766 0 -49.3333740234 rrcurveto
            return
          </CharString>
        <CharString name=".notdef">
          -431 136 68 rmoveto
          1229 408 -1229 vlineto
          -476 -68 rmoveto
          544 1365 -544 hlineto
          endchar
        </CharString>
        <CharString name="A">
          97 380 599 rmoveto
          -107 callsubr
          -896 -599 rmoveto
          -106 callsubr
          endchar
        </CharString>
        <CharString name="AE">
          736 495 600 rmoveto
          455 778 56 -778 rlineto
          -1000 -600 rmoveto
          142 0 293 505 573 0 39 -505 737 0 11 111 -643 0 -49 602 635 0 0 109 -643 0 -41 555 719 0 7 111 -894 0 rlineto
          endchar
        </CharString>
        <CharString name="Aacute">
          97 600 1636 rmoveto
          -55 callsubr
          -414 -1424 rmoveto
          -107 callsubr
          -896 -599 rmoveto
          -106 callsubr
          endchar
        </CharString>
        <CharString name="Abreve">
          97 635 1636 rmoveto
          66 0 55.6666870117 22.3333740234 45.3333129883 44.6666259766 45.3333129883 44.6633300781 22.6666870117 61.6666259766 0 78.6700439453 rrcurveto
          -94 hlineto
          0 -57.3264160156 -12.5 -43.3333740234 -25 -29.3402099609 -25 -29.3333740234 -34.5 -14.6666259766 -44 0 -44.6655883789 0 -34.1666870117 14.5 -23.6677246094 29 -23.6666564941 29 -11.8333435059 43.5 0 58 rrcurveto
          -92 hlineto
          0 -79.3299560547 22.1666564941 -61.8333740234 44.3333435059 -44.3366699219 44.3333129883 -44.3333740234 54.5 -22.1666259766 64.6666870117 0 rrcurveto
          -255 -1037 rmoveto
          -107 callsubr
          -896 -599 rmoveto
          -106 callsubr
          endchar
        </CharString>
        <CharString name="Acircumflex">
          97 372 1636 rmoveto
          -48 callsubr
          -160 -1396 rmoveto
          -107 callsubr
          -896 -599 rmoveto
          -106 callsubr
          endchar
        </CharString>
        <CharString name="Adieresis">
          97 758 1636 rmoveto
          -60 callsubr
          -376 -177 rmoveto
          -59 callsubr
          -2 -1214 rmoveto
          -107 callsubr
          -896 -599 rmoveto
          -106 callsubr
          endchar
        </CharString>
        <CharString name="Agrave">
          97 602 1636 rmoveto
          -85 callsubr
          54 -1424 rmoveto
          -107 callsubr
          -896 -599 rmoveto
          -106 callsubr
          endchar
        </CharString>
        <CharString name="Amacron">
          97 329 1636 rmoveto
          -56 callsubr
          51 -1143 rmoveto
          -107 callsubr
          -896 -599 rmoveto
          -106 callsubr
          endchar
        </CharString>
        <CharString name="Aogonek">
          97 1126 -409 rmoveto
          44 0 46.6666259766 9.66665649414 49.3333740234 19.3333435059 rrcurveto
          101 vlineto
          -22 -10 -18.5 -7.16665649414 -15 -4.33334350586 -15 -4.33334350586 -11.6666259766 -2.5 -8.33337402344 -0.666656494141 -8.33337402344 -0.666656494141 -14.5 -0.333343505859 -20.6666259766 0 -21.3333740234 0 -20.5 8.16665649414 -19.6666259766 16.3333435059 -19.6666259766 16.3333435059 -9.83337402344 22.1666564941 0 28 0 32 17 33.5 34 35 rrcurveto
          34 35 51.6666259766 43.8333282471 69.3333740234 52.6666717529 rrcurveto
          -87 hlineto
          -148.665710449 -77.3333435059 -73.6666870117 -81.3333435059 1.33239746094 -85.3333129883 0.666687011719 -55.3336181641 17.3333129883 -43.3333435059 34 -31.3330383301 34.6666259766 -32 45 -16.3333435059 55.3333740234 -0.666656494141 rrcurveto
          -746 1008 rmoveto
          -107 callsubr
          -896 -599 rmoveto
          -106 callsubr
          endchar
        </CharString>
        <CharString name="Aring">
          97 641 1502 rmoveto
          -47 callsubr
          -1 71 rmoveto
          -25.3333129883 0 -22 9.33337402344 -18.6666870117 18.6666259766 -18.6666870117 18.6666259766 -9.33331298828 26 0 33.3333740234 0 34 9.16668701172 26.5 18.3333129883 19 18.3310546875 19 21.8333129883 9.5 25.3356323242 0 25.3307495117 0 21.8333129883 -9.5 18.3359375 -19 18.3333129883 -19 9.5 -26.1666259766 0.666687011719 -33.3333740234 rrcurveto
          0 -34 -9.16668701172 -26.3333740234 -18.3333129883 -18.6666259766 -18.3333129883 -18.6666259766 -21.8333740234 -9.33337402344 -25.3333129883 0 rrcurveto
          -260 -974 rmoveto
          -107 callsubr
          -896 -599 rmoveto
          -106 callsubr
          endchar
        </CharString>
        <CharString name="Atilde">
          97 353 1636 rmoveto
          90 hlineto
          5.33334350586 68.6666259766 20.3333129883 34.3333740234 35.3333435059 0 15.332824707 0 42.8333129883 -17.1666259766 70.3338623047 -34.3333740234 70.3326416016 -34.3333740234 49.8333129883 -17.1666259766 29.3340454102 0 44 0 33.8333129883 14.1666259766 23.6666870117 28.3333740234 23.6666870117 28.3333740234 13.1666259766 47.8332519531 2.66668701172 67.3333740234 rrcurveto
          -91 hlineto
          -1.33331298828 -13.3057861328 -1.33337402344 -10.3333740234 -1.33331298828 -7.36083984375 -1.33331298828 -7.33337402344 -2.66668701172 -9.66662597656 -4 -12 -4 -12 -5.66668701172 -9 -7.33331298828 -6 -7.33331298828 -6 -9 -3 -10.6666870117 0 -16 0 -40.3333129883 16 -64.6666870117 32 -64.6655883789 32 -47.6666870117 16 -30.6677246094 0 rrcurveto
          -48.6666564941 0 -38.1666870117 -13.1666259766 -27.6666564941 -26.3333740234 -27.6666564941 -26.3316650391 -14.8333435059 -48.8333740234 -2 -71.3349609375 rrcurveto
          27 -1037 rmoveto
          -107 callsubr
          -896 -599 rmoveto
          -106 callsubr
          endchar
        </CharString>
        <CharString name="B">
          86 310 825 rmoveto
          559 272 vlineto
          139.333251953 0 101.833312988 -20.1666259766 64.3334350586 -40.3333740234 64.3333129883 -40.3333740234 32.1666870117 -72.1666259766 0 -104 0 -56 -7.83331298828 -46.8333129883 -15.6666870117 -37.6666870117 -15.6666870117 -37.6666870117 -23.3333129883 -29 -31 -20.3333129883 -31 -20.3333129883 -34.5 -14.1666870117 -38 -8 -38 -8 -45.3333129883 -4 -52.6666870117 0 rrcurveto
          -341 -725 rmoveto
          627 285 vlineto
          159.333312988 0 117 -22.5 74.6666870117 -45 74.6666870117 -45 37.3333129883 -80.1666870117 0 -115.333312988 rrcurveto
          -212.666671753 -135 -106.333328247 -270 vhcurveto
          -471 -100 rmoveto
          504 hlineto
          172.666687012 0 128 37 83.3333129883 74 83.3333740234 73.9999542236 41.6666259766 102.666671753 0 131.333374023 0 92.6666564941 -27.6666259766 80.3333435059 -55.3333740234 68 -55.3323974609 68 -79.6666870117 41.6666870117 -104.000915527 15.3333129883 34.6666870117 10.6666870117 31 13.5 27.3333129883 16.3333129883 27.3333129883 16.3333129883 22.1666870117 16.1666870117 17 16 rrcurveto
          17 16 14.5 18.8333129883 12 21.6666870117 12 21.6666870117 8.83337402344 18.1666259766 5.66662597656 14.6666870117 5.6328125 14.6666870117 4.16662597656 18.1666259766 2.70056152344 21.6666870117 2.66662597656 21.6666259766 1.5 14.5 0.333374023438 7.33337402344 0.333374023438 7.33337402344 0.166625976562 11 0 14.6666259766 0 125.333374023 -42.5 93.3332519531 -85 61.3333740234 rrcurveto
          -85 61.3333740234 -134.833312988 30.6666259766 -184.666687012 0 rrcurveto
          -406 hlineto
          endchar
        </CharString>
        <CharString name="C">
          107 813 -23 rmoveto
          -105 callsubr
          endchar
        </CharString>
        <CharString name="Cacute">
          107 642 1636 rmoveto
          -55 callsubr
          -23 -2046 rmoveto
          -105 callsubr
          endchar
        </CharString>
        <CharString name="Ccaron">
          107 585 1636 rmoveto
          -44 callsubr
          399 -2018 rmoveto
          -105 callsubr
          endchar
        </CharString>
        <CharString name="Ccedilla">
          107 542 -430 rmoveto
          -53 callsubr
          164 -14 rmoveto
          -105 callsubr
          endchar
        </CharString>
        <CharString name="Ccircumflex">
          107 414 1636 rmoveto
          -48 callsubr
          231 -2018 rmoveto
          -105 callsubr
          endchar
        </CharString>
        <CharString name="Cdotaccent">
          107 595 1636 rmoveto
          -45 callsubr
          218 -1827 rmoveto
          -105 callsubr
          endchar
        </CharString>
        <CharString name="D">
          319 182 hmoveto
          -104 callsubr
          128 -1381 rmoveto
          -103 callsubr
          endchar
        </CharString>
        <CharString name="Dcaron">
          319 687 1636 rmoveto
          -44 callsubr
          -334 -1995 rmoveto
          -104 callsubr
          128 -1381 rmoveto
          -103 callsubr
          endchar
        </CharString>
        <CharString name="E">
          -37 182 hmoveto
          -102 callsubr
          endchar
        </CharString>
        <CharString name="Eacute">
          -37 568 1636 rmoveto
          -55 callsubr
          -580 -2023 rmoveto
          -102 callsubr
          endchar
        </CharString>
        <CharString name="Ecaron">
          -37 511 1636 rmoveto
          -44 callsubr
          -158 -1995 rmoveto
          -102 callsubr
          endchar
        </CharString>
        <CharString name="Ecircumflex">
          -37 340 1636 rmoveto
          -48 callsubr
          -326 -1995 rmoveto
          -102 callsubr
          endchar
        </CharString>
        <CharString name="Edieresis">
          -37 724 1636 rmoveto
          -60 callsubr
          -376 -177 rmoveto
          -59 callsubr
          -166 -1813 rmoveto
          -102 callsubr
          endchar
        </CharString>
        <CharString name="Edotaccent">
          -37 521 1636 rmoveto
          -45 callsubr
          -339 -1804 rmoveto
          -102 callsubr
          endchar
        </CharString>
        <CharString name="Egrave">
          -37 568 1636 rmoveto
          -85 callsubr
          -110 -2023 rmoveto
          -102 callsubr
          endchar
        </CharString>
        <CharString name="Emacron">
          -37 296 1636 rmoveto
          -56 callsubr
          -114 -1742 rmoveto
          -102 callsubr
          endchar
        </CharString>
        <CharString name="Eogonek">
          -37 601 -409 rmoveto
          44 0 46.6666870117 9.66665649414 49.3333129883 19.3333435059 rrcurveto
          101 vlineto
          -22 -10 -18.5 -7.16665649414 -15 -4.33334350586 -15 -4.33334350586 -11.6666870117 -2.5 -8.33331298828 -0.666656494141 -8.33331298828 -0.666656494141 -14.5 -0.333343505859 -20.6666870117 0 -21.3333129883 0 -20.5 8.16665649414 -19.6666870117 16.3333435059 -19.6666870117 16.3333435059 -9.83331298828 22.1666564941 0 28 0 32 17 33.5 34 35 rrcurveto
          34 35 51.6666870117 43.8333282471 69.3333129883 52.6666717529 rrcurveto
          -87 hlineto
          -148.666687012 -77.3333435059 -73.6666564941 -81.3333435059 1.33334350586 -85.3333129883 0.666656494141 -55.3336181641 17.3333435059 -43.3333435059 34 -31.3330383301 34.6666259766 -32 45 -16.3333435059 55.3333740234 -0.666656494141 rrcurveto
          -419 409 rmoveto
          -102 callsubr
          endchar
        </CharString>
        <CharString name="Eth">
          319 182 hmoveto
          434 hlineto
          241.333312988 0 187.666687012 63 134 126 134 125.999969482 67 184.666656494 0 243.333374023 0 128.666687012 -19 112.5 -38 96.3333129883 -38 96.3333740234 -54.3333740234 77.6666259766 -70.6666259766 59 -70.6666259766 59 -83.1666870117 43.8333740234 -95.6666870117 28.6666259766 -95.6666870117 28.6666259766 -108.5 14.3333740234 -121.333312988 0 rrcurveto
          -403 -655 -142 -96 142 hlineto
          128 -630 rmoveto
          630 242 96 -242 549 263 vlineto
          104.666687012 0 92.3333129883 -11.8333740234 80 -23.6666259766 80 -23.6666259766 69.3333129883 -37 58.6666870117 -50.3333740234 58.6666259766 -50.3327636719 44.5 -66.8333740234 30.3333740234 -83.3338623047 30.3333740234 -83.3333129883 15.1666259766 -99 0 -114.666687012 0 -209.333312988 -54.1666259766 -157.500030518 -108.333374023 -105.666656494 -108.333312988 -105.666656494 -157.5 -52.8333435059 -206.666687012 0 rrcurveto
          endchar
        </CharString>
        <CharString name="F">
          -154 182 hmoveto
          129 686 635 103 -635 588 665 hlineto
          6 111 -800 0 rlineto
          endchar
        </CharString>
        <CharString name="G">
          290 821 -23 rmoveto
          -101 callsubr
          endchar
        </CharString>
        <CharString name="Gbreve">
          290 721 1636 rmoveto
          66 0 55.6666870117 22.3333740234 45.3333129883 44.6666259766 45.3333129883 44.6633300781 22.6666870117 61.6666259766 0 78.6700439453 rrcurveto
          -94 hlineto
          0 -57.3264160156 -12.5 -43.3333740234 -25 -29.3402099609 -25 -29.3333740234 -34.5 -14.6666259766 -44 0 -44.6654052734 0 -34.1666870117 14.5 -23.6679077148 29 -23.6666870117 29 -11.8333129883 43.5 0 58 rrcurveto
          -92 hlineto
          -0.000946044921875 -79.3299560547 22.1666564941 -61.8333740234 44.3342895508 -44.3366699219 44.3333129883 -44.3333740234 54.5 -22.1666259766 64.6666870117 0 rrcurveto
          100 -1659 rmoveto
          -101 callsubr
          endchar
        </CharString>
        <CharString name="Gcircumflex">
          290 458 1636 rmoveto
          -48 callsubr
          195 -2018 rmoveto
          -101 callsubr
          endchar
        </CharString>
        <CharString name="Gcommaaccent">
          290 610 -631 rmoveto
          -42 callsubr
          124 122 rmoveto
          -101 callsubr
          endchar
        </CharString>
        <CharString name="Gdotaccent">
          290 640 1636 rmoveto
          -45 callsubr
          181 -1827 rmoveto
          -101 callsubr
          endchar
        </CharString>
        <CharString name="H">
          295 182 hmoveto
          -100 callsubr
          endchar
        </CharString>
        <CharString name="Hbar">
          271 290 845 rmoveto
          280 872 -280 vlineto
          -1007 -845 rmoveto
          135 721 872 -721 135 1125 92 87 -92 309 -135 -309 -872 309 -135 hlineto
          -309 -93 -87 93 vlineto
          endchar
        </CharString>
        <CharString name="Hcircumflex">
          295 472 1636 rmoveto
          -48 callsubr
          -458 -1995 rmoveto
          -100 callsubr
          endchar
        </CharString>
        <CharString name="I">
          -665 193 hmoveto
          -99 callsubr
          endchar
        </CharString>
        <CharString name="IJ">
          -153 515 -138 rmoveto
          12 hlineto
          39.3333129883 0 35.1666870117 2 31 4 31 4 27.1666870117 4.83334350586 23.3333129883 5.66665649414 23.3333129883 5.66677856445 20.5 9.66665649414 17.6666870117 13.6665649414 17.6666870117 13.6666564941 14.8333129883 12 12 10.3333435059 12 10.3333282471 9.83331298828 16.8333435059 7.66668701172 23.3333282471 7.66668701172 23.3333282471 6 19.3333435059 4.33331298828 15.3333282471 rrcurveto
          4.33331298828 15.3333435059 3.16668701172 24.1666564941 2 33 2 33 1.16668701172 26.8333282471 0.333312988281 20.6666717529 0.333312988281 20.6666717529 0.166687011719 31.3333282471 0 42 rrcurveto
          1211 -133 -1298 vlineto
          -45.5 vlineto
          0 -10.3333282471 -0.666687011719 -14.1666717529 -1.33331298828 -18 -1.33331298828 -18 -1.66668701172 -13.6666564941 -2 -9.33334350586 -2 -9.33329772949 -3.33331298828 -11.8333282471 -4.66668701172 -14.3333740234 -4.66668701172 -14.3333282471 -5.5 -10.8333435059 -6.33331298828 -7.33332824707 -6.33331298828 -7.33332824707 -8 -8.33334350586 -9.66668701172 -9.33332824707 -9.66149902344 -9.33332824707 -11.1666870117 -6.83334350586 -12.6718139648 -4.33332824707 rrcurveto
          -12.6666870117 -4.33332824707 -15 -3.83334350586 -17.3333129883 -3.33332824707 -17.3333129883 -3.33332824707 -19.3333740234 -1.66667175293 -21.3333129883 0 rrcurveto
          -60 -3 rlineto
          -301 46 rmoveto
          -99 callsubr
          endchar
        </CharString>
        <CharString name="Iacute">
          -665 220 1636 rmoveto
          -55 callsubr
          -221 -2023 rmoveto
          -99 callsubr
          endchar
        </CharString>
        <CharString name="Ibreve">
          -665 255 1636 rmoveto
          66 0 55.6666564941 22.3333740234 45.3333435059 44.6666259766 45.3333435059 44.6633300781 22.6666564941 61.6666259766 0 78.6700439453 rrcurveto
          -94 hlineto
          0 -57.3264160156 -12.5 -43.3333740234 -25 -29.3402099609 -25 -29.3333740234 -34.5 -14.6666259766 -44 0 -44.6665649414 0 -34.1666717529 14.5 -23.6667633057 29 -23.6665496826 29 -11.8333282471 43.5 -0.0001220703125 58 rrcurveto
          -92 hlineto
          0 -79.3299560547 22.1666717529 -61.8333740234 44.3333282471 -44.3366699219 44.3332977295 -44.3333740234 54.5 -22.1666259766 64.6667022705 0 rrcurveto
          -62 -1636 rmoveto
          -99 callsubr
          endchar
        </CharString>
        <CharString name="Icircumflex">
          -665 -8 1636 rmoveto
          -48 callsubr
          33 -1995 rmoveto
          -99 callsubr
          endchar
        </CharString>
        <CharString name="Idieresis">
          -665 376 1636 rmoveto
          -60 callsubr
          -376 -177 rmoveto
          -59 callsubr
          193 -1813 rmoveto
          -99 callsubr
          endchar
        </CharString>
        <CharString name="Idotaccent">
          -665 173 1636 rmoveto
          -45 callsubr
          20 -1804 rmoveto
          -99 callsubr
          endchar
        </CharString>
        <CharString name="Igrave">
          -665 220 1636 rmoveto
          -85 callsubr
          249 -2023 rmoveto
          -99 callsubr
          endchar
        </CharString>
        <CharString name="Imacron">
          -665 -52 1636 rmoveto
          -56 callsubr
          245 -1742 rmoveto
          -99 callsubr
          endchar
        </CharString>
        <CharString name="Iogonek">
          -665 195 -409 rmoveto
          44 0 46.6666564941 9.66665649414 49.3333435059 19.3333435059 rrcurveto
          101 vlineto
          -22 -10 -18.5 -7.16665649414 -15 -4.33334350586 -15 -4.33334350586 -11.6666717529 -2.5 -8.33332824707 -0.666656494141 -8.33332824707 -0.666656494141 -14.5 -0.333343505859 -20.6666717529 0 -21.3333282471 0 -20.5 8.16665649414 -19.6666717529 16.3333435059 -19.6666564941 16.3333435059 -9.83334350586 22.1666564941 0 28 0 32 17 33.5 34 35 rrcurveto
          34 35 51.6666564941 43.8333282471 69.3333435059 52.6666717529 rrcurveto
          -87 hlineto
          -148.666671753 -77.3333435059 -73.6666564941 -81.3333435059 1.33332824707 -85.3333129883 0.66667175293 -55.3336181641 17.3333282471 -43.3333435059 34 -31.3330383301 34.6666717529 -32 45 -16.3333435059 55.3333282471 -0.666656494141 rrcurveto
          -2 409 rmoveto
          -99 callsubr
          endchar
        </CharString>
        <CharString name="Itilde">
          -665 -28 1636 rmoveto
          90 hlineto
          5.33334350586 68.6666259766 20.3333282471 34.3333740234 35.3333282471 0 15.3333282471 0 42.8333282471 -17.1666259766 70.3333435059 -34.3333740234 70.3333435059 -34.3333740234 49.8333129883 -17.1666259766 29.3333435059 0 44 0 33.8333435059 14.1666259766 23.6666564941 28.3333740234 23.6666870117 28.3333740234 13.1666259766 47.8332519531 2.66668701172 67.3333740234 rrcurveto
          -91 hlineto
          -1.32647705078 -13.3057861328 -1.33334350586 -10.3333740234 -1.34017944336 -7.36083984375 -1.33334350586 -7.33337402344 -2.66665649414 -9.66662597656 -4 -12 -4 -12 -5.66665649414 -9 -7.33334350586 -6 -7.33334350586 -6 -9 -3 -10.6666564941 0 -16 0 -40.3333435059 16 -64.6666564941 32 -64.6666564941 32 -47.6666717529 16 -30.6666717529 0 rrcurveto
          -48.6666717529 0 -38.1666717529 -13.1666259766 -27.6666564941 -26.3333740234 -27.6666717529 -26.3316650391 -14.8333282471 -48.8333740234 -2 -71.3349609375 rrcurveto
          221 -1636 rmoveto
          -99 callsubr
          endchar
        </CharString>
        <CharString name="J">
          -667 1 -138 rmoveto
          -98 callsubr
          endchar
        </CharString>
        <CharString name="Jcircumflex">
          -667 40 1636 rmoveto
          -48 callsubr
          -207 -2133 rmoveto
          -98 callsubr
          endchar
        </CharString>
        <CharString name="K">
          45 182 hmoveto
          -97 callsubr
          endchar
        </CharString>
        <CharString name="Kcommaaccent">
          45 591 -608 rmoveto
          -42 callsubr
          -496 122 rmoveto
          -97 callsubr
          endchar
        </CharString>
        <CharString name="L">
          -181 182 hmoveto
          -96 callsubr
          endchar
        </CharString>
        <CharString name="Lacute">
          -181 544 1636 rmoveto
          -55 callsubr
          -556 -2023 rmoveto
          -96 callsubr
          endchar
        </CharString>
        <CharString name="Lcaron">
          -181 1163 1004 rmoveto
          -43 callsubr
          -1061 -1514 rmoveto
          -96 callsubr
          endchar
        </CharString>
        <CharString name="Lcommaaccent">
          -181 468 -608 rmoveto
          -42 callsubr
          -373 122 rmoveto
          -96 callsubr
          endchar
        </CharString>
        <CharString name="Ldot">
          -181 506 676 rmoveto
          -54 callsubr
          -324 -838 rmoveto
          -96 callsubr
          endchar
        </CharString>
        <CharString name="Lslash">
          -243 156 hmoveto
          799 0 11 124 -675 0 0 548 362 190 0 136 -362 -197 0 717 -135 0 0 -774 -147 -75 0 -124 147 73 rlineto
          endchar
        </CharString>
        <CharString name="M">
          625 182 hmoveto
          127 996 hlineto
          -7 346 39 -120 495 -1137 140 0 489 1134 37 120 -7 -338 0 -1001 127 0 0 1488 -173 0 -536 -1257 -551 1257 -180 0 rlineto
          endchar
        </CharString>
        <CharString name="N">
          320 182 hmoveto
          -95 callsubr
          endchar
        </CharString>
        <CharString name="Nacute">
          320 712 1636 rmoveto
          -55 callsubr
          -724 -2023 rmoveto
          -95 callsubr
          endchar
        </CharString>
        <CharString name="Ncaron">
          320 655 1636 rmoveto
          -44 callsubr
          -302 -1995 rmoveto
          -95 callsubr
          endchar
        </CharString>
        <CharString name="Ncommaaccent">
          320 636 -608 rmoveto
          -42 callsubr
          -541 122 rmoveto
          -95 callsubr
          endchar
        </CharString>
        <CharString name="Ntilde">
          320 464 1636 rmoveto
          90 hlineto
          5.33117675781 68.6666259766 20.3333129883 34.3333740234 35.3355102539 0 15.3320922852 0 42.8333129883 -17.1666259766 70.3345947266 -34.3333740234 70.3329467773 -34.3333740234 49.8333129883 -17.1666259766 29.3337402344 0 44 0 33.8333129883 14.1666259766 23.6666870117 28.3333740234 23.6666870117 28.3333740234 13.1666870117 47.8332519531 2.66662597656 67.3333740234 rrcurveto
          -91 hlineto
          -1.33331298828 -13.3057861328 -1.33337402344 -10.3333740234 -1.33331298828 -7.36083984375 -1.33331298828 -7.33337402344 -2.66668701172 -9.66662597656 -4 -12 -4 -12 -5.66668701172 -9 -7.33331298828 -6 -7.33331298828 -6 -9 -3 -10.6666870117 0 -16 0 -40.3333129883 16 -64.6666870117 32 -64.666015625 32 -47.6666870117 16 -30.6672973633 0 rrcurveto
          -48.6655883789 0 -38.1666870117 -13.1666259766 -27.6677246094 -26.3333740234 -27.6666564941 -26.3316650391 -14.8333435059 -48.8333740234 -2 -71.3349609375 rrcurveto
          -282 -1636 rmoveto
          -95 callsubr
          endchar
        </CharString>
        <CharString name="O">
          448 815 -23 rmoveto
          -94 callsubr
          105 vmoveto
          -93 callsubr
          endchar
        </CharString>
        <CharString name="OE">
          770 819 82 rmoveto
          -84.666015625 0 -75.1666870117 12.3333435059 -65.6672973633 24.6666564941 -65.6666870117 24.6666717529 -53.6666564941 33.1666564941 -41.6666564941 41.6666717529 -41.6666564941 41.6665344238 -34.1666870117 50.6666564941 -26.6666564941 59.666809082 -26.6666564941 59.6666564941 -18.6666870117 62.3333435059 -10.6666564941 65 -10.6666564941 65 -5.33334350586 71.1666870117 0 77.3333129883 0 204 49.1666564941 157 98.3333435059 110 rrcurveto
          98.3333435059 110 133.833343506 55 169.333312988 0 130.666687012 0 110.666687012 -29.6666259766 90.6666259766 -59.3333740234 rrcurveto
          -1143 vlineto
          -15.3162841797 -10 -10.3333740234 -6.66667175293 -5.35034179688 -3.33332824707 -5.32495117188 -3.33332824707 -14.3333740234 -7.5 -23.3416748047 -11.6666717529 -23.3333740234 -11.6666564941 -21.5 -8.5 -19.6666259766 -5.33334350586 -19.6666870117 -5.33334350586 -26.3333129883 -5.5 -33 -5.66665649414 -33 -5.66665649414 -34.1666870117 -2.83334350586 -35.3333129883 0 rrcurveto
          -2 -105 rmoveto
          53.3324584961 0 63.8333129883 10 74.3342285156 20 74.3333740234 20 43.5 17.6666564941 12.6666259766 15.3333435059 rrcurveto
          -60 682 vlineto
          14 107 -568 0 0 606 491 0 0 109 -491 0 0 560 530 0 16 106 -674 0 0 -53 rlineto
          -34 23.3333740234 -47.1666259766 19 -60.3333740234 14.6666259766 -60.3333129883 14.6666259766 -66.1666870117 7.33337402344 -72 0 -97.3333129883 0 -90.6666870117 -17.3333740234 -84 -34.6666259766 -84 -34.6666259766 -72 -48.5 -60 -62.3333740234 -60 -62.3321533203 -47.1666717529 -76.8333740234 -34.3333282471 -91.3344726562 -34.3333282471 -91.3333129883 -17.1666717529 -100.333374023 0 -109.333312988 rrcurveto
          0 -123.333312988 14 -110.833374023 28 -98.3333129883 28 -98.3332519531 42.1666717529 -84.8333435059 56.3333282471 -71.333404541 56.3333435059 -71.3333435059 73 -54.6666564941 89.6666564941 -38 89.6666870117 -38 103.833312988 -19 118 0 rrcurveto
          endchar
        </CharString>
        <CharString name="Oacute">
          448 776 1636 rmoveto
          -55 callsubr
          -155 -2046 rmoveto
          -94 callsubr
          105 vmoveto
          -93 callsubr
          endchar
        </CharString>
        <CharString name="Obreve">
          448 811 1636 rmoveto
          66 0 55.6666870117 22.3333740234 45.3333129883 44.6666259766 45.3333129883 44.6633300781 22.6666870117 61.6666259766 0 78.6700439453 rrcurveto
          -94 hlineto
          0 -57.3264160156 -12.5 -43.3333740234 -25 -29.3402099609 -25 -29.3333740234 -34.5 -14.6666259766 -44 0 -44.665222168 0 -34.1666870117 14.5 -23.6680908203 29 -23.6666870117 29 -11.8333129883 43.5 0 58 rrcurveto
          -92 hlineto
          0 -79.3299560547 22.1666870117 -61.8333740234 44.3333129883 -44.3366699219 44.3333129883 -44.3333740234 54.5 -22.1666259766 64.6666870117 0 rrcurveto
          4 -1659 rmoveto
          -94 callsubr
          105 vmoveto
          -93 callsubr
          endchar
        </CharString>
        <CharString name="Ocircumflex">
          448 548 1636 rmoveto
          -48 callsubr
          99 -2018 rmoveto
          -94 callsubr
          105 vmoveto
          -93 callsubr
          endchar
        </CharString>
        <CharString name="Odieresis">
          448 933 1636 rmoveto
          -60 callsubr
          -376 -177 rmoveto
          -59 callsubr
          258 -1836 rmoveto
          -94 callsubr
          105 vmoveto
          -93 callsubr
          endchar
        </CharString>
        <CharString name="Ograve">
          448 777 1636 rmoveto
          -85 callsubr
          314 -2046 rmoveto
          -94 callsubr
          105 vmoveto
          -93 callsubr
          endchar
        </CharString>
        <CharString name="Ohungarumlaut">
          448 868 1636 rmoveto
          -39 callsubr
          -379 -318 rmoveto
          -38 callsubr
          -32 -1977 rmoveto
          -94 callsubr
          105 vmoveto
          -93 callsubr
          endchar
        </CharString>
        <CharString name="Omacron">
          448 504 1636 rmoveto
          -56 callsubr
          311 -1765 rmoveto
          -94 callsubr
          105 vmoveto
          -93 callsubr
          endchar
        </CharString>
        <CharString name="Oslash">
          448 815 82 rmoveto
          -71.3333129883 0 -65.3333740234 9.66665649414 -59.3333129883 19.3333435059 rrcurveto
          499 1221 rlineto
          166 -104 83 -195.666625977 0 -287.333374023 0 -134.666687012 -19.5 -116.166656494 -39 -97.6666564941 -39 -97.6666564941 -61.3333740234 -76.8333435059 -83.6666259766 -56 -83.6666259766 -56 -103.166687012 -28 -122.666687012 0 rrcurveto
          -285 68 rmoveto
          -90 50.6666717529 -67.8333435059 76.4999847412 -45.6666564941 102.333343506 -45.6666564941 102.333343506 -22.8333435059 121.833343506 0 141.333312988 0 211.333312988 47.6666564941 163.666687012 95.3333435059 116 95.3333435059 116 138.333343506 58 181.333312988 0 77.3333129883 0 71 -11.3333740234 64.6666870117 -22.6666259766 rrcurveto
          -549 -1605 rmoveto
          98 239 rlineto
          70.6666870117 -22 79 -11 87.3333129883 0 111.332885742 0 100 19.3333282471 88.6671142578 38.6666717529 88.6666259766 38.6666717529 72.8333740234 53.6666717529 57 68.6666564941 57 68.6666564941 43.5 80.8333435059 30 93 30 93 15 101.5 0 110 0 162.666687012 -30 141.333312988 -60 120 rrcurveto
          -60 120 -86 90 -112 60 rrcurveto
          96 236 -94 33 -93 -229 rlineto
          -78 26.6666259766 -84.6666870117 13.3333740234 -91.3333129883 0 -148 0 -126.833312988 -32.3333740234 -105.666687012 -64.6666259766 -105.666656494 -64.6666259766 -79.3333435059 -90 -53 -115.333374023 -53 -115.333374023 -26.5 -135.333312988 0 -155.333312988 0 -166 31.3333282471 -143.833343506 62.6666717529 -121.666656494 62.666595459 -121.666656494 91.6666564941 -89.5000152588 120.666748047 -57.3333282471 rrcurveto
          -96 -236 rlineto
          endchar
        </CharString>
        <CharString name="Otilde">
          448 528 1636 rmoveto
          90 hlineto
          5.33093261719 68.6666259766 20.3333129883 34.3333740234 35.3357543945 0 15.3319702148 0 42.8333129883 -17.1666259766 70.3347167969 -34.3333740234 70.3331298828 -34.3333740234 49.8333129883 -17.1666259766 29.3335571289 0 43.9961547852 0 33.8333129883 14.1666259766 23.6705322266 28.3333740234 23.6656494141 28.3333740234 13.1666259766 47.8332519531 2.66772460938 67.3333740234 rrcurveto
          -91 hlineto
          -1.33331298828 -13.3057861328 -1.33337402344 -10.3333740234 -1.33331298828 -7.36083984375 -1.33331298828 -7.33337402344 -2.66668701172 -9.66662597656 -4 -12 -4 -12 -5.66668701172 -9 -7.33331298828 -6 -7.33331298828 -6 -9 -3 -10.6666870117 0 -16 0 -40.3333129883 16 -64.6666870117 32 -64.6659545898 32 -47.6666870117 16 -30.6673583984 0 rrcurveto
          -48.6654663086 0 -38.1666870117 -13.1666259766 -27.6678466797 -26.3333740234 -27.6666870117 -26.3316650391 -14.8333129883 -48.8333740234 -2 -71.3349609375 rrcurveto
          287 -1659 rmoveto
          -94 callsubr
          105 vmoveto
          -93 callsubr
          endchar
        </CharString>
        <CharString name="P">
          -12 556 779 rmoveto
          -104.666656494 0 -81.6666870117 4 -58.6666564941 8 rrcurveto
          585 331 vlineto
          94 0 76.6666870117 -21.3333740234 59.3333129883 -42.6666259766 59.3333129883 -42.6666259766 29.6666870117 -65 0 -87.3333740234 rrcurveto
          -6 vlineto
          0 -38.6666259766 -0.833312988281 -30 -1.66668701172 -21.3333740234 -1.66668701172 -21.3333129883 -7.83331298828 -28.3333740234 -14 -35.3333129883 -14 -35.3333129883 -20.3333129883 -27.3333740234 -26.6666870117 -19.3333129883 -26.6666870117 -19.3333129883 -40.3333129883 -17.3333740234 -54 -15.3333129883 -54 -15.3333129883 -65.6666870117 -7.66668701172 -77.3333129883 0 rrcurveto
          -374 -779 rmoveto
          129 681 hlineto
          84 -8.66668701172 77.3333435059 -4.33331298828 70.6666564941 0 66 0 59.3333129883 4 52.6666870117 8 52.6666870117 8 45.1666259766 11 37.6666870117 14 37.6666870117 14 32.6666259766 18 27.6666870117 22 27.6666870117 22 22.3333129883 23 17 24 17 24 13.5 28 10 32 rrcurveto
          10 32 6.83337402344 31.1666870117 3.66662597656 30.3333129883 3.66662597656 30.3333740234 1.83337402344 34.1666259766 0 38 0 65.3333740234 -11.6666259766 57.1666259766 -23.3333740234 49 -23.3333740234 49 -32.8333129883 38.8333740234 -42.3333129883 28.6666259766 -42.3333129883 28.6556396484 -47.5 21.1666259766 -52.6666870117 13.677734375 -52.6666870117 13.6666259766 -58.3333129883 6.83337402344 -64 0 rrcurveto
          -455 hlineto
          endchar
        </CharString>
        <CharString name="Q">
          433 807 91 rmoveto
          -180 -3.0517578125e-05 -135.833343506 57.8333435059 -91.6666564941 115.666687012 -91.6666564941 115.666656494 -45.8333435059 160.833343506 0 206 0 212.666687012 46.3333435059 161.999938965 92.6666564941 111.333374023 92.6666564941 111.333374023 135.666656494 55.6666259766 178.666687012 0 177.999938965 0 134.333312988 -55.6666259766 90.6667480469 -111.333374023 90.6666259766 -111.332885742 45.3333740234 -162 0 -212.667114258 rrcurveto
          0 -206.666564941 -45 -161 -90 -115.333435059 -90 -115.333312988 -135 -57.6666564941 -180 -3.0517578125e-05 rrcurveto
          446 -561 rmoveto
          98 84 rlineto
          -35.3333740234 35.3333435059 -42.6666259766 54 -50 72.6666564941 -50 72.6666412354 -35.1666259766 53 -20.3333740234 33.3333587646 -20.3333740234 33.3333282471 -16.1666259766 27.3333435059 -12 21.3333282471 142 54 106.333374023 91 70.6666259766 128 70.6666259766 127.999786377 35.3333740234 151.666656494 0 175.333557129 0 236 -59.3333740234 187.166625977 -118.666625977 138.333374023 rrcurveto
          -118.666625977 138.333374023 -169 69.1666259766 -219.333374023 0 -224 0 -171.166656494 -68.5 -118.333343506 -137 -118.333312988 -137 -59.1666564941 -187.5 -3.0517578125e-05 -238 -0.0001220703125 -114 14.1666717529 -103.5 28.3334503174 -93 28.3333282471 -93 42 -80.8333435059 55.6666717529 -68.6666564941 55.6666564941 -68.6666564941 72 -53.1666717529 88.3333435059 -37.6666717529 rrcurveto
          88.3333129883 -37.6666717529 101.5 -18.8333282471 114.666687012 0 47.3333129883 0 46.6666870117 3.66667175293 46 7.33332824707 16 -35.3333435059 21.5 -39.5 27 -43.6666564941 27 -43.6666717529 26.8333740234 -40.8333282471 26.6666259766 -38 26.6666259766 -38 25.5 -35.3333435059 24.3333740234 -32.6666564941 24.3333740234 -32.6666564941 20 -26.3333435059 15.6666259766 -20 rrcurveto
          15.6475830078 -20 8.16662597656 -10.6666564941 0.685791015625 -1.33334350586 rrcurveto
          endchar
        </CharString>
        <CharString name="R">
          154 687 828 rmoveto
          -92 callsubr
          -505 -828 rmoveto
          -91 callsubr
          endchar
        </CharString>
        <CharString name="Racute">
          154 670 1636 rmoveto
          -55 callsubr
          -177 -1195 rmoveto
          -92 callsubr
          -505 -828 rmoveto
          -91 callsubr
          endchar
        </CharString>
        <CharString name="Rcaron">
          154 613 1636 rmoveto
          -44 callsubr
          245 -1167 rmoveto
          -92 callsubr
          -505 -828 rmoveto
          -91 callsubr
          endchar
        </CharString>
        <CharString name="Rcommaaccent">
          154 594 -608 rmoveto
          -42 callsubr
          6 950 rmoveto
          -92 callsubr
          -505 -828 rmoveto
          -91 callsubr
          endchar
        </CharString>
        <CharString name="S">
          68 658 -23 rmoveto
          -90 callsubr
          endchar
        </CharString>
        <CharString name="Sacute">
          68 590 1636 rmoveto
          -55 callsubr
          -126 -2046 rmoveto
          -90 callsubr
          endchar
        </CharString>
        <CharString name="Scaron">
          68 533 1636 rmoveto
          -44 callsubr
          296 -2018 rmoveto
          -90 callsubr
          endchar
        </CharString>
        <CharString name="Scedilla">
          68 492 -430 rmoveto
          -53 callsubr
          59 -14 rmoveto
          -90 callsubr
          endchar
        </CharString>
        <CharString name="Scommaaccent">
          68 515 -631 rmoveto
          -42 callsubr
          56 122 rmoveto
          -90 callsubr
          endchar
        </CharString>
        <CharString name="T">
          -97 476 hmoveto
          -89 callsubr
          endchar
        </CharString>
        <CharString name="Tcaron">
          -97 447 1636 rmoveto
          -44 callsubr
          200 -1995 rmoveto
          -89 callsubr
          endchar
        </CharString>
        <CharString name="Thorn">
          96 310 458 rmoveto
          627 385 vlineto
          98.6666870117 0 78.1666259766 -11.6666259766 57.6666870117 -23.3333740234 57.6666870117 -23.3314208984 40.3333129883 -33.5 23 -43.6685791016 23 -43.6658325195 11.5 -58.1666870117 0 -72.6674804688 0 -36.6666870117 -3.16662597656 -33.3333129883 -6.33337402344 -30 -6.33337402344 -30 -11 -28.8333129883 -15.6666259766 -27.6666870117 -15.6666259766 -27.6645507812 -20.5000610352 -23.1666870117 -25.3333129883 -18.668762207 rrcurveto
          -25.3333129883 -18.6666564941 -32.6666870117 -14.8333435059 -40 -11 -40 -11 -46.3333129883 -5.5 -52.6666870117 0 rrcurveto
          -562 -458 rmoveto
          128 356 428 hlineto
          72.6666870117 0 64.3333129883 7 56 14 56 14 45.6666259766 19 35.3333740234 24 35.3333740234 24 29 29.6666564941 22.6666259766 35.3333435059 22.6666259766 35.3330688477 15.8333740234 37.3333129883 9 39.3336181641 9 39.33203125 4.5 43.3333129883 0 47.3346557617 0 156.666687012 -42.6666259766 110.166687012 -85.3333740234 63.6666259766 rrcurveto
          -85.3333129883 63.6666259766 -136.333374023 31.8333740234 -187.333312988 0 rrcurveto
          -369 297 -128 hlineto
          endchar
        </CharString>
        <CharString name="U">
          229 699 -23 rmoveto
          -88 callsubr
          endchar
        </CharString>
        <CharString name="Uacute">
          229 666 1636 rmoveto
          -55 callsubr
          -161 -2046 rmoveto
          -88 callsubr
          endchar
        </CharString>
        <CharString name="Ubreve">
          229 701 1636 rmoveto
          66 0 55.6666870117 22.3333740234 45.3333129883 44.6666259766 45.3333129883 44.6633300781 22.6666870117 61.6666259766 0 78.6700439453 rrcurveto
          -94 hlineto
          0 -57.3264160156 -12.5 -43.3333740234 -25 -29.3402099609 -25 -29.3333740234 -34.5 -14.6666259766 -44 0 -44.6665039062 0 -34.1666870117 14.5 -23.666809082 29 -23.6666870117 29 -11.8333129883 43.5 0 58 rrcurveto
          -92 hlineto
          0 -79.3299560547 22.1666564941 -61.8333740234 44.3333435059 -44.3366699219 44.3333129883 -44.3333740234 54.5 -22.1666259766 64.6666870117 0 rrcurveto
          -2 -1659 rmoveto
          -88 callsubr
          endchar
        </CharString>
        <CharString name="Ucircumflex">
          229 438 1636 rmoveto
          -48 callsubr
          93 -2018 rmoveto
          -88 callsubr
          endchar
        </CharString>
        <CharString name="Udieresis">
          229 824 1636 rmoveto
          -60 callsubr
          -376 -177 rmoveto
          -59 callsubr
          251 -1836 rmoveto
          -88 callsubr
          endchar
        </CharString>
        <CharString name="Ugrave">
          229 668 1636 rmoveto
          -85 callsubr
          307 -2046 rmoveto
          -88 callsubr
          endchar
        </CharString>
        <CharString name="Uhungarumlaut">
          229 759 1636 rmoveto
          -39 callsubr
          -379 -318 rmoveto
          -38 callsubr
          -39 -1977 rmoveto
          -88 callsubr
          endchar
        </CharString>
        <CharString name="Umacron">
          229 395 1636 rmoveto
          -56 callsubr
          304 -1765 rmoveto
          -88 callsubr
          endchar
        </CharString>
        <CharString name="Uogonek">
          229 641 -432 rmoveto
          44 0 46.6666870117 9.66665649414 49.3333129883 19.3333435059 rrcurveto
          101 vlineto
          -22 -10 -18.5 -7.16665649414 -15 -4.33334350586 -15 -4.33334350586 -11.6666870117 -2.5 -8.33331298828 -0.666656494141 -8.33331298828 -0.666656494141 -14.5 -0.333343505859 -20.6666870117 0 -21.3333129883 0 -20.5 8.16665649414 -19.6666870117 16.3333435059 -19.6666870117 16.3333435059 -9.83331298828 22.1666564941 0 28 0 32 17 33.5 34 35 rrcurveto
          34 35 51.6666870117 43.8333282471 69.3333129883 52.6666717529 rrcurveto
          -87 hlineto
          -148.666687012 -77.3333435059 -73.6666564941 -81.3333282471 1.33334350586 -85.3333282471 0.666656494141 -55.3336486816 17.3333435059 -43.3333435059 34 -31.3330078125 34.6666870117 -32 45 -16.3333435059 55.3333129883 -0.666656494141 rrcurveto
          58 409 rmoveto
          -88 callsubr
          endchar
        </CharString>
        <CharString name="Uring">
          229 707 1636 rmoveto
          -47 callsubr
          -1 71 rmoveto
          -25.3333129883 0 -22 9.33337402344 -18.6666870117 18.6666259766 -18.6666870117 18.6666259766 -9.33331298828 26 0 33.3333740234 0 34 9.16668701172 26.5 18.3333129883 19 18.3308105469 19 21.8333129883 9.5 25.3358764648 0 25.3305053711 0 21.8333129883 -9.5 18.3361816406 -19 18.3333129883 -19 9.5 -26.1666259766 0.666687011719 -33.3333740234 rrcurveto
          0 -34 -9.16668701172 -26.3333740234 -18.3333129883 -18.6666259766 -18.3333129883 -18.6666259766 -21.8333740234 -9.33337402344 -25.3333129883 0 rrcurveto
          -7 -1730 rmoveto
          -88 callsubr
          endchar
        </CharString>
        <CharString name="Utilde">
          229 419 1636 rmoveto
          90 hlineto
          5.33135986328 68.6666259766 20.3333129883 34.3333740234 35.3353271484 0 15.3327636719 0 42.8333129883 -17.1666259766 70.3339233398 -34.3333740234 70.3325805664 -34.3333740234 49.8333129883 -17.1666259766 29.3341064453 0 44 0 33.8333129883 14.1666259766 23.6666870117 28.3333740234 23.6666870117 28.3333740234 13.1666259766 47.8332519531 2.66668701172 67.3333740234 rrcurveto
          -91 hlineto
          -1.33331298828 -13.3057861328 -1.33337402344 -10.3333740234 -1.33331298828 -7.36083984375 -1.33331298828 -7.33337402344 -2.66668701172 -9.66662597656 -4 -12 -4 -12 -5.66668701172 -9 -7.33331298828 -6 -7.33331298828 -6 -9 -3 -10.6666870117 0 -16 0 -40.3333129883 16 -64.6666870117 32 -64.6665039062 32 -47.6666870117 16 -30.666809082 0 rrcurveto
          -48.6666870117 0 -38.1666564941 -13.1666259766 -27.6666564941 -26.3333740234 -27.6666564941 -26.3316650391 -14.8333435059 -48.8333740234 -2 -71.3349609375 rrcurveto
          280 -1659 rmoveto
          -88 callsubr
          endchar
        </CharString>
        <CharString name="V">
          27 531 hmoveto
          137 0 543 1488 -144 0 rlineto
          -44 -136.666625977 -55.6666870117 -154.333374023 -67.3333129883 -172 -67.3333129883 -172 -58 -163.333312988 -48.6666870117 -154.666687012 -20 -62 -20.5 -61.8333435059 -21 -61.6666564941 -21 -61.6666564941 -15 -44.8333435059 -9 -28 -9 -28 -6.83331298828 -26 -4.66668701172 -24 -12.6666870117 50.6666717529 -12.3333129883 44 -12 37.3333282471 rrcurveto
          -12 37.3333435059 -14.1666870117 41.8333129883 -16.3333129883 46.3333435059 -16.3328552246 46.3333435059 -14.8333435059 44.8333129883 -13.3338012695 43.3333435059 rrcurveto
          -338 959 -142 0 rlineto
          endchar
        </CharString>
        <CharString name="W">
          816 464 hmoveto
          142 0 400 1321 383 -1321 143 0 461 1488 -140 0 -395 -1345 -371 1305 -168 0 -380 -1306 -396 1346 -141 0 rlineto
          endchar
        </CharString>
        <CharString name="X">
          17 18 hmoveto
          138 0 444 706 432 -706 146 0 -492 794 472 694 -137 0 -418 -637 -401 637 -153 0 472 -702 rlineto
          endchar
        </CharString>
        <CharString name="Y">
          -13 501 hmoveto
          -87 callsubr
          endchar
        </CharString>
        <CharString name="Yacute">
          -13 546 1636 rmoveto
          -55 callsubr
          -239 -2023 rmoveto
          -87 callsubr
          endchar
        </CharString>
        <CharString name="Ydieresis">
          -13 702 1636 rmoveto
          -60 callsubr
          -376 -177 rmoveto
          -59 callsubr
          175 -1813 rmoveto
          -87 callsubr
          endchar
        </CharString>
        <CharString name="Z">
          -6 97 hmoveto
          -86 callsubr
          endchar
        </CharString>
        <CharString name="Zacute">
          -6 560 1636 rmoveto
          -55 callsubr
          -657 -2023 rmoveto
          -86 callsubr
          endchar
        </CharString>
        <CharString name="Zcaron">
          -6 503 1636 rmoveto
          -44 callsubr
          -235 -1995 rmoveto
          -86 callsubr
          endchar
        </CharString>
        <CharString name="Zdotaccent">
          -6 515 1636 rmoveto
          -45 callsubr
          -418 -1804 rmoveto
          -86 callsubr
          endchar
        </CharString>
        <CharString name="a">
          -102 444 75 rmoveto
          -84 callsubr
          -4 -99 rmoveto
          -83 callsubr
          endchar
        </CharString>
        <CharString name="aacute">
          -102 475 1238 rmoveto
          -55 callsubr
          -225 -1550 rmoveto
          -84 callsubr
          -4 -99 rmoveto
          -83 callsubr
          endchar
        </CharString>
        <CharString name="abreve">
          -102 510 1238 rmoveto
          -46 callsubr
          -66 -1163 rmoveto
          -84 callsubr
          -4 -99 rmoveto
          -83 callsubr
          endchar
        </CharString>
        <CharString name="acircumflex">
          -102 247 1238 rmoveto
          -48 callsubr
          29 -1522 rmoveto
          -84 callsubr
          -4 -99 rmoveto
          -83 callsubr
          endchar
        </CharString>
        <CharString name="acute">
          -531 126 1287 rmoveto
          -55 callsubr
          endchar
        </CharString>
        <CharString name="adieresis">
          -102 632 1238 rmoveto
          -60 callsubr
          -376 -177 rmoveto
          -59 callsubr
          188 -1340 rmoveto
          -84 callsubr
          -4 -99 rmoveto
          -83 callsubr
          endchar
        </CharString>
        <CharString name="ae">
          471 868 607 rmoveto
          2 40 4.66668701172 38.3333129883 7.33331298828 36.6666870117 7.33331298828 36.6666870117 12 36.3333129883 16.6666870117 36 16.6666870117 36 20.3333129883 31 24 26 24 26 30.6666259766 21 37.3333740234 16 37.3333740234 16 41.6666259766 8 46 0 72.6666259766 0 56.3333740234 -26.5 40 -53 rrcurveto
          40 -53 20 -72.8333129883 0 -92.6666870117 0 -31.3333129883 -8.16662597656 -22.1666870117 -16.3333740234 -13 -16.328125 -13 -35.8333740234 -8.5 -55.3385009766 -4 -13.3333740234 -1.33331298828 -141.666625977 -4.66668701172 -270 -8 rrcurveto
          -422 -532 rmoveto
          -66 0 -53.6666564941 16.3333282471 -41.3333435059 32.6666717529 -41.3333282471 32.6666717529 -20.6666717529 52.6666717529 0 72.6666564941 0 30 3.16667175293 25.5 6.33332824707 21 6.33332824707 21 13.5 21 20.6666717529 21 20.6663818359 21 28.6666564941 16.8333435059 36.6669616699 12.6666564941 36.6666564941 12.6666564941 49.5 10.3333435059 62.3333435059 8 rrcurveto
          62.3327636719 8 74.8333129883 4 87.3339233398 0 4 -70 8.5 -61 13 -52 13 -52 21.5 -55.6666717529 30 -59.3333282471 -150.666687012 -60 -125.333312988 -30 -100 0 rrcurveto
          -10 -99 rmoveto
          66.6666259766 0 73.5 11.1666717529 80.3333740234 22.3333282471 80.3333129883 22.3333282471 74.5 28.5 68.6666870117 34.6666717529 77.3323974609 -79.3333435059 101 -39.6666717529 124.667602539 1.52587890625e-05 157.333374023 0 124.333251953 33 91.3333740234 66 rrcurveto
          -21 100 rlineto
          -62.6666259766 -34 -56 -25.1666564941 -49.3333740234 -16.3333435059 -49.3333740234 -16.3333435059 -58.6666259766 -8.16665649414 -68 0 -106.666625977 0 -79.8333740234 39 -53 78 -53 78 -28.8333129883 107 -4.66668701172 136 rrcurveto
          4 hlineto
          36.6666870117 0 141.333312988 5.66668701172 246 11.3333129883 92 0.666687011719 65.1666259766 15.1666259766 38.3333740234 29.6666870117 38.3333740234 29.6666870117 19.1666259766 44.1666259766 0 58.6666870117 0 35.3319091797 -3.16662597656 35.3333129883 -6.33337402344 35.334777832 -6.33337402344 35.3333129883 -11.5 36.1666870117 -16.6666259766 37 -16.6666259766 37 -21 32.6666870117 -25.3333740234 28.3333129883 rrcurveto
          -25.3280029297 28.3333740234 -33.3333740234 23.1666259766 -41.3386230469 18 -41.3333740234 18 -46.6666259766 9 -52 0 -49.3311767578 0 -46.3333740234 -6.83337402344 -43.3354492188 -13.6666259766 -43.3333129883 -13.6666259766 -42 -24.3333740234 -40.6666870117 -35 -40.6666870117 -35 -32.3333129883 -44.8333129883 -24 -54.6666870117 -3.33331298828 38.6666870117 -12.3333740234 34.6666259766 -21.3333129883 30.6666870117 rrcurveto
          -21.3333129883 30.6666870117 -26.5 23.9999389648 -31.6666870117 17.3333740234 -31.6666870117 17.3333740234 -32.3333129883 13 -33 8.66662597656 -33 8.66662597656 -32.1666870117 4.33337402344 -31.3333129883 0 -66 0 -70.5 -10.1666259766 -75 -20.3333740234 -75 -20.3333740234 -56.5 -22.5 -38 -24.6666259766 rrcurveto
          43 -106 rlineto
          105.333343506 64 120.333343506 32 135.333312988 0 rrcurveto
          126 63 -68.6666870117 -137.333312988 hvcurveto
          -196 -53 vlineto
          -46.6654663086 -0.666687011719 -41.6666870117 -1.5 -36.6678466797 -2.33331298828 -36.6661987305 -2.33331298828 -39.3333435059 -4.16668701172 -42.0004577637 -6 -42 -6 -36.8333435059 -7.66668701172 -31.6666564941 -9.33331298828 -31.6666564941 -9.33331298828 -31 -12.6666870117 -30.3333435059 -16 -30.3333282471 -16 -25 -18.6666564941 -19.6666717529 -21.3333435059 -19.6666717529 -21.3324890137 -15.8333282471 -26.3333435059 -12 -31.3341674805 rrcurveto
          -12 -31.3333435059 -6 -35 0 -38.6666564941 0 -58 9.83334350586 -50.3333282471 19.6666564941 -42.6666717529 19.6666717529 -42.6666564941 26.6666564941 -32.5 33.6666717529 -22.3333435059 33.6666717529 -22.3333282471 35.6666717529 -16.3333435059 37.6666564941 -10.3333282471 37.6663208008 -10.3333282471 40.1666564941 -5.16667175293 42.6670227051 0 rrcurveto
          endchar
        </CharString>
        <CharString name="agrave">
          -102 476 1238 rmoveto
          -85 callsubr
          244 -1550 rmoveto
          -84 callsubr
          -4 -99 rmoveto
          -83 callsubr
          endchar
        </CharString>
        <CharString name="amacron">
          -102 204 1238 rmoveto
          -56 callsubr
          240 -1269 rmoveto
          -84 callsubr
          -4 -99 rmoveto
          -83 callsubr
          endchar
        </CharString>
        <CharString name="ampersand">
          317 601 891 rmoveto
          -48 43.3333129883 -43.3333435059 52.1666870117 -38.6666564941 61 -38.6666564941 61 -19.3333435059 55.5 0 50 0 61.3333740234 21.6666564941 48.6666259766 43.3333435059 36 43.3333129883 36 70.6666870117 18 98 0 64.6666870117 0 54.3333129883 -17.1666259766 44 -34.3333740234 44 -34.3333740234 22 -48.5 0 -62.6666259766 rrcurveto
          0 -18 -2 -17.3333740234 -4 -16.6666259766 -4 -16.6666259766 -4.83331298828 -15.1667480469 -5.66668701172 -13.6666259766 -5.66668701172 -13.6666259766 -8.5 -13.8333740234 -11.3333129883 -14 -11.3333129883 -14 -10.5 -12.1666259766 -9.66668701172 -10.3333740234 -9.66668701172 -10.3333740234 -13.3333129883 -11.3333129883 -17 -12.3333129883 -17 -12.3333129883 -14.5 -10.1666870117 -12 -8 rrcurveto
          -12 -8 -16.6666870117 -10 -21.3333129883 -12 -21.3333129883 -12 -17.1666870117 -9.33331298828 -13 -6.66668701172 -13 -6.66668701172 -18.5 -9.33331298828 -24 -12 rrcurveto
          25 -817 rmoveto
          -49.3333129883 0 -46 5.83334350586 -42.6666870117 11.6666564941 -42.6666564941 11.6666564941 -38.5 17.5 -34.3333435059 23.3333435059 -34.3333435059 23.3333282471 -27 31.5 -19.6666564941 39.6666717529 -19.6666564941 39.6666564941 -9.83334350586 45.8333435059 0 52 -6.103515625e-05 154.666687012 100.666656494 132.333312988 201.333404541 110 rrcurveto
          525 -554 rlineto
          -50 -44 -67.6666870117 -35.1666717529 -85.3333129883 -26.3333282471 -85.3333129883 -26.3333435059 -86.6666870117 -13.1666564941 -88 0 rrcurveto
          12 -96 rmoveto
          109.332580566 0 96.8333129883 14.8333282471 84.3341064453 29.6666717529 84.3332519531 29.6666564941 77.5 41.5 70.6667480469 53.3333435059 rrcurveto
          154 -153 75 68 -155 154 rlineto
          52.6666259766 66 40.3333740234 66 28 66 rrcurveto
          -72 57 rlineto
          -30.6666259766 -72 -38.6667480469 -61 -46.6666259766 -50 rrcurveto
          -509 533 rlineto
          57.3333129883 26.6666870117 49.5 26.1666259766 41.6666870117 25.6666870117 41.6666870117 25.6666870117 38.1666259766 28.5 34.6666870117 31.3333129883 34.6666870117 31.3333129883 26.1666259766 34.1666870117 17.6666870117 37 17.6666870117 37 8.83331298828 39.1666259766 0 41.3333740234 0 96.6654052734 -32.8333129883 75.6666259766 -65.6666870117 54.66796875 -65.6666870117 54.6666259766 -83.5 27.3333740234 -101.333312988 0 rrcurveto
          -119.333312988 0 -92.5000305176 -28 -65.6666564941 -56 -65.6666564941 -56 -32.8333435059 -72.3333740234 0 -88.6666259766 0 -22.6666259766 1.66665649414 -21.6667480469 3.33334350586 -20.6666259766 3.33334350586 -20.6666259766 6.33331298828 -20.8333740234 9.33334350586 -21 9.33334350586 -21 8.5 -18.3333740234 7.66665649414 -15.6666259766 7.66528320312 -15.6628417969 12.6666564941 -19.6666870117 17.6680603027 -23.6704711914 rrcurveto
          17.6666564941 -23.6666870117 14.5 -19 11.3333435059 -14.3333129883 11.3333435059 -14.3333129883 18 -21.8333740234 24.6666564941 -29.3333129883 -56 -29.3333129883 -48.1666564941 -29.6666870117 -40.3333435059 -30 -40.3330688477 -30 -35.8333435059 -33.8333129883 -31.3335876465 -37.6666870117 -31.3333282471 -37.6666870117 -23.5 -42 -15.6666717529 -46.3333129883 -15.6666717529 -46.3328857422 -7.83332824707 -50.8333435059 0 -55.333770752 rrcurveto
          0 -57.3333435059 8.83332824707 -52.1666564941 17.6666717529 -47 17.6666717529 -47 27.8333282471 -42.1666717529 38 -37.3333282471 38 -37.3333282471 51.8333435059 -29.1666717529 65.6666564941 -21 65.6666564941 -21 77.1666564941 -10.5 88.6666870117 0 rrcurveto
          endchar
        </CharString>
        <CharString name="aogonek">
          -102 799 -417 rmoveto
          44 0 46.6666870117 9.66665649414 49.3333129883 19.3333435059 rrcurveto
          101 vlineto
          -22 -10 -18.5 -7.16665649414 -15 -4.33334350586 -15 -4.33334350586 -11.6666870117 -2.5 -8.33331298828 -0.666656494141 -8.33331298828 -0.666656494141 -14.5 -0.333343505859 -20.6666870117 0 -21.3333129883 0 -20.5 8.16665649414 -19.6666870117 16.3333435059 -19.6666870117 16.3333435059 -9.83331298828 22.1666564941 0 28 0 32 17 33.5 34 35 rrcurveto
          34 35 51.6666870117 43.8333282471 69.3333129883 52.6666717529 rrcurveto
          -87 hlineto
          -148.666015625 -77.3333435059 -73.6666870117 -81.3333435059 1.33270263672 -85.3333129883 0.666687011719 -55.333404541 17.3333129883 -43.3333435059 34 -31.3332519531 34.6666870117 -32 45 -16.3333435059 55.3333129883 -0.666656494141 rrcurveto
          -355 492 rmoveto
          -84 callsubr
          -4 -99 rmoveto
          -83 callsubr
          endchar
        </CharString>
        <CharString name="approxequal">
          136 137 758 rmoveto
          109 38 rlineto
          12.6666564941 64 20.8333435059 47.8333129883 29 31.6666870117 29 31.6666870117 39.5 15.8333129883 50 0 46 0 62 -27.6666870117 78 -55.3333129883 110 -77.3333129883 93.3333129883 -38.6666870117 76.6666870117 0 84.6666870117 0 62.1666870117 25.6666870117 39.6666259766 51.3333129883 39.6623535156 51.3328857422 26.1666259766 79.3333129883 12.6710205078 107.33380127 rrcurveto
          -106 -30 rlineto
          -22 -134.666687012 -53.3333129883 -67.3333129883 -84.6666870117 0 -26.6666870117 0 -28.3333129883 7.16668701172 -30 14.3333129883 -30 14.3333129883 -40 24.5 -50 34.6666870117 -56 37.9961547852 -47 27.8333129883 -38 17.6705322266 -38 17.6666259766 -39.3333435059 8.83337402344 -40.6666564941 0 -80 0 -65.5 -27.6666259766 -51 -55.3333740234 rrcurveto
          -51 -55.3333129883 -31.5 -78.3333740234 -12 -101.333312988 rrcurveto
          3 -391 rmoveto
          106 31 rlineto
          15.3333435059 65.3333435059 22.1666564941 48.9999694824 29 32.6666870117 29 32.6666870117 39.5 16.3333129883 50 0 44.6666564941 0 61.6666564941 -28 78.6666870117 -56 114.666687012 -77.3333435059 93.6666259766 -38.6666564941 72.6666870117 0 86 0 62.1666259766 25.6666564941 38.3333740234 51.3333435059 38.3333740234 51.3333129883 25.8332519531 80 13.3333740234 108.666687012 rrcurveto
          -105 -27 rlineto
          -23.3314208984 -135.333312988 -54 -67.6666870117 -84.6685791016 0 -11.3333129883 0 -12 1.83334350586 -12.6666870117 3.66665649414 -12.6666870117 3.66290283203 -14.5 6.16665649414 -16.3333129883 8.67044067383 -16.3333129883 8.66668701172 -13.1666870117 7.16662597656 -10 5.66668701172 -10 5.66668701172 -15.8333129883 10 -21.6666870117 14.3333129883 -21.6666870117 14.3333129883 -14.5 9.5 -7.33331298828 4.66668701172 rrcurveto
          -34.6666870117 22 -27.5 16.6666870117 -20.3333129883 11.3333129883 -20.3333129883 11.3283691406 -26.5 11.3333129883 -32.6666870117 11.3383178711 -32.6666564941 11.3333129883 -31 5.66668701172 -29.3333435059 0 -80 0 -65 -27.5 -50 -55 -50 -55 -31.3333282471 -78.8333435059 -12.6666717529 -102.666656494 rrcurveto
          endchar
        </CharString>
        <CharString name="aring">
          -102 515 1238 rmoveto
          -47 callsubr
          -1 71 rmoveto
          -25.3333435059 0 -22 9.33337402344 -18.6666564941 18.6666259766 -18.6666564941 18.6666259766 -9.33334350586 26 0 33.3333740234 0 34 9.16665649414 26.5 18.3333435059 19 18.3333435059 19 21.8333129883 9.5 25.3333435059 0 25.331237793 0 21.8333129883 -9.5 18.3354492188 -19 18.3333129883 -19 9.5 -26.1666259766 0.666687011719 -33.3333740234 rrcurveto
          0 -34 -9.16668701172 -26.3333740234 -18.3333129883 -18.6666259766 -18.3333129883 -18.6666259766 -21.8333740234 -9.33337402344 -25.3333129883 0 rrcurveto
          -70 -1234 rmoveto
          -84 callsubr
          -4 -99 rmoveto
          -83 callsubr
          endchar
        </CharString>
        <CharString name="asciicircum">
          -21 84 558 rmoveto
          116 0 365 798 393 -798 113 0 -460 930 -90 0 rlineto
          endchar
        </CharString>
        <CharString name="asciitilde">
          57 156 524 rmoveto
          24.6666717529 48.6666870117 32.3333282471 40.1666259766 40 31.6666870117 40 31.6666870117 41.3333435059 15.8333129883 42.6666564941 0 22 0 26.1666564941 -4.83331298828 30.3333435059 -9.66668701172 30.3333435059 -9.66162109375 25.6666564941 -9.66668701172 21 -9.67169189453 21 -9.66668701172 35.8333129883 -16.8333129883 50.6666870117 -24 91.3333129883 -40.6666870117 73.6666870117 -20.3333129883 56 0 rrcurveto
          60.6666870117 0 49.6666259766 16.8333129883 38.6666870117 33.6666870117 38.6666259766 33.6666870117 32 52.1666259766 25.3333740234 70.6666870117 rrcurveto
          -49 70 rlineto
          -16 -44 -26.8333129883 -39.1666870117 -37.6666870117 -34.3333129883 -37.6666870117 -34.3333129883 -38.5 -17.1666870117 -39.3333129883 0 -11.3333129883 0 -12.3333740234 1.5 -13.3333129883 3 -13.3333129883 3 -15.6666870117 5 -18 7 -18 7 -15.3333129883 6.16668701172 -12.6666870117 5.33331298828 -12.6666870117 5.33331298828 -18.8333129883 8.66668701172 -25 12 rrcurveto
          -25 12 -18.8333129883 8.66668701172 -12.6666870117 5.33331298828 -55.3333129883 26 -44.1666870117 17.8333129883 -33 9.66668701172 -33 9.66668701172 -35.5 4.83331298828 -38 0 -61.333190918 0 -53.3333435059 -18.3333129883 -45.3334655762 -36.6666870117 -45.3333282471 -36.6666870117 -34.3333435059 -48.3333129883 -23.3333282471 -60 rrcurveto
          endchar
        </CharString>
        <CharString name="asterisk">
          352 573 rmoveto
          196 388 208 -387 rlineto
          22 16 21.6666870117 13.3333129883 21.3333129883 10.6666870117 21.330078125 10.6666870117 22.3333129883 13.6666259766 23.3366088867 16.6666870117 -42 62.6666870117 -49.8333129883 69.1666259766 -57.6666870117 75.6666870117 -57.6654052734 75.6666870117 -35.1666870117 47.5 -12.6679077148 19.3333129883 rrcurveto
          374 88 -45 147 -364 -163 37 437 -167 0 38 -437 -363 163 -44 -148 369 -87 -250 -350 rlineto
          endchar
        </CharString>
        <CharString name="at">
          688 806 423 rmoveto
          -37.3333129883 0 -28.5 17.3333435059 -19.6666870117 34.6666564941 -19.6666870117 34.6666259766 -9.83331298828 45 0 55.3333740234 0 38 4.66668701172 39.5 9.33331298828 41 9.33056640625 41 14.3333129883 40.3333129883 19.3361206055 39.6666870117 19.3333129883 39.6666870117 23 35.5 26.6666870117 31.3333129883 26.6666870117 31.3333129883 32.3333129883 25.1666870117 38 19 rrcurveto
          38 19 40.6666870117 9.5 43.3333129883 0 68 0 52.3333740234 -8.66662597656 36.6666259766 -17.3333740234 -30 -104 -29 -95.3333129883 -28 -86.6666870117 -1.3291015625 -4.66668701172 -2.33337402344 -7 -3.33752441406 -9.33331298828 -17.3333740234 -54 -13.6666259766 -39 -10 -24 -10 -24 -16.3333740234 -29.8333129883 -22.6666259766 -35.6666870117 rrcurveto
          -22.6666870117 -35.6666564941 -27.8333129883 -25.1666870117 -33 -14.6666564941 -33 -14.6666564941 -39.8333129883 -7.33334350586 -46.6666870117 0 rrcurveto
          76 -505 rmoveto
          80 0 80.1666259766 8 80.3333740234 16 80.3333740234 16 69.5 21 58.6666259766 26 rrcurveto
          -26 97 rlineto
          -137.333374023 -56.6666717529 -140 -28.3333282471 -142.666625977 0 -197.333312988 0 -155 58.1666564941 -112.666687012 116.333343506 -112.666656494 116.333343506 -56.3333435059 159.499969482 0 202.666687012 0 98.6666870117 13 90.1666259766 26 81.6666870117 26 81.6666870117 35.6666564941 69.3333129883 45.3333435059 57 45.3333435059 57 53.8333129883 48.1666259766 62.3333435059 39.3333740234 rrcurveto
          62.3333129883 39.3333740234 67 28.8332519531 71.6666870117 18.3333740234 71.6666870117 18.3333740234 75.8333129883 9.16662597656 80 0 122 0 108.166625977 -21.6666259766 94.3333740234 -43.3333740234 94.3333740234 -43.3309326172 74.3332519531 -64.3333740234 54.3333740234 -85.3356933594 54.3333740234 -85.3333740234 27.1666259766 -100.333312988 0 -115.333312988 0 -65.3333129883 -9.83337402344 -60.5 -19.6666259766 -55.6666870117 rrcurveto
          -19.6666259766 -55.6655273438 -25.6667480469 -45.6666870117 -31.6666259766 -35.6677856445 -31.6666259766 -35.6666564941 -34.8333740234 -27.8333435059 -38 -20 -38 -20 -37.6666259766 -10 -37.3333740234 0 -32 0 -24.6666259766 17.6666564941 -17.3333740234 35.3333435059 -17.3333740234 35.3333435059 -8.66662597656 43.3333435059 0 51.3333129883 0 26.6666870117 4.83337402344 34.1666259766 9.66662597656 41.6666870117 rrcurveto
          9.66662597656 41.6666870117 10.5 37.8333129883 11.3333740234 34 11.3333740234 34 16 47.3333129883 20.6666259766 60.6666870117 20.6666259766 60.6666870117 15.3333740234 45.9999389648 10 31.3333740234 -40.6666259766 13.3333740234 -48.1667480469 11.3332519531 -55.6666259766 9.33337402344 -55.6666259766 9.33337402344 -48.5 4.66662597656 -41.3333740234 0 -57.3333129883 0 -54.1666870117 -11.3333740234 -51 -22.6666259766 rrcurveto
          -51 -22.6666259766 -44 -30 -37 -37.3333740234 -37 -37.3333129883 -32 -42.3333740234 -27 -47.3333129883 -27 -47.3333129883 -20.1666870117 -49 -13.3333129883 -50.6666870117 -13.3333129883 -50.6666870117 -6.66668701172 -49 0 -47.3333129883 0 -50.6666870117 7.33331298828 -44.8333435059 14.6666870117 -38.9999694824 14.6666870117 -39 23.8333129883 -31.6666564941 33 -24.3333435059 rrcurveto
          33 -24.3333435059 39.8333129883 -12.1666564941 46.6666870117 0 72 0 61.5 15.1666564941 51 30.3333435059 51 30.3333435059 38.5 38.8333129883 26 47.3333435059 9.33337402344 -48.6666564941 22.3332519531 -40.1666870117 35.3333740234 -31.6666564941 35.3333740234 -31.6666564941 43.3332519531 -15.8333435059 51.3333740234 0 45.3333740234 0 44.6666259766 7.5 44 15 rrcurveto
          44 15 41.1666259766 22.3333435059 38.3333740234 29.6666564941 38.3333740234 29.666229248 33.8332519531 35.1666564941 29.3333740234 40.6671142578 29.3333740234 40.6666870117 23.1666259766 47.8333129883 17 55 17 55 8.5 58.1666870117 0 61.3333129883 0 136.666687012 -33.1666259766 119.833312988 -66.3333740234 103 -66.3333740234 103 -90.1666259766 78.3333740234 -114 53.6666259766 rrcurveto
          -114 53.6666259766 -129 26.8333740234 -144 0 -123.333312988 0 -114.5 -21.3333740234 -105.666687012 -42.6666259766 -105.666442871 -42.6666259766 -89.5 -58.5 -73.3335571289 -74.3333740234 -73.3333435059 -74.3333740234 -57.5 -88.1666259766 -41.6666564941 -102 -41.6666717529 -102 -20.8333282471 -109.333312988 0 -116.666687012 0 -158.666687012 31.1666717529 -137.166656494 62.3333282471 -115.666656494 rrcurveto
          62.3333435059 -115.666656494 87.5 -87.6666717529 112.666656494 -59.6666717529 112.666687012 -59.6666717529 131.666625977 -29.8333282471 150.666687012 0 rrcurveto
          endchar
        </CharString>
        <CharString name="atilde">
          -102 228 1238 rmoveto
          90 hlineto
          5.33334350586 68.6666259766 20.3333129883 34.3333740234 35.3333435059 0 15.3333435059 0 42.8333129883 -17.1666259766 70.3333435059 -34.3333740234 70.3327636719 -34.3333740234 49.8333129883 -17.1666259766 29.3339233398 0 44 0 33.8333129883 14.1666259766 23.6666870117 28.3333740234 23.6666870117 28.3333740234 13.1666259766 47.8332519531 2.66668701172 67.3333740234 rrcurveto
          -91 hlineto
          -1.33331298828 -13.3118896484 -1.33337402344 -10.3333740234 -1.33331298828 -7.35473632812 -1.33331298828 -7.33337402344 -2.66668701172 -9.66662597656 -4 -12 -4 -12 -5.66668701172 -9 -7.33331298828 -6 -7.33331298828 -6 -9 -3 -10.6666870117 0 -16 0 -40.3333129883 16 -64.6666870117 32 -64.6666564941 32 -47.6666870117 16 -30.6666564941 0 rrcurveto
          -48.6666564941 0 -38.1666870117 -13.1666259766 -27.6666564941 -26.3333740234 -27.6666717529 -26.3282470703 -14.8333282471 -48.8333740234 -2 -71.3383789062 rrcurveto
          216 -1163 rmoveto
          -84 callsubr
          -4 -99 rmoveto
          -83 callsubr
          endchar
        </CharString>
        <CharString name="b">
          8 625 75 rmoveto
          -63.3333129883 0 -54.6666870117 11.1666564941 -46 22.3333435059 -46 22.3333282471 -36.8333435059 32 -27.6666564941 41.6666717529 -27.6666564941 41.6666717529 -20.3333435059 48.3333282471 -13 55 -13 55 -6.5 62.5 0 70 -0.666656494141 152.666687012 30.1666564941 117.833312988 61 83 61 83 88.1666564941 41.5 115.333343506 0 rrcurveto
          50 0 44.5 -9 39 -18 39 -18 31.6666870117 -23.6666870117 24.3333129883 -29.3333129883 24.3299560547 -29.3333129883 20.3333129883 -35.5 16.336730957 -41.6666870117 16.3297729492 -41.665222168 11.3333129883 -42.6666870117 6.3369140625 -43.6680908203 6.33331298828 -43.6666870117 3.16668701172 -46.5 0 -49.3333129883 0 -62 -5.5 -57.5 -11 -53 rrcurveto
          -11 -53 -17.6666870117 -49.3333435059 -24.3333129883 -45.6666564941 -24.3333129883 -45.6666717529 -34.6666870117 -36 -45 -26.3333282471 -45 -26.3333435059 -53.1666870117 -13.1666564941 -61.3333129883 0 rrcurveto
          -6 -99 rmoveto
          101.333312988 0 86.6666870117 25 72 50 72 50 53.1666870117 67.5 34.3333129883 85 34.3333740234 85 17.1666259766 98.5 0 112 0 166.666687012 -41.5 136.166625977 -83 105.666687012 -83 105.666625977 -115.5 52.8333740234 -148 0 -68 0 -65.5 -15.3333740234 -63 -30.6666259766 rrcurveto
          -63 -30.6666259766 -51.8333435059 -46.6666870117 -40.6666564941 -62.6666870117 2 42.6666870117 1 77.6666870117 0 112.666625977 rrcurveto
          0 369 -123 -11 0 -1521 104 0 13 159 rlineto
          88 -122 118.333312988 -61 148.666687012 0 rrcurveto
          endchar
        </CharString>
        <CharString name="backslash">
          -363 652 -11 rmoveto
          122 0 -590 1525 -122 0 rlineto
          endchar
        </CharString>
        <CharString name="bar">
          -362 349 -413 rmoveto
          119 2019 -119 hlineto
          endchar
        </CharString>
        <CharString name="braceleft">
          -470 613 -277 rmoveto
          96 vlineto
          -73.3333129883 0.66667175293 -50.5000305176 19.5 -27.6666564941 38.3333282471 -27.6666564941 38.3333282471 -13.8333435059 68.1666717529 0 98 rrcurveto
          260 vlineto
          0 28.6666564941 -3 28 -6 27.3333435059 -6 27.3333435059 -9.33334350586 27.5 -12.6666564941 27.6666564941 -12.6666564941 27.6666870117 -18 25.1666259766 -23.3333435059 22.6666870117 -23.3330383301 22.6666870117 -27.3333435059 17.6666259766 -31.3336181641 12.6666870117 115.333343506 88 57.6666564941 99 0 110 rrcurveto
          263 vlineto
          0 96 13.8333435059 67.8333740234 27.6666564941 39.6666259766 27.6661987305 39.6556396484 50.5 20.1666259766 73.3338012695 0.677734375 rrcurveto
          96 vlineto
          -100.666442871 0 -78.3333435059 -28.8333740234 -56.000213623 -57.6666259766 -56 -57.6666259766 -28 -78.1667480469 0 -98.6666259766 rrcurveto
          0 -211 0 -34 0 -59 rlineto
          0 -18.6666870117 -0.666656494141 -17.8333129883 -1.33334350586 -17 -1.33334350586 -17 -1.66665649414 -15.8333129883 -2 -14.6666870117 -2 -14.6635742188 -3.33334350586 -13.6666870117 -4.66665649414 -12.6697387695 -4.66665649414 -12.6666870117 -5.83334350586 -11.5 -7 -10.3333129883 -7 -10.3333129883 -8.83332824707 -9.16668701172 -10.6666717529 -8 -10.6664581299 -8 -12.1666717529 -6.83331298828 -13.6668701172 -5.66668701172 rrcurveto
          -13.6666717529 -5.66668701172 -16 -4.33331298828 -18.3333282471 -3 -18.3333282471 -3 -20.8333282471 -1.83331298828 -23.3333435059 -0.666687011719 rrcurveto
          -99 vlineto
          36.6666717529 0 31.3333282471 -6.16668701172 26 -12.3333129883 26 -12.3333129883 20.3333282471 -15.5 14.6666717529 -18.6666870117 14.6666717529 -18.6666564941 11.3333282471 -25 8 -31.3333435059 8 -31.3333435059 5.16665649414 -30 2.33334350586 -28.6666564941 2.33334350586 -28.6666564941 1.16665649414 -35 0 -41.3333435059 rrcurveto
          -160 vlineto
          0 -120.666656494 24.8333435059 -92.0000152588 49.6666564941 -63.3333282471 49.6666564941 -63.3333282471 81.5 -32.0000152588 113.333343506 -0.666656494141 rrcurveto
          endchar
        </CharString>
        <CharString name="braceright">
          -463 99 -277 rmoveto
          102.666610718 0.666656494141 78.8333282471 29 55.0000610352 57.3333435059 55 57.3333282471 27.5 77.3333282471 0 97.3333435059 rrcurveto
          213 vlineto
          0 41.3333435059 1.16665649414 34.8333129883 2.33334350586 28.3333435059 2.33334350586 28.3333435059 5.16665649414 29.8333129883 8 31.3333435059 8 31.3333435059 11.3333435059 25.1666564941 14.6666564941 19 14.6666564941 19 20.5 15.6666870117 26.3333435059 12.3333129883 26.3322753906 12.3333129883 31.8333129883 6.16668701172 37.3344116211 0 rrcurveto
          99 vlineto
          -32 0.666687011719 -28 4.33331298828 -24 8 -24 8 -19.5 12 -15 16 -15 16 -12.1666564941 17 -9.33334350586 18 -9.33166503906 18 -6.83334350586 23.1666870117 -4.33499145508 28.3333129883 -4.3268737793 28.3333129883 -2.83334350586 26 -1.33978271484 23.6666870117 -1.33334350586 23.6666870117 -0.666656494141 29.5 0 35.3333129883 rrcurveto
          159 vlineto
          9.1552734375e-05 248.666625977 -106.333343506 124.333374023 -212.666748047 0 rrcurveto
          -96 vlineto
          72.6666412354 -0.666625976562 50.5 -20.3333740234 28.3333587646 -40 28.3333435059 -40 14.1666564941 -67.6666259766 0 -95.3333740234 rrcurveto
          -263 vlineto
          0 -28 2.83334350586 -28.1666870117 5.66665649414 -28.3333129883 5.66607666016 -28.3333129883 9.16665649414 -27.8333740234 12.6672668457 -27.3333129883 12.6666564941 -27.3333129883 18 -24.5 23.3333435059 -21.6666870117 23.3333435059 -21.6666870117 27 -15.5 30.6666564941 -9.33331298828 -69.3329772949 -63.3333129883 -45.8333435059 -51.6666870117 -22.3336791992 -40 -22.3333435059 -40 -11.1666564941 -49.6666564941 0 -59.3333435059 rrcurveto
          -260 vlineto
          0 -97.3333282471 -14.1666564941 -68 -28.3333435059 -38.6666717529 -28.3333282471 -38.6668243408 -50.5000152588 -19.6666717529 -72.6666564941 -0.66650390625 rrcurveto
          endchar
        </CharString>
        <CharString name="bracketleft">
          -491 147 -264 rmoveto
          448 100 -312 1578 312 100 -448 hlineto
          endchar
        </CharString>
        <CharString name="bracketright">
          -491 93 -264 rmoveto
          448 1778 -448 -100 312 -1578 -312 hlineto
          endchar
        </CharString>
        <CharString name="breve">
          -405 389 1356 rmoveto
          66 0 55.6666564941 22.3333740234 45.3333435059 44.6666259766 45.3333129883 44.6638183594 22.6666870117 61.6666259766 0 78.6695556641 rrcurveto
          -94 hlineto
          0 -57.3275146484 -12.5 -43.3333740234 -25 -29.3391113281 -25 -29.3333740234 -34.5 -14.6666259766 -44 0 -44.6666564941 0 -34.1666870117 14.5 -23.6666564941 29 -23.6666564941 29 -11.8333435059 43.5 0 58 rrcurveto
          -92 hlineto
          0 -79.3304443359 22.1666717529 -61.8333740234 44.3333282471 -44.3361816406 44.3333435059 -44.3333740234 54.5 -22.1666259766 64.6666564941 0 rrcurveto
          endchar
        </CharString>
        <CharString name="brokenbar">
          -404 329 850 rmoveto
          120 699 -120 hlineto
          -1749 vmoveto
          120 702 -120 hlineto
          endchar
        </CharString>
        <CharString name="bullet">
          -371 404 535 rmoveto
          41.3333435059 0 37.6666564941 7.16668701172 34 14.3333129883 34 14.3333129883 27.3333129883 19.1666870117 20.6666870117 24 20.6666870117 24 15.8333129883 26.8333129883 11 29.6666870117 11 29.6666870117 5.5 31 0 32.3333129883 0 32.3317260742 -5.5 30.8333129883 -11 29.3349609375 -11 29.3333129883 -15.8333129883 26.6666870117 -20.6666870117 24 rrcurveto
          -20.6655883789 24 -27.1666870117 19.1666870117 -33.6677246094 14.3333129883 -33.6666564941 14.3333740234 -37.8333435059 7.16662597656 -42 0 -41.3330078125 0 -37.3333435059 -7.33337402344 -33.3336486816 -14.6666259766 -33.3332214355 -14.6657104492 -27.1666717529 -19.6666870117 -21.0001068115 -24.6676025391 -21 -24.6666870117 -16.1666717529 -27.3333129883 -11.3333282471 -30 -11.3333282471 -30 -5.66667175293 -31.3333129883 0 -32.6666870117 rrcurveto
          0 -32 5.33332824707 -30.5 10.6666717529 -29 10.6666717529 -29 15.6666564941 -26.1666870117 20.6666717529 -23.3333129883 20.6666717529 -23.3333129883 27.3333282471 -18.6666870117 34 -14 34 -14 38 -7 42 0 rrcurveto
          endchar
        </CharString>
        <CharString name="c">
          -214 604 -24 rmoveto
          -82 callsubr
          endchar
        </CharString>
        <CharString name="cacute">
          -214 452 1238 rmoveto
          -55 callsubr
          -42 -1649 rmoveto
          -82 callsubr
          endchar
        </CharString>
        <CharString name="caron">
          -367 307 1310 rmoveto
          -44 callsubr
          endchar
        </CharString>
        <CharString name="ccaron">
          -214 395 1238 rmoveto
          -44 callsubr
          380 -1621 rmoveto
          -82 callsubr
          endchar
        </CharString>
        <CharString name="ccedilla">
          -214 353 -431 rmoveto
          -53 callsubr
          144 -14 rmoveto
          -82 callsubr
          endchar
        </CharString>
        <CharString name="ccircumflex">
          -214 224 1238 rmoveto
          -48 callsubr
          212 -1621 rmoveto
          -82 callsubr
          endchar
        </CharString>
        <CharString name="cdotaccent">
          -214 406 1238 rmoveto
          -45 callsubr
          198 -1430 rmoveto
          -82 callsubr
          endchar
        </CharString>
        <CharString name="cedilla">
          -580 138 -410 rmoveto
          -53 callsubr
          endchar
        </CharString>
        <CharString name="cent">
          -194 567 77 rmoveto
          -66 9.99996948242 -58.6666564941 27.1666717529 -51.3333435059 44.3333587646 -51.3333435059 44.3332824707 -39.1666564941 55 -27 65.6667175293 -27 65.6666564941 -13.5 70.5 0 75.3333435059 0 79.3333129883 14.1666717529 75.1666870117 28.3333282471 71 28.3333435059 71 39.8333129883 59 51.3333435059 47 51.3333435059 47 57.3333129883 28.1666870117 63.3333435059 9.33331298828 rrcurveto
          -1184 vmoveto
          77 134 hlineto
          50.6666870117 4 49.5 10.6666717529 48.3333129883 17.3333282471 48.3333129883 17.3333282471 38.5 23 28.6666870117 28.6666717529 rrcurveto
          -38 83 rlineto
          -70 -46 -75.3333129883 -27 -80.6666870117 -8 rrcurveto
          948 vlineto
          86.6666870117 -6 75.3333129883 -24.3333129883 64 -42.6666870117 rrcurveto
          41 83 rlineto
          -26 26.6625976562 -36.8333129883 21.6666259766 -47.6666870117 16.6707763672 -47.6659545898 16.6645507812 -52.1666870117 9.66662597656 -56.6673583984 2.66882324219 rrcurveto
          154 -77 -155 vlineto
          -60 -6 -55.8333435059 -16.5 -51.6666564941 -27 -51.6666564941 -27 -44 -33.3333129883 -36.3333435059 -39.6666870117 -36.3333282471 -39.6666870117 -31.1666717529 -44.5 -26 -49.3333129883 -26 -49.3333129883 -19.1666717529 -50.6666870117 -12.3333282471 -52 -12.3333435059 -52 -6.5 -51.3333129883 -0.666656494141 -50.6666870117 0 -50 6.16665649414 -50.1666564941 12.3333435059 -50.3333435059 rrcurveto
          12.3333435059 -50.333190918 18.9999847412 -48.8333435059 25.6666717529 -47.3334655762 25.6666717529 -47.3333282471 30.8333282471 -42.5 36 -37.6666717529 36 -37.6666564941 44.1666564941 -31.3333282471 52.3333435059 -25.0000152588 52.3333435059 -25 56.5 -15.5 60.6666564941 -6 rrcurveto
          endchar
        </CharString>
        <CharString name="circumflex">
          -367 136 1310 rmoveto
          -48 callsubr
          endchar
        </CharString>
        <CharString name="colon">
          -669 167 927 rmoveto
          179 209 -179 hlineto
          -1173 vmoveto
          179 211 -179 hlineto
          endchar
        </CharString>
        <CharString name="comma">
          -675 130 -275 rmoveto
          72 hlineto
          64 194.000152588 45.6666564941 156.333328247 27.3333435059 118.666519165 rrcurveto
          41 -129 vlineto
          endchar
        </CharString>
        <CharString name="copyright">
          707 924 -116 rmoveto
          -58 callsubr
          3 92 rmoveto
          -57 callsubr
          3 198 rmoveto
          59.3333129883 0 60.6666870117 8.5 62 17 62 17 48.6666259766 19.1666717529 35.3333740234 21.3333282471 rrcurveto
          -36 102 rlineto
          -26 -19.3333435059 -38.8333740234 -18 -51.6666259766 -16.6666564941 -51.6666259766 -16.6666564941 -48.5000610352 -8.33334350586 -45.3333129883 0 -63.3333129883 0 -56.1666870117 11 -49 22 -49 22 -39.5 30.8333435059 -30 39.6666564941 -30 39.6666564941 -22.6666870117 45.8333435059 -15.3333129883 52 -15.3333129883 52 -7.66668701172 57 0 62 rrcurveto
          0 44 4.33331298828 42 8.66668701172 40 8.66668701172 40 14 37.8333129883 19.3333129883 35.6666870117 19.3333129883 35.6666870117 23.5 30.8333129883 27.6666870117 26 27.6666870117 26 33.8333129883 20.5 40 15 40 15 43.6666870117 7.5 47.3333129883 0 53.3333129883 0 54.3333129883 -9.5 55.3333740234 -19 rrcurveto
          55.3333740234 -19 42.3332519531 -23.1666259766 29.3333740234 -27.3333740234 rrcurveto
          24 110 rlineto
          -89.3333740234 63.3333740234 -102.666625977 31.6666259766 -116 0 -99.3333129883 0 -87.3333740234 -22.6666259766 -75.3333129883 -45.3333740234 -75.3333129883 -45.3333740234 -57.8333740234 -62.6666259766 -40.3333129883 -80 -40.3333435059 -80 -20.1666564941 -91.3333129883 0 -102.666687012 0 -100.666687012 20.3333435059 -90.8333129883 40.6666564941 -81 40.6666870117 -81 57.1666259766 -63.6666564941 73.6666870117 -46.3333435059 rrcurveto
          73.6666870117 -46.3333282471 82.5 -23.1666717529 91.3333129883 0 rrcurveto
          endchar
        </CharString>
        <CharString name="currency">
          -33 574 402 rmoveto
          -89.3333435059 0 -76 32.1666564941 -62.6666564941 64.3333435059 -62.6666564941 64.3327636719 -31.3333435059 77.8333129883 0 91.3339233398 -1.52587890625e-05 91.3333129883 31.3333282471 78 62.6666870117 64.6666870117 62.6666564941 64.6666259766 76 32.3333740234 89.3333435059 0 88.6666870117 0 75.8333129883 -32.5 63 -65 63 -65 31.5 -77.8333129883 0 -90.6666870117 rrcurveto
          0 -90.6660766602 -31.5 -77.6666870117 -63 -64.6672363281 -63 -64.6666564941 -75.8333129883 -32.3333435059 -88.6666870117 0 rrcurveto
          453 -168 rmoveto
          60 61 -182 179 rlineto
          56.6666870117 74 28.3333129883 86 0 98 0 88.6666870117 -28.6666870117 85.6666259766 -57.3333129883 82.6666870117 rrcurveto
          184 179 -61 62 -187 -177 rlineto
          -76.6659545898 65.3333740234 -88.6666870117 32.6666259766 -100.667358398 0 -103.333129883 0 -89.3333435059 -32.6666259766 -75.3335266113 -65.3333740234 rrcurveto
          -185 177 -64 -59 186 -182 rlineto
          -57.3333282471 -78 -28.6666717529 -85.6666870117 0 -93.3333129883 0 -94.6666870117 28.6666717529 -86 57.3333282471 -77.3333129883 rrcurveto
          -185 -180 63 -59 185 177 rlineto
          75.3333435059 -65.3333435059 89.3333129883 -32.6666564941 103.333343506 0 99.3333129883 0 88.6666870117 32.6666564941 78 65.3333435059 rrcurveto
          endchar
        </CharString>
        <CharString name="d">
          4 558 75 rmoveto
          -81 callsubr
          3 -98 rmoveto
          -80 callsubr
          endchar
        </CharString>
        <CharString name="dagger">
          -350 362 125 rmoveto
          104 973 290 57 -295 456 -99 -456 -289 -57 289 hlineto
          endchar
        </CharString>
        <CharString name="daggerdbl">
          -350 362 627 rmoveto
          -289 -57 289 -445 104 445 290 57 -290 471 290 57 -295 456 -99 hlineto
          -456 -289 -57 289 vlineto
          endchar
        </CharString>
        <CharString name="dcaron">
          4 1219 1022 rmoveto
          -43 callsubr
          -741 -1457 rmoveto
          -81 callsubr
          3 -98 rmoveto
          -80 callsubr
          endchar
        </CharString>
        <CharString name="dcroat">
          4 558 75 rmoveto
          -81 callsubr
          3 -98 rmoveto
          68 0 66.5 15.8333282471 65 31.6666717529 65 31.6666564941 51.5 46.8333435059 38 62 rrcurveto
          18 -165 103 0 0 1254 102 0 0 81 -102 0 0 197 -120 -11 0 -186 -257 0 0 -81 257 0 0 -286 0 -33 rlineto
          -35.3333129883 62 -51.6666870117 45.6666259766 -68 29.3333740234 -68 29.3333740234 -68 14.6666259766 -68 0 -138 0 -111.166656494 -52.5 -84.3333435059 -105 -84.3333129883 -105 -42.1666564941 -136.5 -3.0517578125e-05 -168 -3.0517578125e-05 -178.666595459 40.8333435059 -140 81.6666870117 -101.333404541 81.6666564941 -101.333343506 113.833343506 -50.6666564941 146 0 rrcurveto
          endchar
        </CharString>
        <CharString name="degree">
          -335 418 932 rmoveto
          40 0 38.5 6.5 37 13 37 13 33.3333129883 18.5 29.6666870117 24 29.6666870117 24 23.8333129883 31.5 18 39 18 39 9 43.1666259766 0 47.3333740234 0 48.6666259766 -8.83331298828 44 -17.6666870117 39.3333740234 -17.6666870117 39.3333740234 -23.5 31.8332519531 -29.3333129883 24.3333740234 rrcurveto
          -29.3333129883 24.3333740234 -32.8333740234 18.5 -36.3333129883 12.6666259766 -36.3333435059 12.6666259766 -38 6.33337402344 -39.6666564941 0 -39.6666564941 0 -38 -6.5 -36.3333435059 -13 -36.3332214355 -13 -33 -18.5 -29.6667785645 -24 -29.6665039062 -24 -23.6666717529 -31.6666259766 -17.6668243408 -39.3333740234 -17.6666564941 -39.3333740234 -8.83334350586 -44 0 -48.6666259766 rrcurveto
          0 -48.6666259766 8.66665649414 -43.6667480469 17.3333435059 -38.6666259766 17.3333282471 -38.6666259766 23.1666717529 -31.3333740234 29 -24 29 -24 32.5 -18.3333129883 36 -12.6666870117 36 -12.6666870117 37.6666564941 -6.33331298828 39.3333435059 0 rrcurveto
          4.5 79 rmoveto
          -35 0 -32.6666564941 7.83331298828 -30.3333435059 15.6666870117 -30.3333435059 15.6666259766 -25.1666564941 25 -20 34.3333740234 -20 34.3333740234 -10 40.5 0 46.6666259766 0 47.3333740234 10 41 20 34.6666259766 20 34.6666259766 25 25.3333740234 30 16 30 16 32.6666564941 8 35.3333435059 0 rrcurveto
          35.3333435059 0 32.8333129883 -8 30.3333435059 -16 30.3322753906 -16 25.3333129883 -25.3333740234 20.3344116211 -34.6666259766 20.3333129883 -34.6666259766 10.1666870117 -41 0 -47.3333740234 0 -46.6666259766 -10.1666870117 -40.5 -20.3333129883 -34.3333740234 -20.3333129883 -34.3333740234 -25.3333740234 -25 -30.3333129883 -15.6666259766 -30.3333435059 -15.6666870117 -32.6666564941 -7.83331298828 -35 0 rrcurveto
          endchar
        </CharString>
        <CharString name="dieresis">
          -410 512 1266 rmoveto
          -60 callsubr
          -376 -177 rmoveto
          -59 callsubr
          endchar
        </CharString>
        <CharString name="divide">
          -80 446 913 rmoveto
          191 202 -191 hlineto
          -386 -561 rmoveto
          957 121 -957 hlineto
          386 -593 rmoveto
          191 202 -191 hlineto
          endchar
        </CharString>
        <CharString name="dollar">
          68 679 720 rmoveto
          60 -12 rlineto
          59.3317871094 -12 48.8333129883 -14.5 38.3348999023 -17 38.3333129883 -17 29.1666870117 -21 20 -25 20 -25 13.6666870117 -26.1666870117 7.33331298828 -27.3333129883 7.33331298828 -27.3333435059 3.66668701172 -33.6666564941 0 -40 0 -106.666656494 -29.8333129883 -82.8333435059 -59.6666870117 -59 -59.6666870117 -59 -85.5 -30.5 -111.333312988 -2 rrcurveto
          -87 774 rmoveto
          -99 20 rlineto
          -87.3333435059 18.6666870117 -66 28.5 -44.6666564941 38.3333129883 -44.6666717529 38.3333129883 -22.3333282471 50.8333129883 0 63.3333740234 -0.000106811523438 94 30.3333282471 70.5 60.6667785645 47 60.6666564941 47 91 26.8333740234 121.333343506 6.66662597656 rrcurveto
          87 -1429 rmoveto
          95.3325805664 2.66667175293 83.3333129883 18.3333282471 71.3341064453 34 71.3333129883 34 56.1666870117 50.1666564941 41 66.3333435059 41 66.3333435059 20.5 78.8333129883 0 91.3333435059 0 62.6666564941 -8.66662597656 54.1666564941 -17.3333740234 45.6666870117 -17.3333740234 45.6666870117 -26.5 38.1666259766 -35.6666259766 30.6666870117 -35.6666870117 30.6666870117 -41 25 -46.3333129883 19.3333129883 rrcurveto
          -46.3333129883 19.3333129883 -56.5 16.6666870117 -66.6666870117 14 rrcurveto
          -82 17 0 569 rlineto
          78 -2.66662597656 74.6666870117 -11 71.3333129883 -19.3333740234 71.3323974609 -19.3333740234 54 -19.6666259766 36.6676025391 -20 rrcurveto
          33 98 rlineto
          -48.6666259766 24.6666259766 -62.0000610352 22.3333740234 -75.3333129883 20 -75.3333129883 20 -77.6666870117 11.3333740234 -80 2.66662597656 rrcurveto
          227 -87 -228 vlineto
          -76 -3.33044433594 -67.6666564941 -9.83337402344 -59.3333435059 -16.3361816406 -59.3330383301 -16.3277587891 -51.8333435059 -23.3333740234 -44.3336181641 -30.3388671875 -44.3333282471 -30.328125 -33.8333435059 -39.3333740234 -23.3333282471 -48.3385009766 -23.3333435059 -48.3333740234 -11.6666564941 -56.1666259766 0 -64 0 -106 33.5 -81.6666870117 67 -57.3333129883 67 -57.3333129883 100.5 -42 134 -26.6666870117 rrcurveto
          93 -19 0 -653 rlineto
          -173.333312988 7.99996948242 -148.333343506 37.3333435059 -123.333343506 66.6666870117 rrcurveto
          -48 -91 rlineto
          48 -28.6666564941 66.5 -27 85 -25.3333435059 85 -25.3333282471 97.8333435059 -15.3333435059 110.666656494 -5.33332824707 rrcurveto
          -191 87 vlineto
          endchar
        </CharString>
        <CharString name="dotaccent">
          -827 106 1331 rmoveto
          153 185 -153 hlineto
          endchar
        </CharString>
        <CharString name="dotlessi">
          -803 138 hmoveto
          -73 callsubr
          endchar
        </CharString>
        <CharString name="e">
          -86 233 633 rmoveto
          -79 callsubr
          -266 -657 rmoveto
          -78 callsubr
          endchar
        </CharString>
        <CharString name="eacute">
          -86 507 1238 rmoveto
          -55 callsubr
          -468 -992 rmoveto
          -79 callsubr
          -266 -657 rmoveto
          -78 callsubr
          endchar
        </CharString>
        <CharString name="ebreve">
          -86 542 1238 rmoveto
          -46 callsubr
          -309 -605 rmoveto
          -79 callsubr
          -266 -657 rmoveto
          -78 callsubr
          endchar
        </CharString>
        <CharString name="ecaron">
          -86 450 1238 rmoveto
          -44 callsubr
          -46 -964 rmoveto
          -79 callsubr
          -266 -657 rmoveto
          -78 callsubr
          endchar
        </CharString>
        <CharString name="ecircumflex">
          -86 279 1238 rmoveto
          -48 callsubr
          -214 -964 rmoveto
          -79 callsubr
          -266 -657 rmoveto
          -78 callsubr
          endchar
        </CharString>
        <CharString name="edieresis">
          -86 664 1238 rmoveto
          -60 callsubr
          -376 -177 rmoveto
          -59 callsubr
          -55 -782 rmoveto
          -79 callsubr
          -266 -657 rmoveto
          -78 callsubr
          endchar
        </CharString>
        <CharString name="edotaccent">
          -86 461 1238 rmoveto
          -45 callsubr
          -228 -773 rmoveto
          -79 callsubr
          -266 -657 rmoveto
          -78 callsubr
          endchar
        </CharString>
        <CharString name="egrave">
          -86 508 1238 rmoveto
          -85 callsubr
          1 -992 rmoveto
          -79 callsubr
          -266 -657 rmoveto
          -78 callsubr
          endchar
        </CharString>
        <CharString name="eight">
          17 601 856 rmoveto
          -210 42 -105 96.6666870117 0 151.333312988 0 82.6643066406 30.8333435059 64.1666259766 61.6666564941 45.6690673828 61.6666564941 45.6666259766 74.1666564941 22.8333740234 86.6666870117 0 86 0 73.3333129883 -22.6666259766 60.6666870117 -45.3333740234 60.6666870117 -45.3309326172 30.3333129883 -64.3333740234 0 -83.3356933594 0 -152.66619873 -103.666687012 -96.6666870117 -207.333312988 -40.6671142578 rrcurveto
          -774 vmoveto
          -98 0 -82 27.1666564941 -66 54.3333435059 -66 54.3333282471 -33 71.8333282471 0 89.3333435059 0 94.6666564941 31.5 78.8333435059 63 63 63 63 83.5 44.8333129883 104 26.6666870117 104 -26 82.6666870117 -44.5 61.3333129883 -63 61.3333129883 -63 30.6666870117 -79.5 0 -96 rrcurveto
          0 -89.3332824707 -32.3333129883 -71.6666717529 -64.6666870117 -54.0000457764 -64.6666870117 -54 -81 -27 -97.3333129883 0 rrcurveto
          -105 vmoveto
          66 0 61.6666870117 9 57.3333129883 18 57.3333129883 18 50.1666870117 25.6666717529 43 33.3333282471 43 33.3333129883 34 42.8333435059 25 52.3333435059 25 52.3333435059 12.5 58.1666564941 0 64 0 98 -29.3333740234 86.8333129883 -58.6666259766 75.6666870117 -58.6666870117 75.6666870117 -80.3333129883 52.8333129883 -102 30 rrcurveto
          93.3333129883 27.3333129883 72.6666870117 42.5 52 57.6666870117 52 57.6666870117 26 71.1666870117 0 84.6666259766 0 114 -40.5 90.1666259766 -81 66.3333740234 -81 66.3333740234 -106.5 33.1666259766 -132 0 -134 0 -108.333343506 -33.3333740234 -82.6666564941 -66.6666259766 -82.6666564941 -66.6666259766 -41.3333435059 -90 0 -113.333374023 rrcurveto
          0 -84.6666259766 27.1666717529 -71.1666870117 54.3333282471 -57.6666870117 54.3333435059 -57.6666870117 77.1666564941 -42.5 100 -27.3333129883 -108.666656494 -30 -84.6666870117 -52.8333129883 -60.6666564941 -75.6666870117 -60.6666717529 -75.6666870117 -30.3333282471 -86.8333435059 0 -97.9999694824 0 -85.3333435059 22 -74 44 -62.6666564941 43.9999847412 -62.6666870117 57.8333282471 -46.5 71.6666870117 -30.3333129883 rrcurveto
          71.6666564941 -30.3333282471 80.1666564941 -15.1666717529 88.6666870117 0 rrcurveto
          endchar
        </CharString>
        <CharString name="emacron">
          -86 236 1238 rmoveto
          -56 callsubr
          -3 -711 rmoveto
          -79 callsubr
          -266 -657 rmoveto
          -78 callsubr
          endchar
        </CharString>
        <CharString name="eogonek">
          -86 482 -433 rmoveto
          44 0 46.6666870117 9.66665649414 49.3333129883 19.3333435059 rrcurveto
          101 vlineto
          -22 -10 -18.5 -7.16665649414 -15 -4.33334350586 -15 -4.33334350586 -11.6666870117 -2.5 -8.33331298828 -0.666656494141 -8.33331298828 -0.666656494141 -14.5000305176 -0.333343505859 -20.6666564941 0 -21.3333435059 0 -20.5 8.16665649414 -19.6666564941 16.3333435059 -19.6666564941 16.3333435059 -9.83334350586 22.1666564941 0 28 0 32 17 33.5 34 35 rrcurveto
          33.9995422363 35 51.6666564941 43.8333282471 69.3338012695 52.6666717529 rrcurveto
          -87 hlineto
          -148.666687012 -77.3333435059 -73.6666564941 -81.3333282471 1.33334350586 -85.3333282471 0.666656494141 -55.3336486816 17.3333435059 -43.3333435059 34 -31.3330078125 34.6666564941 -32 45 -16.3333435059 55.3333435059 -0.666656494141 rrcurveto
          -249 1066 rmoveto
          -79 callsubr
          -266 -657 rmoveto
          -78 callsubr
          endchar
        </CharString>
        <CharString name="equal">
          61 149 829 rmoveto
          942 112 -942 hlineto
          1 -551 rmoveto
          940 110 -940 hlineto
          endchar
        </CharString>
        <CharString name="eth">
          15 598 72 rmoveto
          -60 0 -54 12.1666564941 -48 24.3333435059 -48 24.3332672119 -38.5 32.3333282471 -29 40.333404541 -29 40.3333129883 -22 44.5 -15 48.6666870117 -15 48.6666564941 -7.5 50.3333435059 0 52 0 66.6666870117 13.8333282471 62 27.6666717529 57.3333129883 27.666595459 57.3333129883 41.6666564941 47 55.6667480469 36.6666870117 rrcurveto
          55.6664428711 36.6666870117 64.5 18.3333129883 73.3335571289 0 60 0 54.6666870117 -12.1666870117 49.3333129883 -24.3333129883 49.3333129883 -24.3333129883 40.1666870117 -31.6666870117 31 -39 31 -39 23.8333129883 -42.6666870117 16.6666870117 -46.3333129883 16.6666870117 -46.3333129883 8.33331298828 -46.8333740234 0 -47.3333129883 0 -114 -33.3333129883 -95.1666564941 -66.6666870117 -76.3333435059 rrcurveto
          -66.6666870117 -76.3333435059 -91.6666870117 -38.1666564941 -116.666625977 0 rrcurveto
          -5 -100 rmoveto
          83.3326416016 0 74.3333129883 14 65.3340454102 28 65.3333129883 28 52.6666870117 38.1666564941 40 48.3333435059 39.9999389648 48.3333282471 30.3333129883 55 20.6667480469 61.6666717529 20.6666259766 61.6664733887 10.3333740234 66.1666564941 0 70.6668701172 rrcurveto
          7 vlineto
          0 38 -2.33337402344 36.8333129883 -4.66662597656 35.6666870117 -4.66662597656 35.6666870117 -5.83337402344 32.6666259766 -7 29.6666870117 -7 29.6666870117 -10.1666259766 30.1666259766 -13.3333740234 30.6666870117 -13.3255615234 30.6666870117 -12.6666870117 27.1666259766 -12.0077514648 23.6666870117 -12 23.6666870117 -15.8333129883 25.6666259766 -19.6666870117 27.6666870117 -19.6666870117 27.6666870117 -17.5 23.5 -15.3333129883 19.3333129883 rrcurveto
          -15.3333129883 19.3333740234 -20 23 -24.6666870117 26.6666259766 -24.6635742188 26.6666259766 -20.6666870117 22 -16.6697387695 17.3333740234 -16.6666870117 17.3333740234 -22 22.8332519531 -27.3333129883 28.3333740234 -27.3333129883 28.3333740234 -22 22.8332519531 -16.6666870117 17.3333740234 rrcurveto
          248 109 -29 92 -289 -126 -189 172 -158 0 251 -222 -237 -95 26 -96 282 119 rlineto
          70.6666870117 -66 72.5 -75.1666259766 74.3333129883 -84.3333740234 74.3333129883 -84.3333129883 52.5 -70.1666870117 30.6666870117 -56 rrcurveto
          -51 45 rlineto
          -11.3333129883 10 -17.8333740234 13.1666870117 -24.3333129883 16.3333129883 -24.3333129883 16.3262939453 -22.3333740234 12.3333129883 -20.3333129883 8.34039306641 -20.3333129883 8.33331298828 -25.3333740234 7.5 -30.3333129883 6.66668701172 -30.3333129883 6.66668701172 -31.8333740234 3.33331298828 -33.3333129883 0 -145.333312988 0 -117.166687012 -44.5 -89 -89 -89 -89 -44.5 -116.5 0 -144 rrcurveto
          0 -52.6666564941 6.5 -51 13 -49.3333435059 13 -49.3332214355 20 -46.6666717529 27 -44.0001068115 27 -44 32.5 -38.5 38 -33 38 -33 46.1666564941 -26 54.3333435059 -19 54.3333435059 -19 58.8333435059 -9.5 63.3333129883 0 rrcurveto
          endchar
        </CharString>
        <CharString name="exclam">
          -529 325 -8 rmoveto
          41.3333435059 0 31 11.8333282471 20.6666564941 23.6666717529 20.6666564941 23.6666564941 10.3333435059 27.8333282471 0 32.0000152588 0 31.3332672119 -10.3333435059 27.3333282471 -20.6666564941 23.333404541 -20.6666564941 23.3333282471 -31 11.6666717529 -41.3333435059 0 -40.6666564941 0 -30.6666717529 -11.6666717529 -20.6666717529 -23.3333282471 -20.6666717529 -23.3333282471 -10.3333282471 -27.3333435059 0 -31.3333282471 rrcurveto
          0 -32 10.3333282471 -27.8333435059 20.6666717529 -23.6666564941 20.6666717529 -23.6666717529 30.6666717529 -11.8333282471 40.6666564941 0 rrcurveto
          -33 427 rmoveto
          66 0 52 1006 0 89 -177 0 0 -89 rlineto
          endchar
        </CharString>
        <CharString name="exclamdown">
          -529 325 892 rmoveto
          40.6666564941 0 30.8333435059 11.6666870117 21 23.3333129883 21 23.3314819336 10.5 27.3333129883 0 31.3352050781 0 31.3333740234 -10.5 27.5 -21 23.6666259766 -21 23.6666259766 -30.8333435059 11.8333740234 -40.6666564941 0 -41.3333435059 0 -30.8333282471 -11.8333740234 -20.3333282471 -23.6666259766 -20.3333282471 -23.6666259766 -10.1666717529 -27.5 0 -31.3333740234 rrcurveto
          0 -31.3333129883 10.1666717529 -27.3333740234 20.3333282471 -23.3333129883 20.3333282471 -23.3333129883 30.8333282471 -11.6666870117 41.3333435059 0 rrcurveto
          -90 -1294 rmoveto
          177 90 hlineto
          -61 1006 -66 0 -50 -1006 rlineto
          endchar
        </CharString>
        <CharString name="f">
          -541 216 hmoveto
          124 1005 267 91 -267 35 hlineto
          0 123.333374023 13.8333435059 86.1666259766 27.6666564941 49 27.6666564941 49 51.8333435059 24.5 76 0 22.6666870117 0 43.3333129883 -3.66662597656 64 -7.33337402344 rrcurveto
          9 82 rlineto
          -72 10 -51 5 -30 0 -104 0 -77.1666564941 -32.6666259766 -50.3333435059 -65.3333740234 -50.3333282471 -65.3333740234 -25.1666717529 -104.666625977 0 -144 rrcurveto
          0 -41 -172 -14 -8 -77 180 0 rlineto
          endchar
        </CharString>
        <CharString name="five">
          16 563 -23 rmoveto
          154 0 122.5 46 91 92 91 91.9999847412 45.5 122.666671753 0 153.333343506 0 80.6666870117 -18 74.3333129883 -36 68 -36 68 -53.3333129883 54.8333129883 -70.6666870117 41.6666870117 -70.6666870117 41.6666870117 -81 20.1666259766 -91.3333129883 -1.33331298828 -106.666656494 -2 -95.6666870117 -33 -84.6666564941 -64 rrcurveto
          30 545 639 0 13 111 -761 0 -34 -768 125 -9 rlineto
          54 41.3333129883 48.1666564941 29 42.3333435059 16.6666870117 42.3333129883 16.6666870117 51.5 8.33331298828 60.6666870117 0 83.3326416016 0 69.8333129883 -32.8333129883 56.3340454102 -65.6666870117 56.3333129883 -65.6660766602 28.1666870117 -82.1666870117 0 -98.6672363281 0 -118 -32.6666870117 -95.5 -65.3333129883 -73 -65.3333129883 -73 -87 -36.5 -108.666687012 0 rrcurveto
          -159.333312988 0 -131.666687012 41.6666564941 -104 83.3333435059 rrcurveto
          -45 -96 rlineto
          111.333343506 -89.3333435059 144.666656494 -44.6666564941 178 0 rrcurveto
          endchar
        </CharString>
        <CharString name="florin">
          -236 101 -359 rmoveto
          25.3333435059 0 23.1666564941 2.33334350586 21 4.66665649414 21 4.66665649414 19 7.83334350586 17 11 16.9995269775 11 14.8333282471 11.8333435059 12.6671447754 12.6666564941 12.6655578613 12.6669311523 11.6666564941 17.1666564941 10.6677856445 21.6664123535 10.665435791 21.6666717529 9.16665649414 20.8333282471 7.66790771484 20 7.66665649414 20 7.5 25.6666717529 7.33334350586 31.3333282471 rrcurveto
          7.33334350586 31.3333435059 6.16665649414 28.8333129883 5 26.3333435059 5 26.3333282471 5.83334350586 33.1666717529 6.66665649414 40 rrcurveto
          145 872 211 0 10 90 -203 0 37 241 rlineto
          9.33331298828 61.3333740234 19 49.3332519531 28.6666870117 37.3333740234 28.6666870117 37.3333740234 38 18.6666259766 47.3333129883 0 28.6666870117 0 31.3333129883 -6.66662597656 34 -13.3333740234 rrcurveto
          7 97 rlineto
          -42.6651000977 13.3333740234 -37.6666870117 6.66662597656 -32.6682128906 0 -50 0 -42.8333129883 -9.5 -35.6666870117 -19 -35.6666870117 -19 -28.5 -27.6666259766 -21.3333129883 -36.3333740234 -21.3333129883 -36.3278808594 -16.3333435059 -36.8333740234 -11.3333435059 -37.3387451172 -11.3333435059 -37.3333740234 -9.66665649414 -45 -8 -52.6666259766 rrcurveto
          -28 -185 -181 0 -9 -91 168 0 -38 -233 rlineto
          -25.3330078125 -156 -26.3333435059 -158.5 -27.3336486816 -161 -26.6666564941 -161 -14.3333435059 -85.8333282471 -2 -10.6666717529 -32 -166 -51.3333435059 -83 -70.6666564941 0 -21.9999847412 0 -20.6666717529 4.33332824707 -19.3333435059 8.66667175293 rrcurveto
          -23 -88 rlineto
          27.3333435059 -16 29.9999847412 -8 32.6666717529 0 rrcurveto
          endchar
        </CharString>
        <CharString name="four">
          13 253 512 rmoveto
          545 802 0 -802 rlineto
          -512 vmoveto
          124 402 171 hlineto
          15 110 -186 0 0 1009 -120 0 -686 -983 0 -136 682 0 rlineto
          endchar
        </CharString>
        <CharString name="fraction">
          -64 69 hmoveto
          100 0 864 1597 -99 0 rlineto
          endchar
        </CharString>
        <CharString name="g">
          -6 569 101 rmoveto
          -77 callsubr
          -253 -610 rmoveto
          -76 callsubr
          endchar
        </CharString>
        <CharString name="gbreve">
          -6 560 1238 rmoveto
          66 0 55.6666870117 22.3333740234 45.3333129883 44.6666259766 45.3333129883 44.6640625 22.6666870117 61.6666259766 0 78.6693115234 rrcurveto
          -94 hlineto
          0 -57.3326416016 -12.5 -43.3333740234 -25 -29.333984375 -25 -29.3333740234 -34.5 -14.6666259766 -44 0 -44.6666870117 0 -34.1666564941 14.5 -23.6666564941 29 -23.6666564941 29 -11.8333435059 43.5 0 58 rrcurveto
          -92 hlineto
          0 -79.3306884766 22.1666564941 -61.8333740234 44.3333435059 -44.3359375 44.3333435059 -44.3333740234 54.5 -22.1666259766 64.6666564941 0 rrcurveto
          9 -1137 rmoveto
          -77 callsubr
          -253 -610 rmoveto
          -76 callsubr
          endchar
        </CharString>
        <CharString name="gcircumflex">
          -6 297 1238 rmoveto
          -48 callsubr
          104 -1496 rmoveto
          -77 callsubr
          -253 -610 rmoveto
          -76 callsubr
          endchar
        </CharString>
        <CharString name="gcommaaccent">
          -29 569 101 rmoveto
          -77 callsubr
          -253 -610 rmoveto
          -76 callsubr
          207 1673 rmoveto
          153 0 110 487 -98 0 rlineto
          endchar
        </CharString>
        <CharString name="gdotaccent">
          -6 479 1238 rmoveto
          -45 callsubr
          90 -1305 rmoveto
          -77 callsubr
          -253 -610 rmoveto
          -76 callsubr
          endchar
        </CharString>
        <CharString name="germandbls">
          26 123 hmoveto
          128 1082 hlineto
          0 52.6661376953 5.5 47.6666259766 11 42.6672363281 11 42.6666259766 17.5 38.5 24 34.3333740234 24 34.3333740234 32.8333435059 26.6666259766 41.6666564941 19 41.6666564941 19 49.5 9.5 57.3333435059 0 87.3333129883 0 66.6666870117 -21 46 -42 46 -42 23 -56 0 -70 rrcurveto
          0 -24 -3.5 -22 -7 -20 -7 -20 -8.16668701172 -16.8333740234 -9.33331298828 -13.6666259766 -9.33331298828 -13.6666259766 -14.3333740234 -14.3333740234 -19.3333129883 -15 -19.3333129883 -15 -16.8333740234 -11.8333740234 -14.3333129883 -8.66662597656 -14.3333129883 -8.66668701172 -21.3333740234 -12.5 -28.3333129883 -16.3333129883 -28.3333129883 -16.3333129883 -22.5 -13.5 -16.6666870117 -10.6666870117 rrcurveto
          -42.6666870117 -26.6666870117 -21.3333435059 -33 3.0517578125e-05 -39.3333129883 0 -6.66668701172 1 -6 2 -5.33331298828 2 -5.33331298828 2.33331298828 -4.66668701172 2.66668701172 -4 2.66668701172 -4 4.33331298828 -4.83331298828 6 -5.66668701172 6 -5.66668701172 5.16668701172 -4.33331298828 4.33331298828 -3 4.33331298828 -3 7 -5 9.66668701172 -7 rrcurveto
          9.66668701172 -7 7.83331298828 -5.5 6 -4 16 -11.3333129883 30.3333129883 -19.3333740234 44.6666870117 -27.3333129883 44.6666870117 -27.3333129883 38.8333129883 -25 33 -22.6666870117 33 -22.6644287109 35.1666870117 -26.6666870117 37.3333129883 -30.6688842773 37.3333129883 -30.6666564941 29 -32 20.6666870117 -33.3333435059 20.6666870117 -33.3333435059 10.3333129883 -33 0 -32.6666564941 rrcurveto
          0 -69.3332214355 -19.5 -57.1666717529 -39 -45.0001068115 -39 -45 -53.5 -22.5 -68 0 rrcurveto
          -379 0 -12 -108 367 0 rlineto
          244.666625977 122.333374023 117 234 hvcurveto
          0 42 -8.16662597656 39.6666564941 -16.3333740234 37.3333435059 -16.3333740234 37.3333435059 -20.6666259766 31.9999694824 -25 26.6666870117 -25 26.6666870117 -30.8333129883 27.1666259766 -36.6666870117 27.6666870117 -36.6649169922 27.6666870117 -35.1666870117 24 -33.6683959961 20.3333129883 -33.6666870117 20.3333129883 -37.5 23.5 -41.3333129883 26.6666870117 -41.3333129883 26.6666870117 -34.3333740234 24.6666259766 -27.3333129883 22.6666870117 rrcurveto
          20 12.6666870117 26.1666870117 15.8333129883 32.3333129883 19 32.3333129883 19 25 14.8333129883 17.6666870117 10.6666870117 17.6666870117 10.6666870117 20 14.5 22.3333129883 18.3333129883 22.3299560547 18.3333129883 16.8333129883 17.8333129883 11.336730957 17.3333740234 11.3262329102 17.3333740234 9.83331298828 21.6666259766 8.34045410156 26 8.33331298828 26 4.16668701172 29 0 32 rrcurveto
          0 104.666625977 -34.6666870117 83.3333740234 -69.3333129883 62 -69.3333129883 62 -97 31 -124.666687012 0 -149.333312988 0 -110.333343506 -42.5 -71.3333435059 -85 -71.3332824707 -85 -35.6666564941 -120.166625977 -6.103515625e-05 -155.333374023 rrcurveto
          endchar
        </CharString>
        <CharString name="grave">
          -477 460 1287 rmoveto
          -85 callsubr
          endchar
        </CharString>
        <CharString name="greater">
          -12 113 122 rmoveto
          957 455 0 79 -954 509 0 -123 803 -420 -806 -372 rlineto
          endchar
        </CharString>
        <CharString name="greaterequal">
          -15 109 12 rmoveto
          964 119 hlineto
          -964 -1 rlineto
          35 110 rmoveto
          907 501 0 68 -902 532 0 -124 786 -443 -791 -409 rlineto
          endchar
        </CharString>
        <CharString name="guillemotleft">
          -217 752 157 rmoveto
          94 25 -249 379 252 374 -95 24 -294 -386 rlineto
          -69 -416 rmoveto
          112 25 -266 379 271 374 -114 24 -287 -406 34 -50 rlineto
          endchar
        </CharString>
        <CharString name="guillemotright">
          -238 564 157 rmoveto
          280 390 -277 412 -107 -24 261 -373 -266 -380 rlineto
          -263 -25 rmoveto
          294 390 -294 412 -93 -24 250 -373 -252 -380 rlineto
          endchar
        </CharString>
        <CharString name="guilsinglleft">
          -543 372 187 rmoveto
          111 0 -213 406 218 400 -111 0 -227 -400 rlineto
          endchar
        </CharString>
        <CharString name="guilsinglright">
          -547 155 187 rmoveto
          112 0 226 408 -221 398 -111 0 212 -398 rlineto
          endchar
        </CharString>
        <CharString name="h">
          -30 147 hmoveto
          -75 callsubr
          endchar
        </CharString>
        <CharString name="hbar">
          -102 117 hmoveto
          129 750 hlineto
          4 27.3333129883 12.1666564941 29.1666870117 20.3333435059 31 20.3333435059 31 25.3333129883 28.6666870117 30.3333435059 26.3333129883 30.3333435059 26.3328857422 36.6666564941 21.8333129883 43 17.3338012695 43 17.3333129883 43.8333129883 8.66668701172 44.6666870117 0 40.6666870117 0 34.5 -5.66668701172 28.3333129883 -11.3333129883 28.3333129883 -11.3333129883 23 -15.8333740234 17.6666870117 -20.3333129883 rrcurveto
          17.6666870117 -20.3333129883 13.8333129883 -28.1666870117 10 -36 10 -36 6.66668701172 -39 3.33331298828 -42 3.33331298828 -42 1.66668701172 -52 0 -62 rrcurveto
          -593 128 662 vlineto
          0 67.3333129883 -5.33331298828 60.6666870117 -10.6666870117 54 -10.6630859375 54 -17.1666870117 48.8333129883 -23.6702270508 43.6666870117 -23.6666870117 43.6627197266 -32.8333129883 33.6666259766 -42 23.6706542969 -42 23.6666259766 -49.6666870117 11.8333740234 -57.3333129883 0 -172 0 -135.333343506 -64.6666259766 -98.6666564941 -129.333374023 rrcurveto
          367 266 103 -266 104 vlineto
          -129 -21 0 -83 -89 0 0 -103 89 0 rlineto
          endchar
        </CharString>
        <CharString name="hcircumflex">
          -30 312 1654 rmoveto
          -48 callsubr
          -333 -2013 rmoveto
          -75 callsubr
          endchar
        </CharString>
        <CharString name="hungarumlaut">
          -438 315 1328 rmoveto
          -39 callsubr
          -379 -318 rmoveto
          -38 callsubr
          endchar
        </CharString>
        <CharString name="hyphen">
          -509 93 531 rmoveto
          484 110 -484 hlineto
          endchar
        </CharString>
        <CharString name="i">
          -734 160 1320 rmoveto
          -74 callsubr
          -1488 vmoveto
          -73 callsubr
          endchar
        </CharString>
        <CharString name="iacute">
          -803 163 1238 rmoveto
          -55 callsubr
          -219 -1625 rmoveto
          -73 callsubr
          endchar
        </CharString>
        <CharString name="ibreve">
          -803 198 1238 rmoveto
          66 0 55.6666564941 22.3333740234 45.3333435059 44.6666259766 45.3333435059 44.6640625 22.6666564941 61.6666259766 0 78.6693115234 rrcurveto
          -94 hlineto
          0 -57.3326416016 -12.5 -43.3333740234 -25 -29.333984375 -25 -29.3333740234 -34.5 -14.6666259766 -44 0 -44.6666717529 0 -34.1666717529 14.5 -23.6666564941 29 -23.6666564941 29 -11.8333435059 43.5 0 58 rrcurveto
          -92 hlineto
          0 -79.3306884766 22.1666717529 -61.8333740234 44.3333282471 -44.3359375 44.3332824707 -44.3333740234 54.5 -22.1666259766 64.6667175293 0 rrcurveto
          -60 -1238 rmoveto
          -73 callsubr
          endchar
        </CharString>
        <CharString name="icircumflex">
          -803 -65 1238 rmoveto
          -48 callsubr
          35 -1597 rmoveto
          -73 callsubr
          endchar
        </CharString>
        <CharString name="idieresis">
          -803 320 1238 rmoveto
          -60 callsubr
          -376 -177 rmoveto
          -59 callsubr
          194 -1415 rmoveto
          -73 callsubr
          endchar
        </CharString>
        <CharString name="igrave">
          -803 164 1238 rmoveto
          -85 callsubr
          250 -1625 rmoveto
          -73 callsubr
          endchar
        </CharString>
        <CharString name="ij">
          -326 606 1321 rmoveto
          -72 callsubr
          -219 -2038 rmoveto
          49 hlineto
          61.3333435059 0 48.8333435059 4.33331298828 36.3333129883 8.66668701172 36.3333129883 8.66668701172 29.6666870117 16.1666259766 23 23.6666870117 23 23.6666564941 15.6666870117 30.5 8.33331298828 37.3333435059 8.33331298828 37.3333435059 4.16668701172 50 0 62.6666564941 rrcurveto
          1343 -125 -1315 vlineto
          -3 vlineto
          0 -50 -1 -35.5 -2 -21 -2 -21 -6.83331298828 -22 -11.6666870117 -23 -11.6666870117 -23 -18.8333129883 -15 -26 -7 -26 -7 -36.3333435059 -3.5 -46.6666564941 0 rrcurveto
          -49 hlineto
          -208 1770 rmoveto
          -74 callsubr
          -1488 vmoveto
          -73 callsubr
          endchar
        </CharString>
        <CharString name="imacron">
          -803 -108 1238 rmoveto
          -56 callsubr
          246 -1344 rmoveto
          -73 callsubr
          endchar
        </CharString>
        <CharString name="iogonek">
          -734 160 -409 rmoveto
          44 0 46.6666717529 9.66665649414 49.3333282471 19.3333435059 rrcurveto
          101 vlineto
          -22 -10 -18.5 -7.16665649414 -15 -4.33334350586 -15 -4.33334350586 -11.6666717529 -2.5 -8.33332824707 -0.666656494141 -8.33332824707 -0.666656494141 -14.5 -0.333343505859 -20.6666717529 0 -21.3333282471 0 -20.5000152588 8.16665649414 -19.6666564941 16.3333435059 -19.6666564941 16.3333435059 -9.83334350586 22.1666564941 0 28 0 32 17 33.5 34 35 rrcurveto
          34 35 51.6666564941 43.8333282471 69.3333435059 52.6666717529 rrcurveto
          -87 hlineto
          -148.666671753 -77.3333435059 -73.6666564941 -81.3333435059 1.33332824707 -85.3333129883 0.66667175293 -55.3336181641 17.3333282471 -43.3333435059 34 -31.3330383301 34.6666564941 -32 45 -16.3333435059 55.3333435059 -0.666656494141 rrcurveto
          1729 vmoveto
          -74 callsubr
          -1488 vmoveto
          -73 callsubr
          endchar
        </CharString>
        <CharString name="itilde">
          -803 -84 1238 rmoveto
          90 hlineto
          5.33332824707 68.6666259766 20.3333435059 34.3333740234 35.3333282471 0 15.3333435059 0 42.8333129883 -17.1666259766 70.3333435059 -34.3333740234 70.3333435059 -34.3333740234 49.8333129883 -17.1666259766 29.3333435059 0 44 0 33.8333435059 14.1666259766 23.6666564941 28.3333740234 23.664855957 28.3333740234 13.1666564941 47.8332519531 2.66848754883 67.3333740234 rrcurveto
          -91 hlineto
          -1.32733154297 -13.3118896484 -1.33334350586 -10.3333740234 -1.33932495117 -7.35473632812 -1.33334350586 -7.33337402344 -2.66665649414 -9.66662597656 -4 -12 -4 -12 -5.66665649414 -9 -7.33334350586 -6 -7.33334350586 -6 -9 -3 -10.6666564941 0 -16 0 -40.3333435059 16 -64.6666564941 32 -64.6666564941 32 -47.6666870117 16 -30.6666564941 0 rrcurveto
          -48.6666717529 0 -38.1666717529 -13.1666259766 -27.6666564941 -26.3333740234 -27.6666564941 -26.3282470703 -14.8333435059 -48.8333740234 -2 -71.3383789062 rrcurveto
          222 -1238 rmoveto
          -73 callsubr
          endchar
        </CharString>
        <CharString name="j">
          -771 161 1321 rmoveto
          -72 callsubr
          -219 -2038 rmoveto
          49 hlineto
          61.3333282471 0 48.8333282471 4.33331298828 36.3333435059 8.66668701172 36.3333282471 8.66668701172 29.6666717529 16.1666259766 23 23.6666870117 23 23.6666564941 15.6666564941 30.5 8.33334350586 37.3333435059 8.33334350586 37.3333435059 4.16665649414 50 0 62.6666564941 rrcurveto
          1343 -125 -1315 vlineto
          -3 vlineto
          0 -50 -1 -35.5 -2 -21 -2 -21 -6.83332824707 -22 -11.6666717529 -23 -11.6666564941 -23 -18.8333435059 -15 -26 -7 -26 -7 -36.3333282471 -3.5 -46.6666717529 0 rrcurveto
          -49 hlineto
          endchar
        </CharString>
        <CharString name="jcircumflex">
          -773 -46 1238 rmoveto
          -48 callsubr
          -185 -2191 rmoveto
          -41 callsubr
          endchar
        </CharString>
        <CharString name="k">
          -193 149 hmoveto
          -71 callsubr
          endchar
        </CharString>
        <CharString name="kcommaaccent">
          -193 450 -608 rmoveto
          -42 callsubr
          -388 122 rmoveto
          -71 callsubr
          endchar
        </CharString>
        <CharString name="kgreenlandic">
          -193 149 hmoveto
          123 423 hlineto
          128 118 419 -541 157 0 -491 611 459 485 -167 0 -379 -416 rlineto
          -4.66665649414 -5.33331298828 -20.6666870117 -22.6666870117 -36.6666564941 -40 -36.6666564941 -40 -21.3333435059 -23.6666870117 -6 -7.33331298828 rrcurveto
          555 -123 vlineto
          endchar
        </CharString>
        <CharString name="l">
          -598 423 -23 rmoveto
          -70 callsubr
          endchar
        </CharString>
        <CharString name="lacute">
          -598 332 1654 rmoveto
          -55 callsubr
          -103 -2064 rmoveto
          -70 callsubr
          endchar
        </CharString>
        <CharString name="lcaron">
          -598 764 1022 rmoveto
          -40 callsubr
          -421 -1555 rmoveto
          -70 callsubr
          endchar
        </CharString>
        <CharString name="lcommaaccent">
          -598 256 -631 rmoveto
          -42 callsubr
          80 122 rmoveto
          -70 callsubr
          endchar
        </CharString>
        <CharString name="ldot">
          -109 751 610 rmoveto
          -54 callsubr
          -328 -795 rmoveto
          -70 callsubr
          endchar
        </CharString>
        <CharString name="less">
          -14 1052 113 rmoveto
          0 127 -805 382 807 410 0 126 -956 -500 0 -79 rlineto
          endchar
        </CharString>
        <CharString name="lessequal">
          -15 84 12 rmoveto
          972 118 hlineto
          -972 1 rlineto
          938 106 rmoveto
          0 125 -783 418 783 434 0 124 -898 -529 0 -73 rlineto
          endchar
        </CharString>
        <CharString name="logicalnot">
          18 967 268 rmoveto
          109 549 -977 -110 868 hlineto
          endchar
        </CharString>
        <CharString name="lozenge">
          -76 544 77 rmoveto
          -47.3333435059 89.3333435059 -65.1666564941 128.499969482 -83 167.666687012 -83 167.666687012 -54.8333282471 110.166625977 -26.6666717529 52.6666870117 13.3332824707 24.6666870117 53 101.5 92.6667175293 178.333312988 92.6666564941 178.333374023 71.3333435059 134.833251953 50 91.3333740234 46.6666870117 -95.3333740234 69.1666259766 -137.666625977 91.6666870117 -180 91.6666870117 -180 50.5 -99.3333129883 9.33331298828 -18.6666870117 rrcurveto
          -182.666687012 -352 -124 -238 -65.3333129883 -124 rrcurveto
          -48 -126 rmoveto
          100 0 423 843 -414 841 -102 0 -421 -844 rlineto
          endchar
        </CharString>
        <CharString name="lslash">
          -631 395 -25 rmoveto
          50 0 61.3333435059 4.33332824707 72.6666564941 8.66667175293 rrcurveto
          -15 100 rlineto
          -86.6666564941 -8 -51 -4 -15.3333435059 0 -14 0 -12.5 0.666656494141 -11 1.33334350586 -11 1.33334350586 -10 3 -9 4.66665649414 -9 4.66665649414 -7.66665649414 4.5 -6.33334350586 4.33334350586 -6.3327331543 4.33334350586 -5.83334350586 7.5 -5.33392333984 10.6666564941 -5.33108520508 10.6666717529 -4.33334350586 9.16665649414 -3.33557128906 7.66667175293 rrcurveto
          -3.32897949219 7.66667175293 -2.83334350586 12.5 -2.33767700195 17.3333282471 -2.32907104492 17.3331298828 -1.83334350586 14.8333282471 -1.33758544922 12.3335418701 -1.33334350586 12.3328552246 -1 18.5 -0.666656494141 24.6671447754 -0.666656494141 24.6660461426 -0.333343505859 21.1666564941 0 17.6672973633 rrcurveto
          0 75.5 0 181 184 162 0 122 -184 -163 0 778 -129 -20 0 -874 -112 -99 0 -120 112 99 0 -19 rlineto
          0 -45.3333435059 0.16667175293 -36.1666564941 0.33332824707 -27 0.32893371582 -27 0.83332824707 -30.5 1.33773803711 -34 1.33219909668 -34 1.83332824707 -26.3333282471 2.33447265625 -18.6666717529 2.33274841309 -18.6666717529 3.33332824707 -21 4.33392333984 -23.3333282471 4.33317565918 -23.3333435059 5.33332824707 -17.6666564941 6.33349609375 -12 6.33297729492 -12 7.83332824707 -13 9.33369445801 -14 rrcurveto
          9.33332824707 -14 10.6666717529 -10.1666717529 12 -6.33332824707 12 -6.33332824707 14 -6.33334350586 16 -6.33332824707 16 -6.33332824707 17.8333435059 -4.16667175293 19.6666564941 -2 19.6659851074 -2 22.1666564941 -1 24.6673583984 0 rrcurveto
          endchar
        </CharString>
        <CharString name="m">
          626 150 hmoveto
          124 623 hlineto
          0 50.6666870117 0.666656494141 39 1.33334350586 27.3333129883 18 83.3325195312 39.5 65.8333129883 61 48.3341674805 61 48.3333129883 75.8333129883 24.1666870117 90.6666870117 0 39.33203125 0 33.8333129883 -7.66668701172 28.3346557617 -15.3333129883 28.3333129883 -15.3333129883 22.6666870117 -20.3333740234 17 -25.3333129883 17 -25.3333129883 13.5 -32.6666870117 10 -40 rrcurveto
          10 -40 6.66668701172 -40.8333129883 3.33331298828 -41.6666870117 3.33331298828 -41.6665039062 1.66668701172 -49.1666870117 0 -56.666809082 rrcurveto
          -558 123 568 vlineto
          -2 37.3333129883 -1.66668701172 52.6666870117 -1.33331298828 68 22.6666870117 90 40.4999389648 69.8333129883 58.3333740234 49.6666870117 58.3333740234 49.6666870117 71.1666259766 24.8333129883 84 0 35.3333740234 0 30.6666259766 -5.33331298828 26 -10.6666870117 26 -10.6629638672 21.3333740234 -16.6666870117 16.6666259766 -22.6703491211 16.6666259766 -22.6666870117 13.5 -24 10.3333740234 -25.3333129883 rrcurveto
          10.3333740234 -25.3333129883 7.66662597656 -32.6666870117 5 -40 5 -40 3.16662597656 -37 1.33337402344 -34 1.33337402344 -34 0.666625976562 -42.3333129883 0 -50.6666870117 rrcurveto
          -536 124 708 vlineto
          0 135.333129883 -28.1666259766 101.833312988 -56.3333740234 68.3335571289 -56.3333740234 68.3333740234 -88.1666259766 34.1666259766 -120 0 -168 0 -123 -69 -78 -138 -44.6666870117 138 -110 69 -175.333312988 0 -71.3333129883 0 -67.5000305176 -17.6666259766 -63.6666564941 -35.3333740234 -63.6666564941 -35.3314208984 -47.8333435059 -45 -32 -54.6685791016 rrcurveto
          -16 168 -108 0 rlineto
          0 -68 1 -365.333312988 2 -662.666687012 rrcurveto
          endchar
        </CharString>
        <CharString name="macron">
          -48 256 1270 rmoveto
          -56 callsubr
          endchar
        </CharString>
        <CharString name="minus">
          33 123 578 rmoveto
          975 123 -975 hlineto
          endchar
        </CharString>
        <CharString name="multiply">
          -78 864 261 rmoveto
          77 77 -307 308 308 307 -77 77 -308 -307 -307 308 -77 -77 307 -308 -308 -307 77 -77 308 307 rlineto
          endchar
        </CharString>
        <CharString name="n">
          -27 147 hmoveto
          -69 callsubr
          endchar
        </CharString>
        <CharString name="nacute">
          -27 542 1238 rmoveto
          -55 callsubr
          -589 -1625 rmoveto
          -69 callsubr
          endchar
        </CharString>
        <CharString name="ncaron">
          -27 485 1238 rmoveto
          -44 callsubr
          -167 -1597 rmoveto
          -69 callsubr
          endchar
        </CharString>
        <CharString name="ncommaaccent">
          -27 466 -608 rmoveto
          -42 callsubr
          -406 122 rmoveto
          -69 callsubr
          endchar
        </CharString>
        <CharString name="nine">
          -37 577 704 rmoveto
          -108 0 -86.6666564941 32.3333129883 -65.3333435059 64.6666870117 -65.3332214355 64.6666870117 -32.6666717529 82 -0.000106811523438 99.3333129883 0 61.3333740234 14.1666717529 57.6666259766 28.3333282471 54 28.3333435059 54 42.5 44.6666259766 56.6666564941 35.3333740234 56.6666564941 35.3333740234 65 17.6666259766 73.3333435059 0 55.3333129883 0 50.1666870117 -10 45 -20 rrcurveto
          45 -20 36.6666870117 -26.6666259766 28.3333129883 -33.3333740234 28.3333129883 -33.3286132812 21.6666870117 -37.8333740234 15 -42.3380126953 15 -42.3333740234 7.5 -44.5 0 -46.6666259766 0 -45.3333129883 -7.16668701172 -43 -14.3333129883 -40.6666870117 -14.3333129883 -40.6658325195 -21.1666870117 -36.6666870117 -28 -32.6674804688 -28 -32.6666870117 -37.1666870117 -26 -46.3333129883 -19.3333129883 rrcurveto
          -46.3333129883 -19.3333129883 -52.8333740234 -9.66668701172 -59.3333129883 0 rrcurveto
          -312 -704 rmoveto
          163 0 99 120 rlineto
          66 79.9999542236 66 79.3333282471 66 78.6667175293 rrcurveto
          99 120 rlineto
          95.3333129883 135.332702637 62.5 101.333312988 29.6666870117 67.333984375 29.6666259766 67.3333129883 14.8333740234 82.6666870117 0 98 0 64.6645507812 -10 61.1666259766 -20 57.6688232422 -20 57.6666259766 -29.1666870117 51.3333740234 -38.3333129883 45 -38.3333129883 45 -49.8333740234 35.6666259766 -61.3333129883 26.3333740234 -61.3333129883 26.3333740234 -69.3333740234 13.1666259766 -77.3333129883 0 rrcurveto
          -74 0 -67.8333435059 -12.5 -61.6666564941 -25 -61.6666564941 -25 -51.5 -33.8333740234 -41.3333435059 -42.6666259766 -41.3333282471 -42.6666259766 -32 -49.6667480469 -22.6666717529 -56.6666259766 -22.6666564941 -56.6666259766 -11.3333435059 -60 0 -63.3333740234 -4.57763671875e-05 -89.3333129883 22.1666717529 -79.5 44.3333740234 -69.6666870117 44.3333282471 -69.6659545898 57.1666717529 -52.6666870117 70 -35.6673583984 rrcurveto
          70 -35.6666870117 75.3333435059 -17.8333129883 80.6666564941 0 45.3333129883 0 46.5 7.5 47.6666870117 15 47.6666870117 15 42.5 19.5 37.3333129883 24 rrcurveto
          endchar
        </CharString>
        <CharString name="notequal">
          -44 337 50 rmoveto
          147 328 555 0 -5 101 -499 0 171 344 333 0 -7 108 -277 0 116 300 -92 12 -143 -313 -538 0 8 -107 480 0 -166 -344 rlineto
          -320 0 6 -101 258 0 -117 -310 rlineto
          endchar
        </CharString>
        <CharString name="ntilde">
          -27 294 1238 rmoveto
          90 hlineto
          5.33334350586 68.6666259766 20.3333129883 34.3333740234 35.3333435059 0 15.3333435059 0 42.8333129883 -17.1666259766 70.3333435059 -34.3333740234 70.3327026367 -34.3333740234 49.8333129883 -17.1666259766 29.333984375 0 44 0 33.8333129883 14.1666259766 23.6666870117 28.3333740234 23.6666870117 28.3333740234 13.1666259766 47.8332519531 2.66668701172 67.3333740234 rrcurveto
          -91 hlineto
          -1.33331298828 -13.3118896484 -1.33337402344 -10.3333740234 -1.33331298828 -7.35473632812 -1.33331298828 -7.33337402344 -2.66668701172 -9.66662597656 -4 -12 -4 -12 -5.66668701172 -9 -7.33331298828 -6 -7.33331298828 -6 -9 -3 -10.6666870117 0 -16 0 -40.3333129883 16 -64.6666870117 32 -64.6666870117 32 -47.6666564941 16 -30.6666564941 0 rrcurveto
          -48.6666564941 0 -38.1666870117 -13.1666259766 -27.6666564941 -26.3333740234 -27.6666564941 -26.3282470703 -14.8333435059 -48.8333740234 -2 -71.3383789062 rrcurveto
          -147 -1238 rmoveto
          -69 callsubr
          endchar
        </CharString>
        <CharString name="numbersign">
          -71 374 505 rmoveto
          78 447 269 0 -77 -447 rlineto
          -464 -533 rmoveto
          101 0 77 442 270 0 -78 -442 105 0 77 442 160 0 10 91 -155 0 79 447 143 0 15 89 -143 0 74 423 -104 0 rlineto
          -74 -423 -270 0 74 423 -104 0 -74 -423 -168 0 -10 -90 163 0 -78 -446 -151 0 -10 -91 145 0 rlineto
          endchar
        </CharString>
        <CharString name="o">
          11 592 -24 rmoveto
          -68 callsubr
          9 99 rmoveto
          -67 callsubr
          endchar
        </CharString>
        <CharString name="oacute">
          11 558 1238 rmoveto
          -55 callsubr
          -160 -1649 rmoveto
          -68 callsubr
          9 99 rmoveto
          -67 callsubr
          endchar
        </CharString>
        <CharString name="obreve">
          11 593 1238 rmoveto
          66 0 55.6666870117 22.3333740234 45.3333129883 44.6666259766 45.3333129883 44.6640625 22.6666870117 61.6666259766 0 78.6693115234 rrcurveto
          -94 hlineto
          0 -57.3326416016 -12.5 -43.3333740234 -25 -29.333984375 -25 -29.3333740234 -34.5 -14.6666259766 -44 0 -44.6656494141 0 -34.1666870117 14.5 -23.6676635742 29 -23.6666564941 29 -11.8333435059 43.5 0 58 rrcurveto
          -92 hlineto
          0 -79.3306884766 22.1666564941 -61.8333740234 44.3333435059 -44.3359375 44.3333435059 -44.3333740234 54.4999694824 -22.1666259766 64.6666870117 0 rrcurveto
          -1 -1262 rmoveto
          -68 callsubr
          9 99 rmoveto
          -67 callsubr
          endchar
        </CharString>
        <CharString name="ocircumflex">
          11 330 1238 rmoveto
          -48 callsubr
          94 -1621 rmoveto
          -68 callsubr
          9 99 rmoveto
          -67 callsubr
          endchar
        </CharString>
        <CharString name="odieresis">
          11 714 1238 rmoveto
          -60 callsubr
          -376 -177 rmoveto
          -59 callsubr
          254 -1439 rmoveto
          -68 callsubr
          9 99 rmoveto
          -67 callsubr
          endchar
        </CharString>
        <CharString name="oe">
          751 1087 633 rmoveto
          10.6666259766 113.332580566 34 91.3333129883 57.3333740234 69.3341064453 57.3333740234 69.3333129883 75.3332519531 34.6666870117 93.3333740234 0 89.3333740234 0 69.6666259766 -31.3333129883 50 -62.6666870117 50 -62.6666870117 25.6666259766 -91 1.33337402344 -119.333312988 rrcurveto
          -11 vlineto
          -1106 -558 rmoveto
          -61.3333129883 0 -54.1666870117 12 -47 24 -47 24 -38.1666564941 33.5 -29.3333435059 43 -29.3333435059 42.9999847412 -22 49.3333282471 -14.6666564941 55.6666870117 -14.6666717529 55.6666564941 -7.33332824707 60.8333435059 0 66 0 90.6666870117 12.5 80 25 69.3333129883 25 69.3333129883 40.1666564941 56.1666870117 55.3333435059 43 rrcurveto
          55.3333435059 43 67.6666564941 21.5 80 0 62.6666870117 0 54.8333129883 -11.8333129883 47 -23.6666870117 47 -23.6666870117 37.5 -33.3333129883 28 -43 28 -43 20.8333129883 -49.3333129883 13.6666870117 -55.6666870117 13.6666870117 -55.666015625 6.83331298828 -62.1666870117 0 -68.6672973633 0 -67.3333435059 -7 -61.6666564941 -14 -56 rrcurveto
          -14 -56 -21.1666870117 -49.5 -28.3333129883 -43 -28.3333129883 -43 -37.3333740234 -33.5 -46.3333129883 -24 -46.3333129883 -24 -53.1666870117 -12 -60 0 rrcurveto
          -9 -99 rmoveto
          104.666687012 0 89.1666259766 25.5 73.6666870117 51 73.6666870117 51 55.1666259766 70.5 36.6666870117 90 35.3333740234 -92 54 -71 72.6666259766 -50 72.6666259766 -50 88 -25 103.333374023 0 75.3333740234 0 65.5 8.33332824707 55.6666259766 16.6666717529 55.6650390625 16.6666717529 56.1666259766 25.6666564941 56.6683349609 34.6666717529 rrcurveto
          -21 101 rlineto
          -7.33337402344 -4 -18 -9.5 -28.6666259766 -15 -28.6666259766 -15 -20.6667480469 -10 -12.6666259766 -5 -12.6666259766 -5 -19.3333740234 -7.16665649414 -26 -9.33334350586 -26 -9.33316040039 -26.3333740234 -6.33334350586 -26.6666259766 -3.33349609375 -26.6666259766 -3.33334350586 -29.3333740234 -1.66665649414 -32 0 -109.333374023 0 -88 41.1666564941 -66.6666259766 82.3333435059 rrcurveto
          -66.6666259766 82.3333435059 -34 111.499969482 -1.33337402344 140.666687012 rrcurveto
          753 hlineto
          0 7.32916259766 0.166625976562 12.8333129883 0.333374023438 18.3375244141 0.333374023438 18.3333129883 0.166625976562 12.1666870117 0 6 0 155.333312988 -37.5 123.5 -75 91.6666870117 -75 91.6666259766 -101.5 45.8333740234 -128 0 -93.3333740234 -2 -81 -26.1666259766 -68.6666259766 -50.3333740234 -68.6666259766 -50.3333129883 -52 -69.8333740234 -35.3333740234 -89.3333129883 rrcurveto
          -36 90 -54 70.5 -72 51 -72 51 -88 25.5 -104 0 -102.666656494 0 -89.3333435059 -25.1666259766 -76 -50.3333740234 -76 -50.3333129883 -57.1666717529 -67.8333740234 -38.3333282471 -85.3333129883 -38.3333282471 -85.3333129883 -19.1666717529 -97.3333740234 0 -109.333312988 0 -108 19.3333282471 -96.8333435059 38.6666717529 -85.6666564941 rrcurveto
          38.6666717529 -85.6666564941 56.6666717529 -67.8333435059 74.6666564941 -50 74.6666564941 -50 87 -25 99.3333435059 0 rrcurveto
          endchar
        </CharString>
        <CharString name="ogonek">
          -583 307 -437 rmoveto
          44 0 46.6666564941 9.66665649414 49.3333435059 19.3333435059 rrcurveto
          101 vlineto
          -22 -10 -18.5 -7.16665649414 -15 -4.33334350586 -15 -4.33334350586 -11.6666564941 -2.5 -8.33334350586 -0.666656494141 -8.33334350586 -0.666656494141 -14.5 -0.333343505859 -20.6666564941 0 -21.3333435059 0 -20.5 8.16665649414 -19.6666564941 16.3333435059 -19.6666717529 16.3333435059 -9.83332824707 22.1666564941 0 28 0 32 17 33.5 34 35 rrcurveto
          34 35 51.6666564941 43.8333282471 69.3333435059 52.6666717529 rrcurveto
          -87 hlineto
          -148.666671753 -77.3333435059 -73.6666717529 -81.3333282471 1.33334350586 -85.3333282471 0.666656494141 -55.3336486816 17.3333435059 -43.3333435059 34 -31.3330078125 34.6666717529 -32 45 -16.3333435059 55.3333282471 -0.666656494141 rrcurveto
          endchar
        </CharString>
        <CharString name="ograve">
          11 558 1238 rmoveto
          -85 callsubr
          310 -1649 rmoveto
          -68 callsubr
          9 99 rmoveto
          -67 callsubr
          endchar
        </CharString>
        <CharString name="ohungarumlaut">
          11 649 1238 rmoveto
          -39 callsubr
          -379 -318 rmoveto
          -38 callsubr
          -36 -1580 rmoveto
          -68 callsubr
          9 99 rmoveto
          -67 callsubr
          endchar
        </CharString>
        <CharString name="omacron">
          11 286 1238 rmoveto
          -56 callsubr
          306 -1368 rmoveto
          -68 callsubr
          9 99 rmoveto
          -67 callsubr
          endchar
        </CharString>
        <CharString name="one">
          -580 274 hmoveto
          128 1488 -105 hlineto
          -35.3332824707 -28 -87.6666717529 -46.3333740234 -140.000045776 -64.6666259766 rrcurveto
          -108 vlineto
          46 16 46.1666564941 19.3333740234 46.3333435059 22.6666259766 46.3332214355 22.6666259766 33.8333282471 19 21.3334503174 15.3333740234 rrcurveto
          endchar
        </CharString>
        <CharString name="onehalf">
          314 270 hmoveto
          -51 callsubr
          -266 -1514 rmoveto
          551 0 -8 82 -414 0 rlineto
          30 32 39 40.5 48 49 48 49 35.8333740234 37 23.6666259766 25 23.6617431641 25 27.6666259766 30.8333435059 31.6716308594 36.6666564941 31.6666259766 36.666229248 23 30.6666564941 14.3333740234 24.6671142578 14.3333740234 24.6666870117 12.6666259766 27.5 11 30.3333129883 11 30.3321533203 5.5 29.8333129883 0 29.3345336914 rrcurveto
          0 76.6666870117 -25.6666259766 60.6666259766 -51.3333740234 44.6666870117 -51.3333740234 44.6666870117 -62 22.3333129883 -72.6666259766 0 -60 0 -55.5 -16 -51 -32 -51 -32 -37.8333129883 -45.6666870117 -24.6666870117 -59.3333129883 rrcurveto
          82 -31 rlineto
          29.9999389648 48 31.3333129883 33.3333129883 32.6667480469 18.6666870117 32.6623535156 18.6666870117 35.6666259766 9.33331298828 38.6710205078 0 41.3333740234 0 36.5 -13.8333129883 31.6666259766 -27.6666870117 31.6666259766 -27.665222168 15.8333740234 -37.1666870117 0 -46.6680908203 0 -50 -29 -62.3333129883 -58 -74.6666870117 -58 -74.6666564941 -123.333374023 -138.333343506 -188.666625977 -202 rrcurveto
          -743 604 rmoveto
          -49 callsubr
          endchar
        </CharString>
        <CharString name="onequarter">
          374 995 300 rmoveto
          -52 callsubr
          -989 -300 rmoveto
          -51 callsubr
          101 -1514 rmoveto
          -50 callsubr
          -1121 463 rmoveto
          -49 callsubr
          endchar
        </CharString>
        <CharString name="ordfeminine">
          -349 144 720 rmoveto
          538 78 -538 hlineto
          219 170 rmoveto
          -85.3332214355 0 -43.6666717529 43.3333129883 -2.00010681152 86.6666870117 rrcurveto
          3 vlineto
          0 18.6666259766 4.66667175293 16.8333740234 9.33332824707 15 9.33332824707 15 10.8333282471 12.5 12.3333435059 10 12.3333435059 10 17.1666564941 9 22 8 22 8 19.3333435059 6.16662597656 16.6666564941 4.33337402344 16.6664733887 4.33337402344 21.6666564941 3.83325195312 26.6668701172 3.33337402344 26.6666564941 3.33337402344 19.3333435059 2.16662597656 12 1 rrcurveto
          12 1 17.3333129883 1.16662597656 22.6666870117 1.33337402344 rrcurveto
          -39 vlineto
          0 -76 -17.3333129883 -60.1666259766 -34.6666870117 -44.3333740234 -34.6666564941 -44.3333129883 -47.3333435059 -22.8333740234 -60 -1.33331298828 rrcurveto
          -11 -76 rmoveto
          47.3333435059 0 42.8333129883 9.83331298828 38.3333435059 19.6666870117 38.3333129883 19.6666870117 28.5 29.5 18.6666870117 39.3333129883 rrcurveto
          23 -108 61 0 0 125 0 344 rlineto
          0 88.6666259766 -21.1666870117 64.3333740234 -42.3333129883 40 -42.3333129883 40 -54.8333435059 20 -67.3333435059 0 -112.666656494 0 -95.6666870117 -23.3333740234 -78.6666564941 -46.6666259766 rrcurveto
          37 -73 rlineto
          26.6666717529 18.6551513672 37.6666564941 15.6666259766 48.6666717529 12.6782226562 48.6666564941 12.6666259766 44.3333435059 6.33337402344 40 0 50 0 35.1666564941 -16.3333740234 20.3333435059 -32.6666259766 20.3333129883 -32.6666259766 10.1666870117 -49.6667480469 0 -66.6666259766 rrcurveto
          -23 vlineto
          -54.6666564941 -4.66662597656 -46 -5.16674804688 -37.3333435059 -5.66662597656 -37.3329772949 -5.66662597656 -38.3333435059 -8.66674804688 -39.3336791992 -11.6666259766 -39.3333435059 -11.6666259766 -31.3333282471 -13.8333740234 -23.3333282471 -16 -23.3333282471 -16 -19.1666717529 -21 -15 -26 -15 -26 -7.5 -30.6666259766 0 -35.3333740234 0 -42.6666259766 12.1666717529 -36.6666870117 24.3333282471 -30.6666870117 rrcurveto
          24.3333282471 -30.6666870117 28.6666717529 -22 33 -13.3333129883 33 -13.3333129883 34.1666564941 -6.66668701172 35.3333435059 0 rrcurveto
          endchar
        </CharString>
        <CharString name="oslash">
          11 601 75 rmoveto
          -54 0 -49 9.66665649414 -44 19.3333435059 rrcurveto
          348 851 rlineto
          106 -76.6662597656 53 -136.666687012 0 -196.667053223 0 -90 -12.5 -79.6666564941 -25 -69.3333435059 -25 -69.3333435059 -40 -55.8333282471 -55 -42.3333282471 -55 -42.3333282471 -67.5 -21.1666717529 -80 0 rrcurveto
          -209 64 rmoveto
          -53.3332519531 39.3332366943 -40.3333435059 55 -27.333404541 70.6667633057 -27.3333282471 70.6666564941 -13.6666717529 79.3333435059 0 88 0 90 13 79.8333129883 26 69.6666870117 26 69.6666870117 41.1666564941 56.3333129883 56.3333435059 43 56.3333435059 43 68.1666564941 21.5 80 0 52 0 47.3333129883 -8.33331298828 42.6666870117 -16.6666870117 rrcurveto
          -455 -1301 rmoveto
          130 318 rlineto
          56 -20.6666717529 59.3333129883 -10.3333282471 62.6666870117 0 103.333312988 0 90 25.1666717529 76.6666870117 50.3333282471 76.6666870117 50.3333282471 57.6666259766 67.8333282471 38.6666870117 85.3333435059 38.6666259766 85.3333435059 19.3333740234 97.3333129883 0 109.333343506 0 114 -21.6666259766 101.833312988 -43.3333740234 89.6666870117 -43.3333129883 89.6666870117 -61.3333740234 67.5 -79.3333129883 45.3333129883 rrcurveto
          135 331 -69 24 -132 -324 rlineto
          -56 20 -59.3333129883 10 -62.6666870117 0 -77.3333129883 0 -70.3333435059 -14.5 -63.3333435059 -29 -63.3333435059 -29 -53 -40 -42.6666564941 -51 -42.6666717529 -51 -32.8333282471 -60.3333129883 -23 -69.6666870117 -23 -69.6666870117 -11.5 -75.5 0 -81.3333129883 0 -113.333343506 22.3333282471 -101.333343506 44.6666717529 -89.3333129883 rrcurveto
          44.6666717529 -89.3333129883 62.3333282471 -67.6666564941 80 -46.0000305176 rrcurveto
          -131 -321 rlineto
          endchar
        </CharString>
        <CharString name="otilde">
          11 310 1238 rmoveto
          90 hlineto
          5.33334350586 68.6666259766 20.3333129883 34.3333740234 35.3333435059 0 15.3333435059 0 42.8333435059 -17.1666259766 70.3333129883 -34.3333740234 70.33203125 -34.3333740234 49.8333129883 -17.1666259766 29.3346557617 0 44 0 33.8333129883 14.1666259766 23.6666870117 28.3333740234 23.6666870117 28.3333740234 13.1666259766 47.8332519531 2.66668701172 67.3333740234 rrcurveto
          -91 hlineto
          -1.33331298828 -13.3118896484 -1.33337402344 -10.3333740234 -1.33331298828 -7.35473632812 -1.33331298828 -7.33337402344 -2.66668701172 -9.66662597656 -4 -12 -4 -12 -5.66668701172 -9 -7.33331298828 -6 -7.33331298828 -6 -9 -3 -10.6666870117 0 -16 0 -40.3333129883 16 -64.6666870117 32 -64.6666870117 32 -47.6666564941 16 -30.6666564941 0 rrcurveto
          -48.6666564941 0 -38.1666870117 -13.1666259766 -27.6666564941 -26.3333740234 -27.6666564941 -26.3282470703 -14.8333435059 -48.8333740234 -2 -71.3383789062 rrcurveto
          282 -1262 rmoveto
          -68 callsubr
          9 99 rmoveto
          -67 callsubr
          endchar
        </CharString>
        <CharString name="p">
          -4 614 78 rmoveto
          -64.6666870117 0 -55 11.3333435059 -45.3333129883 22.6666564941 -45.3333435059 22.6666717529 -35.5 33.5 -25.6666564941 44.3333282471 -25.6666564941 44.3333435059 -18.5 50.5 -11.3333435059 56.6666564941 -11.3333435059 56.6666564941 -5.66665649414 66.3333435059 0 76 0 66 6 59.3333129883 12 52.6666870117 12 52.6666870117 19.1666564941 47 26.3333435059 41.3333129883 rrcurveto
          26.3333435059 41.3315429688 35.6666564941 31.8333129883 45 22.335144043 45 22.3333129883 53.5 11.1666870117 62 0 57.3333129883 0 51 -13.6666870117 44.6666870117 -27.3333129883 44.6666870117 -27.3333129883 35.1666259766 -36.5 25.6666870117 -45.6666870117 25.6666870117 -45.6666870117 19.1666259766 -49.5 12.6666870117 -53.3333129883 12.6666870117 -53.3333129883 6.33331298828 -56 0 -58.6666870117 rrcurveto
          0 -58 -6.5 -55.8333435059 -13 -53.6666564941 -13 -53.6666564941 -19.5 -49.5 -26 -45.3333435059 -26 -45.3333282471 -35 -36.3333435059 -44 -27.3333282471 -44 -27.3333435059 -50.3333129883 -13.6666564941 -56.6666870117 0 rrcurveto
          -467 -566 rmoveto
          124 9 0 398 rlineto
          0 79.3333435059 -1.66665649414 80.6666564941 -3.33334350586 82 37.3333435059 -55.3333282471 50.6666564941 -44.6666717529 64 -34 64 -34 68 -17 72 0 140 0 111 52.1666564941 82 104.333343506 82 104.333343506 41 134.166656494 0 164 0 180 -38.8333740234 141.833312988 -77.6666259766 103.666687012 rrcurveto
          -77.6666870117 103.666625977 -116.833312988 51.8333740234 -156 0 -70.6661987305 0 -61.8333435059 -14.6666259766 -53.0004577637 -29.3333740234 -53 -29.3314208984 -52.1666564941 -44 -51.3333435059 -58.6685791016 rrcurveto
          -11 156 -111 0 rlineto
          endchar
        </CharString>
        <CharString name="paragraph">
          -172 495 hmoveto
          94 1417 173 -1417 92 1417 72 97 -438 hlineto
          -66.6666564941 0 -60 -8.83337402344 -53.3333435059 -17.6666259766 -53.3333282471 -17.6666259766 -42.8333435059 -23.6667480469 -32.3333282471 -29.6666259766 -32.3333282471 -29.6666259766 -24.5000152588 -33.1667480469 -16.6666564941 -36.6666259766 -16.6666564941 -36.6666259766 -8.33334350586 -38.6667480469 0 -40.6666259766 0 -42.6666259766 9 -41.1667480469 18 -39.6666259766 18 -39.6666259766 25.8333282471 -36.0000610352 33.6666717529 -32.3333129883 rrcurveto
          33.6666717529 -32.3333129883 43.3333282471 -25.8333740234 53 -19.3333129883 53 -19.3333129883 58.8333435059 -9.66668701172 64.6666564941 0 0.666656494141 0 1 -287.666687012 1.33334350586 -575.333312988 rrcurveto
          endchar
        </CharString>
        <CharString name="parenleft">
          -589 379 -239 rmoveto
          116 hlineto
          -168.666564941 280.666687012 -84.3333282471 290.666656494 -0.000106811523438 300.666656494 -0.000228881835938 153.333312988 18.8333282471 145.666687012 37.6669006348 138 37.6666564941 138 65.5 148 93.3333435059 158 rrcurveto
          -119 hlineto
          -178.666671753 -268.666625977 -89.3333282471 -295.666748047 0 -322.666625977 0 -154.666534424 24 -153.666656494 48 -152.666809082 47.9999847412 -152.666671753 66.3333282471 -134.999984741 84.6666870117 -117.333343506 rrcurveto
          endchar
        </CharString>
        <CharString name="parenright">
          -589 95 -239 rmoveto
          115 hlineto
          84.6666564941 118.666656494 66.5 135.166671753 48.3333435059 151.666671753 48.3333435059 151.666687012 24.1666564941 153.5 0 155.333312988 0 318 -90 295.666625977 -180 273.333374023 rrcurveto
          -118 hlineto
          93.3333435059 -158 65.6666564941 -148.166625977 38 -138.333374023 38 -138.333312988 19 -145.5 0 -152.666687012 0.000152587890625 -300 -84.3333435059 -290.666656494 -168.666809082 -281.333343506 rrcurveto
          endchar
        </CharString>
        <CharString name="period">
          -662 290 -8 rmoveto
          36.6666564941 0 27.3333435059 10.3333282471 18 20.6666717529 18 20.6666564941 9 24.3333282471 0 28.0000152588 0 27.3333435059 -9 23.9999847412 -18 20.6666717529 -18 20.6666717529 -27.3333435059 10.3333282471 -36.6666564941 0 -35.3333282471 0 -26.6666717529 -10.3333282471 -18 -20.6666717529 -18 -20.6666717529 -9 -24 0 -27.3333282471 rrcurveto
          0 -28 9 -24.3333435059 18 -20.6666564941 18 -20.6666717529 26.6666717529 -10.3333282471 35.3333282471 0 rrcurveto
          endchar
        </CharString>
        <CharString name="periodcentered">
          -690 170 610 rmoveto
          -54 callsubr
          endchar
        </CharString>
        <CharString name="plus">
          -78 500 157 rmoveto
          110 443 382 100 -382 435 -108 -435 -394 -100 392 hlineto
          endchar
        </CharString>
        <CharString name="plusminus">
          -16 95 hmoveto
          975 121 -975 hlineto
          431 94 rmoveto
          109 439 432 111 -435 448 -107 -448 -430 -111 431 hlineto
          endchar
        </CharString>
        <CharString name="q">
          0 554 84 rmoveto
          -58.6666564941 0 -51.1666870117 12.6666564941 -43.6666564941 25.3333435059 -43.6666564941 25.3332519531 -34 34.8333282471 -24.3333435059 44.3334197998 -24.332824707 44.3333435059 -17.8333435059 48.5 -11.3338317871 52.6666564941 -11.3333282471 52.6666564941 -5.66667175293 57.3333435059 0 62 0 46.6666870117 3.33332824707 44.8333129883 6.66667175293 43 6.66667175293 43 11.4999847412 41.8333129883 16.3333435059 40.6666870117 rrcurveto
          16.3333435059 40.6666870117 20.1666564941 35.3333129883 24 30 24 30 30.8333435059 24 37.6666564941 18 37.6666564941 18 42.5 9 47.3333435059 0 64.6666870117 0 55.3333129883 -11.5 46 -23 46 -23 36.3333129883 -33.3333129883 26.6666870117 -43.6666870117 26.6666870117 -43.6666870117 19.5 -50.5 12.3333129883 -57.3333129883 rrcurveto
          12.3333129883 -57.3333129883 6.16668701172 -66 0 -74.6666870117 -3.33331298828 -294 -117 -147 -230.666687012 0 rrcurveto
          354 -572 rmoveto
          124 7 0 1577 -111 0 -8 -165 rlineto
          -97.3333129883 123.333374023 -117 61.6666259766 -136.666687012 0 -99.3333435059 0 -85.1666564941 -25.1666259766 -71 -50.3333740234 -71 -50.3333129883 -52.6666717529 -68.5 -34.3333282471 -86.6666870117 -34.3333282471 -86.6666870117 -17.1666717529 -101 0 -115.333312988 -4.57763671875e-05 -107.333343506 17.1666717529 -95.1666564941 34.3333740234 -83 34.3333282471 -83 52.1666717529 -65.8333435059 70 -48.6666564941 rrcurveto
          70 -48.6666717529 83 -24.3333282471 96 0 66.6666870117 0 66.8333129883 16 67 32 67 32 52.8333129883 47 38.6666870117 62 -3.33331298828 -45.3333282471 -1.66668701172 -50.6666717529 0 -56 rrcurveto
          endchar
        </CharString>
        <CharString name="question">
          -324 363 -1 rmoveto
          34 0 25.3333435059 9.66667175293 16.6666564941 19.3333282471 16.6666564941 19.3333435059 8.33334350586 22.6666564941 0 26 0 26 -8.33334350586 22.5 -16.6666564941 19 -16.6666564941 19 -25.3333435059 9.5 -34 0 -33.3333435059 0 -25.1666564941 -9.66667175293 -17 -19.3333282471 -17 -19.3333282471 -8.5 -22.3333282471 0 -25.3333435059 rrcurveto
          0 -25.9999847412 8.5 -22.6666717529 17 -19.3333435059 17 -19.3333282471 25.1666564941 -9.66667175293 33.3333435059 0 rrcurveto
          -49 396 rmoveto
          65 hlineto
          26 62.6666564941 31.1666564941 63.8333435059 36.3333435059 65 36.3333435059 65 32.9999694824 55.6666870117 29.6666870117 46.3333129883 29.6666870117 46.3317871094 28.1666259766 46.8333129883 26.6666870117 47.3348999023 26.6666870117 47.3333129883 21 47 15.3333129883 46.6666870117 15.3333129883 46.6666259766 7.66668701172 46 0 45.3333740234 0 98.6666259766 -31 82 -62 65.3333740234 rrcurveto
          -62 65.3333740234 -85 32.6666259766 -108 0 -47.3333435059 0 -53.6666564941 -8.16662597656 -60 -16.3333740234 -60 -16.3333740234 -50 -22.1666259766 -40 -28 rrcurveto
          34 -96 rlineto
          31.3333282471 19.3333740234 39.6666717529 18.1666259766 48 17 48 17 48.6666564941 8.5 49.3333435059 0 67.3333435059 0 54.5 -21.5 41.6666564941 -43 41.6666870117 -43 21.1666259766 -57.1666259766 0.666687011719 -71.3333740234 0 -48 -10.6666870117 -53.5 -21.3333129883 -59 -21.3333129883 -59 -25.6666870117 -56.8333129883 -30 -54.6666870117 rrcurveto
          -30 -54.6666870117 -29.8333435059 -54 -29.6666564941 -53.3333129883 -29.6666564941 -53.3333129883 -24.3333435059 -52 -19 -50.6666870117 -19 -50.6666564941 -7.83334350586 -43.3333435059 3.33334350586 -36 rrcurveto
          endchar
        </CharString>
        <CharString name="questiondown">
          -385 478 1127 rmoveto
          -34 0 -25.3333435059 -9.66662597656 -16.6666564941 -19.3333740234 -16.6666564941 -19.3333740234 -8.33334350586 -22.6666259766 0 -26 0 -26 8.33334350586 -22.5 16.6666564941 -19 16.6666564941 -19 25.3333435059 -9.5 34 0 33.3333435059 0 25.1666564941 9.66668701172 17 19.3333129883 17 19.3323974609 8.5 22.3333129883 0 25.3342895508 rrcurveto
          0 26 -8.5 22.6666259766 -17 19.3333740234 -17 19.3333740234 -25.1666564941 9.66662597656 -33.3333435059 0 rrcurveto
          49 -396 rmoveto
          -65 hlineto
          -26 -62.6666870117 -31.1666564941 -63.8333129883 -36.3333435059 -65 -36.3333435059 -65 -33 -55.6666564941 -29.6666564941 -46.3333435059 -29.6666107178 -46.3330383301 -28.1666717529 -46.8333435059 -26.6667175293 -47.3336181641 -26.6666717529 -47.3333282471 -21 -47 -15.3333282471 -46.6666717529 -15.3333435059 -46.6666717529 -7.66665649414 -46 0 -45.3333282471 0 -98.6666564941 31 -82 62 -65.3333435059 rrcurveto
          62 -65.3333435059 85 -32.6666564941 108 0 47.3333435059 0 53.6666564941 8.16665649414 60 16.3333435059 60 16.3333435059 50 22.1666564941 40 28 rrcurveto
          -34 96 rlineto
          -31.3333129883 -19.3333282471 -39.6666870117 -18.1666717529 -48 -17 -48 -17 -48.6666564941 -8.5 -49.3333435059 0 -67.3333435059 0 -54.5 21.5 -41.6666564941 43 -41.6664276123 43 -21.1666717529 57.1666564941 -0.666900634766 71.3333435059 0 48 10.6666717529 53.5 21.3333282471 59 21.3333435059 59 25.6666564941 56.8333282471 30 54.6666717529 rrcurveto
          30 54.6666564941 29.8333435059 54 29.6666564941 53.3333435059 29.6666564941 53.3333435059 24.3333435059 51.9999694824 19 50.6666870117 19 50.6666870117 7.83331298828 43.3333129883 -3.33331298828 36 rrcurveto
          endchar
        </CharString>
        <CharString name="quotedbl">
          -503 427 1034 rmoveto
          71 0 32 480 -118 0 rlineto
          -244 -480 rmoveto
          71 0 32 480 -118 0 rlineto
          endchar
        </CharString>
        <CharString name="quotedblbase">
          -445 409 -240 rmoveto
          89 0 123 458 -134 0 rlineto
          -376 -458 rmoveto
          93 0 117 458 -129 0 rlineto
          endchar
        </CharString>
        <CharString name="quotedblleft">
          -325 419 1161 rmoveto
          154 0 159 458 -79 0 rlineto
          -549 -458 rmoveto
          155 0 161 458 -79 0 rlineto
          endchar
        </CharString>
        <CharString name="quotedblright">
          -456 394 1161 rmoveto
          98 0 127 458 -138 0 rlineto
          -368 -458 rmoveto
          93 0 129 458 -135 0 rlineto
          endchar
        </CharString>
        <CharString name="quoteleft">
          -638 104 1161 rmoveto
          154 0 162 458 -76 0 rlineto
          endchar
        </CharString>
        <CharString name="quoteright">
          -647 166 1161 rmoveto
          93 0 123 458 -130 0 rlineto
          endchar
        </CharString>
        <CharString name="quotesinglbase">
          -699 130 -240 rmoveto
          97 0 122 458 -134 0 rlineto
          endchar
        </CharString>
        <CharString name="quotesingle">
          -764 152 1020 rmoveto
          95 0 20 494 -130 0 rlineto
          endchar
        </CharString>
        <CharString name="r">
          -464 149 hmoveto
          -66 callsubr
          endchar
        </CharString>
        <CharString name="racute">
          -464 378 1238 rmoveto
          -55 callsubr
          -423 -1625 rmoveto
          -66 callsubr
          endchar
        </CharString>
        <CharString name="rcaron">
          -464 321 1238 rmoveto
          -44 callsubr
          -1 -1597 rmoveto
          -66 callsubr
          endchar
        </CharString>
        <CharString name="rcommaaccent">
          -464 303 -608 rmoveto
          -42 callsubr
          -241 122 rmoveto
          -66 callsubr
          endchar
        </CharString>
        <CharString name="registered">
          686 924 -116 rmoveto
          -58 callsubr
          3 92 rmoveto
          -57 callsubr
          -191 778 rmoveto
          353 195 vlineto
          98 0 67.6666259766 -12.1666259766 37.3333740234 -24.3333740234 37.3333740234 -24.3333740234 18.6666259766 -48.8333129883 0 -73.3333129883 0 -64.6666870117 -19.8333740234 -44.5 -39.6666259766 -24.3333129883 -39.6666259766 -24.3333129883 -63.1667480469 -12.1666870117 -86.6666259766 0 rrcurveto
          -318 -542 rmoveto
          112 446 206 hlineto
          53.3332519531 -76 91 -148.666687012 128.666748047 -221.333312988 rrcurveto
          135 hlineto
          -22 36 -27.6666259766 45.5 -33.3333740234 55 -33.3333740234 55 -23.6666259766 39 -14 23 -14 22.9990539551 -16.8333740234 27.1666564941 -19.6666259766 31.3342895508 -19.6666259766 31.3322143555 -16.1667480469 25.3333129883 -12.6666259766 19.3344726562 -12.6666259766 19.330871582 -12.6667480469 18.3333129883 -12.6666259766 17.3358154297 44.6666259766 4 38.8333740234 10.3333129883 33 16.6666870117 rrcurveto
          33 16.6666870117 25.3333740234 21 17.6666259766 25.3333129883 17.6666259766 25.3333129883 13 26.1666870117 8.33337402344 27 8.33337402344 27 4.16662597656 28.5 0 30 0 84.6666870117 -27.3333740234 65.4999389648 -54.6666259766 46.3333740234 -54.6666259766 46.3333740234 -84.6667480469 23.1666259766 -114.666625977 0 rrcurveto
          -343 hlineto
          endchar
        </CharString>
        <CharString name="ring">
          -558 315 1317 rmoveto
          48.6666259766 0 42.1666564941 15.5 35.6667175293 31 35.6666564941 31 17.8333435059 43.8333740234 0 56.6666259766 0 55.3333740234 -18.1666564941 43.5 -36.3333435059 31.6666259766 -36.3333435059 31.6666259766 -42.8333435059 15.8333740234 -49.3333129883 0 -50 0 -43 -15.6666259766 -36 -31.3333740234 -36 -31.3333740234 -18 -43.6666259766 0 -56 rrcurveto
          0 -55.3333740234 18.5 -43.5 37 -31.6666259766 37 -31.6666259766 43.5 -15.8333740234 50 0 rrcurveto
          -1 71 rmoveto
          -25.3333435059 0 -22 9.33337402344 -18.6666564941 18.6666259766 -18.6666717529 18.6666259766 -9.33332824707 26 0 33.3333740234 0 34 9.16667175293 26.5 18.3333282471 19 18.3333435059 19 21.8333129883 9.5 25.3333435059 0 25.3333435059 0 21.8333129883 -9.5 18.3333435059 -19 18.3333435059 -19 9.5 -26.1666259766 0.666656494141 -33.3333740234 rrcurveto
          0 -34 -9.16665649414 -26.3333740234 -18.3333435059 -18.6666259766 -18.3331604004 -18.6666259766 -21.8333435059 -9.33337402344 -25.3334960938 0 rrcurveto
          endchar
        </CharString>
        <CharString name="s">
          -235 467 -25 rmoveto
          -65 callsubr
          endchar
        </CharString>
        <CharString name="sacute">
          -235 443 1238 rmoveto
          -55 callsubr
          -170 -1650 rmoveto
          -65 callsubr
          endchar
        </CharString>
        <CharString name="scaron">
          -235 386 1238 rmoveto
          -44 callsubr
          252 -1622 rmoveto
          -65 callsubr
          endchar
        </CharString>
        <CharString name="scedilla">
          -235 344 -432 rmoveto
          -53 callsubr
          16 -14 rmoveto
          -65 callsubr
          endchar
        </CharString>
</ttFont>
